solid OpenSCAD_Model
  facet normal -0.908663 -0.180744 -0.376381
    outer loop
      vertex -4.53064 -1.87665 -0.975452
      vertex -4.90393 0 -0.975452
      vertex -3.84089 -1.59095 -2.77785
    endloop
  endfacet
  facet normal -0.908663 -0.180744 -0.376381
    outer loop
      vertex -3.84089 -1.59095 -2.77785
      vertex -4.90393 0 -0.975452
      vertex -4.15735 0 -2.77785
    endloop
  endfacet
  facet normal -0.908663 0.180744 -0.376381
    outer loop
      vertex -4.15735 0 -2.77785
      vertex -4.90393 0 -0.975452
      vertex -4.53064 1.87665 -0.975452
    endloop
  endfacet
  facet normal -0.980785 0.19509 0
    outer loop
      vertex -4.90393 0 -0.975452
      vertex -4.90393 0 0.975452
      vertex -4.53064 1.87665 -0.975452
    endloop
  endfacet
  facet normal -0.980785 0.19509 0
    outer loop
      vertex -4.53064 1.87665 -0.975452
      vertex -4.90393 0 0.975452
      vertex -4.53064 1.87665 0.975452
    endloop
  endfacet
  facet normal -0.980785 -0.19509 -0
    outer loop
      vertex -4.90393 0 -0.975452
      vertex -4.53064 -1.87665 -0.975452
      vertex -4.90393 0 0.975452
    endloop
  endfacet
  facet normal -0.980785 -0.19509 0
    outer loop
      vertex -4.90393 0 0.975452
      vertex -4.53064 -1.87665 -0.975452
      vertex -4.53064 -1.87665 0.975452
    endloop
  endfacet
  facet normal -0.770328 -0.514716 -0.376381
    outer loop
      vertex -3.4676 -3.4676 -0.975452
      vertex -4.53064 -1.87665 -0.975452
      vertex -2.93969 -2.93969 -2.77785
    endloop
  endfacet
  facet normal -0.770328 -0.514716 -0.376381
    outer loop
      vertex -2.93969 -2.93969 -2.77785
      vertex -4.53064 -1.87665 -0.975452
      vertex -3.84089 -1.59095 -2.77785
    endloop
  endfacet
  facet normal -0.83147 -0.55557 -0
    outer loop
      vertex -4.53064 -1.87665 -0.975452
      vertex -3.4676 -3.4676 -0.975452
      vertex -4.53064 -1.87665 0.975452
    endloop
  endfacet
  facet normal -0.83147 -0.55557 0
    outer loop
      vertex -4.53064 -1.87665 0.975452
      vertex -3.4676 -3.4676 -0.975452
      vertex -3.4676 -3.4676 0.975452
    endloop
  endfacet
  facet normal -0.593613 -0.39664 -0.700215
    outer loop
      vertex -2.93969 -2.93969 -2.77785
      vertex -3.84089 -1.59095 -2.77785
      vertex -1.96424 -1.96424 -4.15735
    endloop
  endfacet
  facet normal -0.593613 -0.39664 -0.700214
    outer loop
      vertex -1.96424 -1.96424 -4.15735
      vertex -3.84089 -1.59095 -2.77785
      vertex -2.5664 -1.06304 -4.15735
    endloop
  endfacet
  facet normal -0.700215 -0.139281 -0.700214
    outer loop
      vertex -3.84089 -1.59095 -2.77785
      vertex -4.15735 0 -2.77785
      vertex -2.5664 -1.06304 -4.15735
    endloop
  endfacet
  facet normal -0.700215 -0.139281 -0.700215
    outer loop
      vertex -2.5664 -1.06304 -4.15735
      vertex -4.15735 0 -2.77785
      vertex -2.77785 0 -4.15735
    endloop
  endfacet
  facet normal -0.700215 0.139281 -0.700215
    outer loop
      vertex -2.77785 0 -4.15735
      vertex -4.15735 0 -2.77785
      vertex -3.84089 1.59095 -2.77785
    endloop
  endfacet
  facet normal -0.908663 0.180744 -0.376381
    outer loop
      vertex -4.15735 0 -2.77785
      vertex -4.53064 1.87665 -0.975452
      vertex -3.84089 1.59095 -2.77785
    endloop
  endfacet
  facet normal -0.770328 0.514716 -0.376381
    outer loop
      vertex -3.84089 1.59095 -2.77785
      vertex -4.53064 1.87665 -0.975452
      vertex -3.4676 3.4676 -0.975452
    endloop
  endfacet
  facet normal -0.83147 0.55557 0
    outer loop
      vertex -4.53064 1.87665 -0.975452
      vertex -4.53064 1.87665 0.975452
      vertex -3.4676 3.4676 -0.975452
    endloop
  endfacet
  facet normal -0.83147 0.55557 0
    outer loop
      vertex -3.4676 3.4676 -0.975452
      vertex -4.53064 1.87665 0.975452
      vertex -3.4676 3.4676 0.975452
    endloop
  endfacet
  facet normal -0.770328 0.514716 0.376381
    outer loop
      vertex -3.4676 3.4676 0.975452
      vertex -4.53064 1.87665 0.975452
      vertex -2.93969 2.93969 2.77785
    endloop
  endfacet
  facet normal -0.770328 0.514716 0.376381
    outer loop
      vertex -2.93969 2.93969 2.77785
      vertex -4.53064 1.87665 0.975452
      vertex -3.84089 1.59095 2.77785
    endloop
  endfacet
  facet normal -0.908663 0.180744 0.376381
    outer loop
      vertex -4.53064 1.87665 0.975452
      vertex -4.90393 0 0.975452
      vertex -3.84089 1.59095 2.77785
    endloop
  endfacet
  facet normal -0.908663 0.180744 0.376381
    outer loop
      vertex -3.84089 1.59095 2.77785
      vertex -4.90393 0 0.975452
      vertex -4.15735 0 2.77785
    endloop
  endfacet
  facet normal -0.908663 -0.180744 0.376381
    outer loop
      vertex -4.15735 0 2.77785
      vertex -4.90393 0 0.975452
      vertex -4.53064 -1.87665 0.975452
    endloop
  endfacet
  facet normal -0.908663 -0.180744 0.376381
    outer loop
      vertex -4.15735 0 2.77785
      vertex -4.53064 -1.87665 0.975452
      vertex -3.84089 -1.59095 2.77785
    endloop
  endfacet
  facet normal -0.770328 -0.514716 0.376381
    outer loop
      vertex -3.84089 -1.59095 2.77785
      vertex -4.53064 -1.87665 0.975452
      vertex -3.4676 -3.4676 0.975452
    endloop
  endfacet
  facet normal -0.514716 -0.770328 -0.376381
    outer loop
      vertex -1.87665 -4.53064 -0.975452
      vertex -3.4676 -3.4676 -0.975452
      vertex -1.59095 -3.84089 -2.77785
    endloop
  endfacet
  facet normal -0.514716 -0.770327 -0.376381
    outer loop
      vertex -1.59095 -3.84089 -2.77785
      vertex -3.4676 -3.4676 -0.975452
      vertex -2.93969 -2.93969 -2.77785
    endloop
  endfacet
  facet normal -0.55557 -0.83147 0
    outer loop
      vertex -3.4676 -3.4676 0.975452
      vertex -3.4676 -3.4676 -0.975452
      vertex -1.87665 -4.53064 -0.975452
    endloop
  endfacet
  facet normal -0.55557 -0.83147 0
    outer loop
      vertex -1.87665 -4.53064 0.975452
      vertex -3.4676 -3.4676 0.975452
      vertex -1.87665 -4.53064 -0.975452
    endloop
  endfacet
  facet normal -0.39664 -0.593613 -0.700214
    outer loop
      vertex -1.59095 -3.84089 -2.77785
      vertex -2.93969 -2.93969 -2.77785
      vertex -1.06304 -2.5664 -4.15735
    endloop
  endfacet
  facet normal -0.39664 -0.593613 -0.700215
    outer loop
      vertex -1.06304 -2.5664 -4.15735
      vertex -2.93969 -2.93969 -2.77785
      vertex -1.96424 -1.96424 -4.15735
    endloop
  endfacet
  facet normal -0.770327 -0.514716 0.376381
    outer loop
      vertex -2.93969 -2.93969 2.77785
      vertex -3.84089 -1.59095 2.77785
      vertex -3.4676 -3.4676 0.975452
    endloop
  endfacet
  facet normal -0.514716 -0.770328 0.376381
    outer loop
      vertex -2.93969 -2.93969 2.77785
      vertex -3.4676 -3.4676 0.975452
      vertex -1.87665 -4.53064 0.975452
    endloop
  endfacet
  facet normal -0.216148 -0.323487 -0.921215
    outer loop
      vertex -1.06304 -2.5664 -4.15735
      vertex -1.96424 -1.96424 -4.15735
      vertex -0.373289 -0.9012 -4.90393
    endloop
  endfacet
  facet normal -0.216148 -0.323487 -0.921215
    outer loop
      vertex -0.373289 -0.9012 -4.90393
      vertex -1.96424 -1.96424 -4.15735
      vertex -0.689748 -0.689748 -4.90393
    endloop
  endfacet
  facet normal -0.323487 -0.216148 -0.921215
    outer loop
      vertex -1.96424 -1.96424 -4.15735
      vertex -2.5664 -1.06304 -4.15735
      vertex -0.689748 -0.689748 -4.90393
    endloop
  endfacet
  facet normal -0.323487 -0.216148 -0.921215
    outer loop
      vertex -0.689748 -0.689748 -4.90393
      vertex -2.5664 -1.06304 -4.15735
      vertex -0.9012 -0.373289 -4.90393
    endloop
  endfacet
  facet normal -0.381579 -0.0759007 -0.921215
    outer loop
      vertex -2.5664 -1.06304 -4.15735
      vertex -2.77785 0 -4.15735
      vertex -0.9012 -0.373289 -4.90393
    endloop
  endfacet
  facet normal -0.381579 -0.0759011 -0.921214
    outer loop
      vertex -0.9012 -0.373289 -4.90393
      vertex -2.77785 0 -4.15735
      vertex -0.975452 0 -4.90393
    endloop
  endfacet
  facet normal -0.381579 0.0759007 -0.921215
    outer loop
      vertex -0.975452 0 -4.90393
      vertex -2.77785 0 -4.15735
      vertex -2.5664 1.06304 -4.15735
    endloop
  endfacet
  facet normal -0.700215 0.139281 -0.700214
    outer loop
      vertex -2.77785 0 -4.15735
      vertex -3.84089 1.59095 -2.77785
      vertex -2.5664 1.06304 -4.15735
    endloop
  endfacet
  facet normal -0.593613 0.39664 -0.700214
    outer loop
      vertex -2.5664 1.06304 -4.15735
      vertex -3.84089 1.59095 -2.77785
      vertex -2.93969 2.93969 -2.77785
    endloop
  endfacet
  facet normal -0.770327 0.514716 -0.376381
    outer loop
      vertex -2.93969 2.93969 -2.77785
      vertex -3.84089 1.59095 -2.77785
      vertex -3.4676 3.4676 -0.975452
    endloop
  endfacet
  facet normal -0.514716 0.770328 -0.376381
    outer loop
      vertex -2.93969 2.93969 -2.77785
      vertex -3.4676 3.4676 -0.975452
      vertex -1.87665 4.53064 -0.975452
    endloop
  endfacet
  facet normal -0.55557 0.83147 0
    outer loop
      vertex -3.4676 3.4676 -0.975452
      vertex -3.4676 3.4676 0.975452
      vertex -1.87665 4.53064 -0.975452
    endloop
  endfacet
  facet normal -0.55557 0.83147 0
    outer loop
      vertex -1.87665 4.53064 -0.975452
      vertex -3.4676 3.4676 0.975452
      vertex -1.87665 4.53064 0.975452
    endloop
  endfacet
  facet normal -0.514716 0.770328 0.376381
    outer loop
      vertex -1.87665 4.53064 0.975452
      vertex -3.4676 3.4676 0.975452
      vertex -1.59095 3.84089 2.77785
    endloop
  endfacet
  facet normal -0.514716 0.770327 0.376381
    outer loop
      vertex -1.59095 3.84089 2.77785
      vertex -3.4676 3.4676 0.975452
      vertex -2.93969 2.93969 2.77785
    endloop
  endfacet
  facet normal -0.39664 0.593613 0.700214
    outer loop
      vertex -1.59095 3.84089 2.77785
      vertex -2.93969 2.93969 2.77785
      vertex -1.06304 2.5664 4.15735
    endloop
  endfacet
  facet normal -0.39664 0.593613 0.700215
    outer loop
      vertex -1.06304 2.5664 4.15735
      vertex -2.93969 2.93969 2.77785
      vertex -1.96424 1.96424 4.15735
    endloop
  endfacet
  facet normal -0.593613 0.39664 0.700215
    outer loop
      vertex -2.93969 2.93969 2.77785
      vertex -3.84089 1.59095 2.77785
      vertex -1.96424 1.96424 4.15735
    endloop
  endfacet
  facet normal -0.593613 0.39664 0.700214
    outer loop
      vertex -1.96424 1.96424 4.15735
      vertex -3.84089 1.59095 2.77785
      vertex -2.5664 1.06304 4.15735
    endloop
  endfacet
  facet normal -0.700215 0.139281 0.700214
    outer loop
      vertex -3.84089 1.59095 2.77785
      vertex -4.15735 0 2.77785
      vertex -2.5664 1.06304 4.15735
    endloop
  endfacet
  facet normal -0.700215 0.139281 0.700215
    outer loop
      vertex -2.5664 1.06304 4.15735
      vertex -4.15735 0 2.77785
      vertex -2.77785 0 4.15735
    endloop
  endfacet
  facet normal -0.700215 -0.139281 0.700215
    outer loop
      vertex -2.77785 0 4.15735
      vertex -4.15735 0 2.77785
      vertex -3.84089 -1.59095 2.77785
    endloop
  endfacet
  facet normal -0.700215 -0.139281 0.700214
    outer loop
      vertex -2.77785 0 4.15735
      vertex -3.84089 -1.59095 2.77785
      vertex -2.5664 -1.06304 4.15735
    endloop
  endfacet
  facet normal -0.593613 -0.39664 0.700214
    outer loop
      vertex -2.5664 -1.06304 4.15735
      vertex -3.84089 -1.59095 2.77785
      vertex -2.93969 -2.93969 2.77785
    endloop
  endfacet
  facet normal -0.180744 -0.908663 -0.376381
    outer loop
      vertex 0 -4.90393 -0.975452
      vertex -1.87665 -4.53064 -0.975452
      vertex 0 -4.15735 -2.77785
    endloop
  endfacet
  facet normal -0.180744 -0.908663 -0.376381
    outer loop
      vertex 0 -4.15735 -2.77785
      vertex -1.87665 -4.53064 -0.975452
      vertex -1.59095 -3.84089 -2.77785
    endloop
  endfacet
  facet normal -0.19509 -0.980785 0
    outer loop
      vertex -1.87665 -4.53064 0.975452
      vertex -1.87665 -4.53064 -0.975452
      vertex 0 -4.90393 -0.975452
    endloop
  endfacet
  facet normal -0.19509 -0.980785 0
    outer loop
      vertex 0 -4.90393 0.975452
      vertex -1.87665 -4.53064 0.975452
      vertex 0 -4.90393 -0.975452
    endloop
  endfacet
  facet normal -0.139281 -0.700215 -0.700215
    outer loop
      vertex 0 -4.15735 -2.77785
      vertex -1.59095 -3.84089 -2.77785
      vertex 0 -2.77785 -4.15735
    endloop
  endfacet
  facet normal -0.139281 -0.700215 -0.700214
    outer loop
      vertex 0 -2.77785 -4.15735
      vertex -1.59095 -3.84089 -2.77785
      vertex -1.06304 -2.5664 -4.15735
    endloop
  endfacet
  facet normal -0.514716 -0.770328 0.376381
    outer loop
      vertex -1.59095 -3.84089 2.77785
      vertex -2.93969 -2.93969 2.77785
      vertex -1.87665 -4.53064 0.975452
    endloop
  endfacet
  facet normal -0.180744 -0.908663 0.376381
    outer loop
      vertex -1.59095 -3.84089 2.77785
      vertex -1.87665 -4.53064 0.975452
      vertex 0 -4.90393 0.975452
    endloop
  endfacet
  facet normal -0.0759007 -0.381579 -0.921215
    outer loop
      vertex 0 -2.77785 -4.15735
      vertex -1.06304 -2.5664 -4.15735
      vertex 0 -0.975452 -4.90393
    endloop
  endfacet
  facet normal -0.075901 -0.381579 -0.921215
    outer loop
      vertex 0 -0.975452 -4.90393
      vertex -1.06304 -2.5664 -4.15735
      vertex -0.373289 -0.9012 -4.90393
    endloop
  endfacet
  facet normal -0.593613 -0.39664 0.700215
    outer loop
      vertex -2.5664 -1.06304 4.15735
      vertex -2.93969 -2.93969 2.77785
      vertex -1.96424 -1.96424 4.15735
    endloop
  endfacet
  facet normal -0.39664 -0.593613 0.700215
    outer loop
      vertex -1.96424 -1.96424 4.15735
      vertex -2.93969 -2.93969 2.77785
      vertex -1.59095 -3.84089 2.77785
    endloop
  endfacet
  facet normal -0 0 -1
    outer loop
      vertex -0.975452 0 -4.90393
      vertex -0.9012 0.373289 -4.90393
      vertex -0.9012 -0.373289 -4.90393
    endloop
  endfacet
  facet normal 0 -0 -1
    outer loop
      vertex -0.9012 -0.373289 -4.90393
      vertex -0.9012 0.373289 -4.90393
      vertex -0.689748 0.689748 -4.90393
    endloop
  endfacet
  facet normal 0 0 -1
    outer loop
      vertex -0.9012 -0.373289 -4.90393
      vertex -0.689748 0.689748 -4.90393
      vertex -0.373289 0.9012 -4.90393
    endloop
  endfacet
  facet normal 0 0 -1
    outer loop
      vertex -0.9012 -0.373289 -4.90393
      vertex -0.373289 0.9012 -4.90393
      vertex 0 0.975452 -4.90393
    endloop
  endfacet
  facet normal 0 0 -1
    outer loop
      vertex -0.9012 -0.373289 -4.90393
      vertex 0 0.975452 -4.90393
      vertex 0.373289 0.9012 -4.90393
    endloop
  endfacet
  facet normal 0 0 -1
    outer loop
      vertex -0.9012 -0.373289 -4.90393
      vertex 0.373289 0.9012 -4.90393
      vertex 0.689748 0.689748 -4.90393
    endloop
  endfacet
  facet normal 0 0 -1
    outer loop
      vertex -0.9012 -0.373289 -4.90393
      vertex 0.689748 0.689748 -4.90393
      vertex 0.9012 0.373289 -4.90393
    endloop
  endfacet
  facet normal 0 0 -1
    outer loop
      vertex -0.9012 -0.373289 -4.90393
      vertex 0.9012 0.373289 -4.90393
      vertex 0.975452 0 -4.90393
    endloop
  endfacet
  facet normal -0 0 -1
    outer loop
      vertex -0.9012 -0.373289 -4.90393
      vertex 0.975452 0 -4.90393
      vertex 0.9012 -0.373289 -4.90393
    endloop
  endfacet
  facet normal 0 0 -1
    outer loop
      vertex -0.9012 -0.373289 -4.90393
      vertex 0.9012 -0.373289 -4.90393
      vertex 0.689748 -0.689748 -4.90393
    endloop
  endfacet
  facet normal 0 0 -1
    outer loop
      vertex -0.9012 -0.373289 -4.90393
      vertex 0.689748 -0.689748 -4.90393
      vertex 0.373289 -0.9012 -4.90393
    endloop
  endfacet
  facet normal 0 0 -1
    outer loop
      vertex -0.9012 -0.373289 -4.90393
      vertex 0.373289 -0.9012 -4.90393
      vertex 0 -0.975452 -4.90393
    endloop
  endfacet
  facet normal 0 0 -1
    outer loop
      vertex -0.9012 -0.373289 -4.90393
      vertex 0 -0.975452 -4.90393
      vertex -0.373289 -0.9012 -4.90393
    endloop
  endfacet
  facet normal 0 0 -1
    outer loop
      vertex -0.9012 -0.373289 -4.90393
      vertex -0.373289 -0.9012 -4.90393
      vertex -0.689748 -0.689748 -4.90393
    endloop
  endfacet
  facet normal -0.381579 0.075901 -0.921215
    outer loop
      vertex -0.975452 0 -4.90393
      vertex -2.5664 1.06304 -4.15735
      vertex -0.9012 0.373289 -4.90393
    endloop
  endfacet
  facet normal -0.323487 0.216148 -0.921215
    outer loop
      vertex -0.9012 0.373289 -4.90393
      vertex -2.5664 1.06304 -4.15735
      vertex -1.96424 1.96424 -4.15735
    endloop
  endfacet
  facet normal -0.593613 0.39664 -0.700215
    outer loop
      vertex -2.5664 1.06304 -4.15735
      vertex -2.93969 2.93969 -2.77785
      vertex -1.96424 1.96424 -4.15735
    endloop
  endfacet
  facet normal -0.39664 0.593613 -0.700215
    outer loop
      vertex -1.96424 1.96424 -4.15735
      vertex -2.93969 2.93969 -2.77785
      vertex -1.59095 3.84089 -2.77785
    endloop
  endfacet
  facet normal -0.514716 0.770328 -0.376381
    outer loop
      vertex -1.59095 3.84089 -2.77785
      vertex -2.93969 2.93969 -2.77785
      vertex -1.87665 4.53064 -0.975452
    endloop
  endfacet
  facet normal -0.180744 0.908663 -0.376381
    outer loop
      vertex -1.59095 3.84089 -2.77785
      vertex -1.87665 4.53064 -0.975452
      vertex 0 4.90393 -0.975452
    endloop
  endfacet
  facet normal -0.19509 0.980785 0
    outer loop
      vertex -1.87665 4.53064 -0.975452
      vertex -1.87665 4.53064 0.975452
      vertex 0 4.90393 -0.975452
    endloop
  endfacet
  facet normal -0.19509 0.980785 0
    outer loop
      vertex 0 4.90393 -0.975452
      vertex -1.87665 4.53064 0.975452
      vertex 0 4.90393 0.975452
    endloop
  endfacet
  facet normal -0.180744 0.908663 0.376381
    outer loop
      vertex 0 4.90393 0.975452
      vertex -1.87665 4.53064 0.975452
      vertex 0 4.15735 2.77785
    endloop
  endfacet
  facet normal -0.180744 0.908663 0.376381
    outer loop
      vertex 0 4.15735 2.77785
      vertex -1.87665 4.53064 0.975452
      vertex -1.59095 3.84089 2.77785
    endloop
  endfacet
  facet normal -0.139281 0.700215 0.700215
    outer loop
      vertex 0 4.15735 2.77785
      vertex -1.59095 3.84089 2.77785
      vertex 0 2.77785 4.15735
    endloop
  endfacet
  facet normal -0.139281 0.700215 0.700214
    outer loop
      vertex 0 2.77785 4.15735
      vertex -1.59095 3.84089 2.77785
      vertex -1.06304 2.5664 4.15735
    endloop
  endfacet
  facet normal -0.0759007 0.381579 0.921215
    outer loop
      vertex 0 2.77785 4.15735
      vertex -1.06304 2.5664 4.15735
      vertex 0 0.975452 4.90393
    endloop
  endfacet
  facet normal -0.075901 0.381579 0.921215
    outer loop
      vertex 0 0.975452 4.90393
      vertex -1.06304 2.5664 4.15735
      vertex -0.373289 0.9012 4.90393
    endloop
  endfacet
  facet normal -0.216148 0.323487 0.921215
    outer loop
      vertex -1.06304 2.5664 4.15735
      vertex -1.96424 1.96424 4.15735
      vertex -0.373289 0.9012 4.90393
    endloop
  endfacet
  facet normal -0.216148 0.323487 0.921215
    outer loop
      vertex -0.373289 0.9012 4.90393
      vertex -1.96424 1.96424 4.15735
      vertex -0.689748 0.689748 4.90393
    endloop
  endfacet
  facet normal -0.323487 0.216148 0.921215
    outer loop
      vertex -1.96424 1.96424 4.15735
      vertex -2.5664 1.06304 4.15735
      vertex -0.689748 0.689748 4.90393
    endloop
  endfacet
  facet normal -0.323487 0.216148 0.921215
    outer loop
      vertex -0.849468 0.450711 4.90393
      vertex -2.5664 1.06304 4.15735
      vertex -0.9012 0.373289 4.90393
    endloop
  endfacet
  facet normal -0.323487 0.216148 0.921215
    outer loop
      vertex -0.849468 0.617175 4.86487
      vertex -2.5664 1.06304 4.15735
      vertex -0.849468 0.450711 4.90393
    endloop
  endfacet
  facet normal -0.323487 0.216148 0.921215
    outer loop
      vertex -0.689748 0.689748 4.90393
      vertex -2.5664 1.06304 4.15735
      vertex -0.849468 0.617175 4.86487
    endloop
  endfacet
  facet normal -0.323487 0.216148 0.921215
    outer loop
      vertex -0.689748 0.689748 4.90393
      vertex -0.849468 0.617175 4.86487
      vertex -0.707395 0.663337 4.90393
    endloop
  endfacet
  facet normal -0.381579 0.0759007 0.921215
    outer loop
      vertex -2.5664 1.06304 4.15735
      vertex -2.77785 0 4.15735
      vertex -0.9012 0.373289 4.90393
    endloop
  endfacet
  facet normal -0.381579 0.0759011 0.921214
    outer loop
      vertex -0.9012 0.373289 4.90393
      vertex -2.77785 0 4.15735
      vertex -0.975452 0 4.90393
    endloop
  endfacet
  facet normal -0.381579 -0.0759007 0.921215
    outer loop
      vertex -0.975452 0 4.90393
      vertex -2.77785 0 4.15735
      vertex -2.5664 -1.06304 4.15735
    endloop
  endfacet
  facet normal -0.381579 -0.075901 0.921215
    outer loop
      vertex -0.975452 0 4.90393
      vertex -2.5664 -1.06304 4.15735
      vertex -0.9012 -0.373289 4.90393
    endloop
  endfacet
  facet normal -0.323487 -0.216148 0.921215
    outer loop
      vertex -0.9012 -0.373289 4.90393
      vertex -2.5664 -1.06304 4.15735
      vertex -1.96424 -1.96424 4.15735
    endloop
  endfacet
  facet normal 0.180744 -0.908663 -0.376381
    outer loop
      vertex 1.87665 -4.53064 -0.975452
      vertex 0 -4.90393 -0.975452
      vertex 1.59095 -3.84089 -2.77785
    endloop
  endfacet
  facet normal 0.180744 -0.908663 -0.376381
    outer loop
      vertex 1.59095 -3.84089 -2.77785
      vertex 0 -4.90393 -0.975452
      vertex 0 -4.15735 -2.77785
    endloop
  endfacet
  facet normal 0.19509 -0.980785 0
    outer loop
      vertex 0 -4.90393 0.975452
      vertex 0 -4.90393 -0.975452
      vertex 1.87665 -4.53064 -0.975452
    endloop
  endfacet
  facet normal 0.19509 -0.980785 0
    outer loop
      vertex 1.87665 -4.53064 0.975452
      vertex 0 -4.90393 0.975452
      vertex 1.87665 -4.53064 -0.975452
    endloop
  endfacet
  facet normal 0.139281 -0.700215 -0.700214
    outer loop
      vertex 1.59095 -3.84089 -2.77785
      vertex 0 -4.15735 -2.77785
      vertex 1.06304 -2.5664 -4.15735
    endloop
  endfacet
  facet normal 0.139281 -0.700215 -0.700215
    outer loop
      vertex 1.06304 -2.5664 -4.15735
      vertex 0 -4.15735 -2.77785
      vertex 0 -2.77785 -4.15735
    endloop
  endfacet
  facet normal -0.180744 -0.908663 0.376381
    outer loop
      vertex 0 -4.15735 2.77785
      vertex -1.59095 -3.84089 2.77785
      vertex 0 -4.90393 0.975452
    endloop
  endfacet
  facet normal 0.180744 -0.908663 0.376381
    outer loop
      vertex 0 -4.15735 2.77785
      vertex 0 -4.90393 0.975452
      vertex 1.87665 -4.53064 0.975452
    endloop
  endfacet
  facet normal 0.0759007 -0.381579 -0.921215
    outer loop
      vertex 1.06304 -2.5664 -4.15735
      vertex 0 -2.77785 -4.15735
      vertex 0.373289 -0.9012 -4.90393
    endloop
  endfacet
  facet normal 0.0759011 -0.381579 -0.921214
    outer loop
      vertex 0.373289 -0.9012 -4.90393
      vertex 0 -2.77785 -4.15735
      vertex 0 -0.975452 -4.90393
    endloop
  endfacet
  facet normal -0.39664 -0.593613 0.700214
    outer loop
      vertex -1.06304 -2.5664 4.15735
      vertex -1.96424 -1.96424 4.15735
      vertex -1.59095 -3.84089 2.77785
    endloop
  endfacet
  facet normal -0.139281 -0.700215 0.700214
    outer loop
      vertex -1.06304 -2.5664 4.15735
      vertex -1.59095 -3.84089 2.77785
      vertex 0 -4.15735 2.77785
    endloop
  endfacet
  facet normal -0.323487 -0.216148 0.921215
    outer loop
      vertex -0.707395 -0.663337 4.90393
      vertex -1.96424 -1.96424 4.15735
      vertex -0.689748 -0.689748 4.90393
    endloop
  endfacet
  facet normal -0.323487 -0.216148 0.921215
    outer loop
      vertex -0.849468 -0.617175 4.86487
      vertex -1.96424 -1.96424 4.15735
      vertex -0.707395 -0.663337 4.90393
    endloop
  endfacet
  facet normal -0.323487 -0.216148 0.921215
    outer loop
      vertex -0.9012 -0.373289 4.90393
      vertex -1.96424 -1.96424 4.15735
      vertex -0.849468 -0.617175 4.86487
    endloop
  endfacet
  facet normal -0.323487 -0.216148 0.921215
    outer loop
      vertex -0.9012 -0.373289 4.90393
      vertex -0.849468 -0.617175 4.86487
      vertex -0.849468 -0.450711 4.90393
    endloop
  endfacet
  facet normal -0.216148 -0.323487 0.921215
    outer loop
      vertex -0.689748 -0.689748 4.90393
      vertex -1.96424 -1.96424 4.15735
      vertex -1.06304 -2.5664 4.15735
    endloop
  endfacet
  facet normal 0.216148 -0.323487 -0.921215
    outer loop
      vertex 1.06304 -2.5664 -4.15735
      vertex 0.373289 -0.9012 -4.90393
      vertex 0.689748 -0.689748 -4.90393
    endloop
  endfacet
  facet normal 0.216148 -0.323487 -0.921215
    outer loop
      vertex 1.06304 -2.5664 -4.15735
      vertex 0.689748 -0.689748 -4.90393
      vertex 1.96424 -1.96424 -4.15735
    endloop
  endfacet
  facet normal 0.323487 -0.216148 -0.921215
    outer loop
      vertex 1.96424 -1.96424 -4.15735
      vertex 0.689748 -0.689748 -4.90393
      vertex 0.9012 -0.373289 -4.90393
    endloop
  endfacet
  facet normal 0.323487 -0.216148 -0.921215
    outer loop
      vertex 1.96424 -1.96424 -4.15735
      vertex 0.9012 -0.373289 -4.90393
      vertex 2.5664 -1.06304 -4.15735
    endloop
  endfacet
  facet normal 0.381579 -0.075901 -0.921215
    outer loop
      vertex 2.5664 -1.06304 -4.15735
      vertex 0.9012 -0.373289 -4.90393
      vertex 0.975452 0 -4.90393
    endloop
  endfacet
  facet normal 0.381579 -0.0759007 -0.921215
    outer loop
      vertex 2.5664 -1.06304 -4.15735
      vertex 0.975452 0 -4.90393
      vertex 2.77785 0 -4.15735
    endloop
  endfacet
  facet normal 0.381579 0.0759011 -0.921214
    outer loop
      vertex 0.975452 0 -4.90393
      vertex 0.9012 0.373289 -4.90393
      vertex 2.77785 0 -4.15735
    endloop
  endfacet
  facet normal 0.381579 0.0759007 -0.921215
    outer loop
      vertex 2.77785 0 -4.15735
      vertex 0.9012 0.373289 -4.90393
      vertex 2.5664 1.06304 -4.15735
    endloop
  endfacet
  facet normal 0.323487 0.216148 -0.921215
    outer loop
      vertex 0.9012 0.373289 -4.90393
      vertex 0.689748 0.689748 -4.90393
      vertex 2.5664 1.06304 -4.15735
    endloop
  endfacet
  facet normal 0.323487 0.216148 -0.921215
    outer loop
      vertex 2.5664 1.06304 -4.15735
      vertex 0.689748 0.689748 -4.90393
      vertex 1.96424 1.96424 -4.15735
    endloop
  endfacet
  facet normal 0.216148 0.323487 -0.921215
    outer loop
      vertex 0.689748 0.689748 -4.90393
      vertex 0.373289 0.9012 -4.90393
      vertex 1.96424 1.96424 -4.15735
    endloop
  endfacet
  facet normal 0.216148 0.323487 -0.921215
    outer loop
      vertex 1.96424 1.96424 -4.15735
      vertex 0.373289 0.9012 -4.90393
      vertex 1.06304 2.5664 -4.15735
    endloop
  endfacet
  facet normal 0.075901 0.381579 -0.921215
    outer loop
      vertex 0.373289 0.9012 -4.90393
      vertex 0 0.975452 -4.90393
      vertex 1.06304 2.5664 -4.15735
    endloop
  endfacet
  facet normal 0.0759007 0.381579 -0.921215
    outer loop
      vertex 1.06304 2.5664 -4.15735
      vertex 0 0.975452 -4.90393
      vertex 0 2.77785 -4.15735
    endloop
  endfacet
  facet normal -0.0759011 0.381579 -0.921214
    outer loop
      vertex 0 0.975452 -4.90393
      vertex -0.373289 0.9012 -4.90393
      vertex 0 2.77785 -4.15735
    endloop
  endfacet
  facet normal -0.0759007 0.381579 -0.921215
    outer loop
      vertex -0.373289 0.9012 -4.90393
      vertex -1.06304 2.5664 -4.15735
      vertex 0 2.77785 -4.15735
    endloop
  endfacet
  facet normal -0.216148 0.323487 -0.921215
    outer loop
      vertex -0.689748 0.689748 -4.90393
      vertex -1.06304 2.5664 -4.15735
      vertex -0.373289 0.9012 -4.90393
    endloop
  endfacet
  facet normal -0.216148 0.323487 -0.921215
    outer loop
      vertex -0.689748 0.689748 -4.90393
      vertex -1.96424 1.96424 -4.15735
      vertex -1.06304 2.5664 -4.15735
    endloop
  endfacet
  facet normal -0.323487 0.216148 -0.921215
    outer loop
      vertex -0.9012 0.373289 -4.90393
      vertex -1.96424 1.96424 -4.15735
      vertex -0.689748 0.689748 -4.90393
    endloop
  endfacet
  facet normal -0.39664 0.593613 -0.700214
    outer loop
      vertex -1.06304 2.5664 -4.15735
      vertex -1.96424 1.96424 -4.15735
      vertex -1.59095 3.84089 -2.77785
    endloop
  endfacet
  facet normal -0.139281 0.700215 -0.700214
    outer loop
      vertex -1.06304 2.5664 -4.15735
      vertex -1.59095 3.84089 -2.77785
      vertex 0 4.15735 -2.77785
    endloop
  endfacet
  facet normal -0.180744 0.908663 -0.376381
    outer loop
      vertex 0 4.15735 -2.77785
      vertex -1.59095 3.84089 -2.77785
      vertex 0 4.90393 -0.975452
    endloop
  endfacet
  facet normal 0.180744 0.908663 -0.376381
    outer loop
      vertex 1.87665 4.53064 -0.975452
      vertex 0 4.15735 -2.77785
      vertex 0 4.90393 -0.975452
    endloop
  endfacet
  facet normal 0.19509 0.980785 0
    outer loop
      vertex 0 4.90393 -0.975452
      vertex 0 4.90393 0.975452
      vertex 1.87665 4.53064 -0.975452
    endloop
  endfacet
  facet normal 0.19509 0.980785 0
    outer loop
      vertex 1.87665 4.53064 -0.975452
      vertex 0 4.90393 0.975452
      vertex 1.87665 4.53064 0.975452
    endloop
  endfacet
  facet normal 0.180744 0.908663 0.376381
    outer loop
      vertex 1.87665 4.53064 0.975452
      vertex 0 4.90393 0.975452
      vertex 1.59095 3.84089 2.77785
    endloop
  endfacet
  facet normal 0.180744 0.908663 0.376381
    outer loop
      vertex 0 4.90393 0.975452
      vertex 0 4.15735 2.77785
      vertex 1.59095 3.84089 2.77785
    endloop
  endfacet
  facet normal 0.139281 0.700215 0.700214
    outer loop
      vertex 1.59095 3.84089 2.77785
      vertex 0 4.15735 2.77785
      vertex 1.06304 2.5664 4.15735
    endloop
  endfacet
  facet normal 0.139281 0.700215 0.700215
    outer loop
      vertex 0 4.15735 2.77785
      vertex 0 2.77785 4.15735
      vertex 1.06304 2.5664 4.15735
    endloop
  endfacet
  facet normal 0.0759007 0.381579 0.921215
    outer loop
      vertex 1.06304 2.5664 4.15735
      vertex 0 2.77785 4.15735
      vertex 0.365014 0.942803 4.88738
    endloop
  endfacet
  facet normal 0.0759007 0.381579 0.921215
    outer loop
      vertex 0.381259 0.920442 4.8953
      vertex 1.06304 2.5664 4.15735
      vertex 0.365014 0.942803 4.88738
    endloop
  endfacet
  facet normal 0.0759011 0.381579 0.921214
    outer loop
      vertex 0 2.77785 4.15735
      vertex 0 0.975452 4.90393
      vertex 0.157052 0.944212 4.90393
    endloop
  endfacet
  facet normal 0.0759011 0.381579 0.921214
    outer loop
      vertex 0.365014 0.942803 4.88738
      vertex 0 2.77785 4.15735
      vertex 0.324468 0.998609 4.8676
    endloop
  endfacet
  facet normal 0.0759011 0.381579 0.921214
    outer loop
      vertex 0.324468 0.998609 4.8676
      vertex 0 2.77785 4.15735
      vertex 0.157052 0.944212 4.90393
    endloop
  endfacet
  facet normal 0 -0 1
    outer loop
      vertex -0.689748 0.689748 4.90393
      vertex -0.707395 0.663337 4.90393
      vertex 0.157052 0.944212 4.90393
    endloop
  endfacet
  facet normal 0 -0 1
    outer loop
      vertex -0.373289 0.9012 4.90393
      vertex -0.689748 0.689748 4.90393
      vertex 0 0.975452 4.90393
    endloop
  endfacet
  facet normal 0 -0 1
    outer loop
      vertex 0 0.975452 4.90393
      vertex -0.689748 0.689748 4.90393
      vertex 0.157052 0.944212 4.90393
    endloop
  endfacet
  facet normal 0.309016 -0.951057 0
    outer loop
      vertex 0.324468 0.998609 0
      vertex 0.324468 0.998609 4.8676
      vertex 0.157052 0.944212 4.90393
    endloop
  endfacet
  facet normal 0.309016 -0.951057 -1.37756e-16
    outer loop
      vertex -0.849468 0.617175 4.86487
      vertex 0.324468 0.998609 0
      vertex -0.707395 0.663337 4.90393
    endloop
  endfacet
  facet normal 0.309016 -0.951057 -1.16488e-17
    outer loop
      vertex -0.707395 0.663337 4.90393
      vertex 0.324468 0.998609 0
      vertex 0.157052 0.944212 4.90393
    endloop
  endfacet
  facet normal 0.309016 -0.951057 0
    outer loop
      vertex -0.849468 0.617175 0
      vertex 0.324468 0.998609 0
      vertex -0.849468 0.617175 4.86487
    endloop
  endfacet
  facet normal 1 0 0
    outer loop
      vertex -0.849468 0.617175 0
      vertex -0.849468 0.617175 4.86487
      vertex -0.849468 0.450711 4.90393
    endloop
  endfacet
  facet normal 1 0 0
    outer loop
      vertex -0.849468 -0.617175 4.86487
      vertex -0.849468 0.617175 0
      vertex -0.849468 -0.450711 4.90393
    endloop
  endfacet
  facet normal 1 0 0
    outer loop
      vertex -0.849468 -0.450711 4.90393
      vertex -0.849468 0.617175 0
      vertex -0.849468 0.450711 4.90393
    endloop
  endfacet
  facet normal 1 0 0
    outer loop
      vertex -0.849468 -0.617175 0
      vertex -0.849468 0.617175 0
      vertex -0.849468 -0.617175 4.86487
    endloop
  endfacet
  facet normal 0 0 1
    outer loop
      vertex -0.9012 0.373289 4.90393
      vertex -0.975452 0 4.90393
      vertex -0.9012 -0.373289 4.90393
    endloop
  endfacet
  facet normal 0 0 1
    outer loop
      vertex -0.849468 0.450711 4.90393
      vertex -0.9012 0.373289 4.90393
      vertex -0.849468 -0.450711 4.90393
    endloop
  endfacet
  facet normal 0 0 1
    outer loop
      vertex -0.849468 -0.450711 4.90393
      vertex -0.9012 0.373289 4.90393
      vertex -0.9012 -0.373289 4.90393
    endloop
  endfacet
  facet normal 0.514716 -0.770328 -0.376381
    outer loop
      vertex 3.4676 -3.4676 -0.975452
      vertex 1.87665 -4.53064 -0.975452
      vertex 2.93969 -2.93969 -2.77785
    endloop
  endfacet
  facet normal 0.514716 -0.770328 -0.376381
    outer loop
      vertex 1.87665 -4.53064 -0.975452
      vertex 1.59095 -3.84089 -2.77785
      vertex 2.93969 -2.93969 -2.77785
    endloop
  endfacet
  facet normal 0.55557 -0.83147 0
    outer loop
      vertex 1.87665 -4.53064 0.975452
      vertex 1.87665 -4.53064 -0.975452
      vertex 3.4676 -3.4676 -0.975452
    endloop
  endfacet
  facet normal 0.55557 -0.83147 0
    outer loop
      vertex 3.4676 -3.4676 0.975452
      vertex 1.87665 -4.53064 0.975452
      vertex 3.4676 -3.4676 -0.975452
    endloop
  endfacet
  facet normal 0.39664 -0.593613 -0.700215
    outer loop
      vertex 2.93969 -2.93969 -2.77785
      vertex 1.59095 -3.84089 -2.77785
      vertex 1.96424 -1.96424 -4.15735
    endloop
  endfacet
  facet normal 0.39664 -0.593613 -0.700214
    outer loop
      vertex 1.59095 -3.84089 -2.77785
      vertex 1.06304 -2.5664 -4.15735
      vertex 1.96424 -1.96424 -4.15735
    endloop
  endfacet
  facet normal 0.180744 -0.908663 0.376381
    outer loop
      vertex 1.59095 -3.84089 2.77785
      vertex 0 -4.15735 2.77785
      vertex 1.87665 -4.53064 0.975452
    endloop
  endfacet
  facet normal 0.514716 -0.770328 0.376381
    outer loop
      vertex 3.4676 -3.4676 0.975452
      vertex 1.59095 -3.84089 2.77785
      vertex 1.87665 -4.53064 0.975452
    endloop
  endfacet
  facet normal -0.139281 -0.700215 0.700215
    outer loop
      vertex 0 -2.77785 4.15735
      vertex -1.06304 -2.5664 4.15735
      vertex 0 -4.15735 2.77785
    endloop
  endfacet
  facet normal 0.139281 -0.700215 0.700215
    outer loop
      vertex 0 -2.77785 4.15735
      vertex 0 -4.15735 2.77785
      vertex 1.59095 -3.84089 2.77785
    endloop
  endfacet
  facet normal -0.216148 -0.323487 0.921215
    outer loop
      vertex -0.689748 -0.689748 4.90393
      vertex -1.06304 -2.5664 4.15735
      vertex -0.373289 -0.9012 4.90393
    endloop
  endfacet
  facet normal -0.0759007 -0.381579 0.921215
    outer loop
      vertex -0.373289 -0.9012 4.90393
      vertex -1.06304 -2.5664 4.15735
      vertex 0 -2.77785 4.15735
    endloop
  endfacet
  facet normal 0.309016 0.951057 -2.32708e-15
    outer loop
      vertex -0.707395 -0.663337 4.90393
      vertex 0.157052 -0.944212 4.90393
      vertex -0.849468 -0.617175 4.86487
    endloop
  endfacet
  facet normal 0.309016 0.951057 -2.96562e-15
    outer loop
      vertex -0.849468 -0.617175 4.86487
      vertex 0.157052 -0.944212 4.90393
      vertex 0.324468 -0.998609 4.8676
    endloop
  endfacet
  facet normal 0.309016 0.951057 -8.57477e-18
    outer loop
      vertex -0.849468 -0.617175 4.86487
      vertex 0.324468 -0.998609 4.8676
      vertex 0.324468 -0.998609 0
    endloop
  endfacet
  facet normal 0.309016 0.951057 -0
    outer loop
      vertex -0.849468 -0.617175 4.86487
      vertex 0.324468 -0.998609 0
      vertex -0.849468 -0.617175 0
    endloop
  endfacet
  facet normal 0 0 1
    outer loop
      vertex 0.157052 -0.944212 4.90393
      vertex -0.707395 -0.663337 4.90393
      vertex -0.689748 -0.689748 4.90393
    endloop
  endfacet
  facet normal 0 0 1
    outer loop
      vertex 0 -0.975452 4.90393
      vertex 0.157052 -0.944212 4.90393
      vertex -0.373289 -0.9012 4.90393
    endloop
  endfacet
  facet normal 0 0 1
    outer loop
      vertex -0.373289 -0.9012 4.90393
      vertex 0.157052 -0.944212 4.90393
      vertex -0.689748 -0.689748 4.90393
    endloop
  endfacet
  facet normal 0.593613 -0.39664 -0.700215
    outer loop
      vertex 2.93969 -2.93969 -2.77785
      vertex 1.96424 -1.96424 -4.15735
      vertex 2.5664 -1.06304 -4.15735
    endloop
  endfacet
  facet normal 0.593613 -0.39664 -0.700214
    outer loop
      vertex 2.93969 -2.93969 -2.77785
      vertex 2.5664 -1.06304 -4.15735
      vertex 3.84089 -1.59095 -2.77785
    endloop
  endfacet
  facet normal 0.700215 -0.139281 -0.700214
    outer loop
      vertex 3.84089 -1.59095 -2.77785
      vertex 2.5664 -1.06304 -4.15735
      vertex 2.77785 0 -4.15735
    endloop
  endfacet
  facet normal 0.700215 -0.139281 -0.700215
    outer loop
      vertex 3.84089 -1.59095 -2.77785
      vertex 2.77785 0 -4.15735
      vertex 4.15735 0 -2.77785
    endloop
  endfacet
  facet normal 0.700215 0.139281 -0.700215
    outer loop
      vertex 2.77785 0 -4.15735
      vertex 2.5664 1.06304 -4.15735
      vertex 4.15735 0 -2.77785
    endloop
  endfacet
  facet normal 0.700215 0.139281 -0.700214
    outer loop
      vertex 4.15735 0 -2.77785
      vertex 2.5664 1.06304 -4.15735
      vertex 3.84089 1.59095 -2.77785
    endloop
  endfacet
  facet normal 0.593613 0.39664 -0.700214
    outer loop
      vertex 2.5664 1.06304 -4.15735
      vertex 1.96424 1.96424 -4.15735
      vertex 3.84089 1.59095 -2.77785
    endloop
  endfacet
  facet normal 0.593613 0.39664 -0.700215
    outer loop
      vertex 3.84089 1.59095 -2.77785
      vertex 1.96424 1.96424 -4.15735
      vertex 2.93969 2.93969 -2.77785
    endloop
  endfacet
  facet normal 0.39664 0.593613 -0.700215
    outer loop
      vertex 1.96424 1.96424 -4.15735
      vertex 1.06304 2.5664 -4.15735
      vertex 2.93969 2.93969 -2.77785
    endloop
  endfacet
  facet normal 0.39664 0.593613 -0.700214
    outer loop
      vertex 2.93969 2.93969 -2.77785
      vertex 1.06304 2.5664 -4.15735
      vertex 1.59095 3.84089 -2.77785
    endloop
  endfacet
  facet normal 0.139281 0.700215 -0.700214
    outer loop
      vertex 1.06304 2.5664 -4.15735
      vertex 0 2.77785 -4.15735
      vertex 1.59095 3.84089 -2.77785
    endloop
  endfacet
  facet normal 0.139281 0.700215 -0.700215
    outer loop
      vertex 1.59095 3.84089 -2.77785
      vertex 0 2.77785 -4.15735
      vertex 0 4.15735 -2.77785
    endloop
  endfacet
  facet normal -0.139281 0.700215 -0.700215
    outer loop
      vertex 0 2.77785 -4.15735
      vertex -1.06304 2.5664 -4.15735
      vertex 0 4.15735 -2.77785
    endloop
  endfacet
  facet normal 0.180744 0.908663 -0.376381
    outer loop
      vertex 1.59095 3.84089 -2.77785
      vertex 0 4.15735 -2.77785
      vertex 1.87665 4.53064 -0.975452
    endloop
  endfacet
  facet normal 0.514716 0.770328 -0.376381
    outer loop
      vertex 3.4676 3.4676 -0.975452
      vertex 1.59095 3.84089 -2.77785
      vertex 1.87665 4.53064 -0.975452
    endloop
  endfacet
  facet normal 0.55557 0.83147 0
    outer loop
      vertex 1.87665 4.53064 -0.975452
      vertex 1.87665 4.53064 0.975452
      vertex 3.4676 3.4676 -0.975452
    endloop
  endfacet
  facet normal 0.55557 0.83147 0
    outer loop
      vertex 3.4676 3.4676 -0.975452
      vertex 1.87665 4.53064 0.975452
      vertex 3.4676 3.4676 0.975452
    endloop
  endfacet
  facet normal 0.514716 0.770328 0.376381
    outer loop
      vertex 3.4676 3.4676 0.975452
      vertex 1.87665 4.53064 0.975452
      vertex 2.93969 2.93969 2.77785
    endloop
  endfacet
  facet normal 0.514716 0.770328 0.376381
    outer loop
      vertex 1.87665 4.53064 0.975452
      vertex 1.59095 3.84089 2.77785
      vertex 2.93969 2.93969 2.77785
    endloop
  endfacet
  facet normal 0.39664 0.593613 0.700215
    outer loop
      vertex 2.93969 2.93969 2.77785
      vertex 1.59095 3.84089 2.77785
      vertex 1.96424 1.96424 4.15735
    endloop
  endfacet
  facet normal 0.39664 0.593613 0.700214
    outer loop
      vertex 1.59095 3.84089 2.77785
      vertex 1.06304 2.5664 4.15735
      vertex 1.96424 1.96424 4.15735
    endloop
  endfacet
  facet normal 0.216148 0.323487 0.921215
    outer loop
      vertex 1.06304 2.5664 4.15735
      vertex 0.689748 0.689748 4.90393
      vertex 1.96424 1.96424 4.15735
    endloop
  endfacet
  facet normal 0.216148 0.323487 0.921215
    outer loop
      vertex 1.06304 2.5664 4.15735
      vertex 0.381259 0.920442 4.8953
      vertex 0.41595 0.872695 4.90393
    endloop
  endfacet
  facet normal 0.216148 0.323487 0.921215
    outer loop
      vertex 0.689748 0.689748 4.90393
      vertex 1.06304 2.5664 4.15735
      vertex 0.41595 0.872695 4.90393
    endloop
  endfacet
  facet normal -0.809017 -0.587785 0
    outer loop
      vertex 1.05 0 4.87305
      vertex 1.02564 0.0335326 4.88038
      vertex 1.05 0 0
    endloop
  endfacet
  facet normal -0.809017 -0.587785 -1.10887e-17
    outer loop
      vertex 1.05 0 0
      vertex 1.02564 0.0335326 4.88038
      vertex 0.947348 0.141288 4.90393
    endloop
  endfacet
  facet normal -0.809017 -0.587785 -4.12361e-18
    outer loop
      vertex 1.05 0 0
      vertex 0.947348 0.141288 4.90393
      vertex 0.41595 0.872695 4.90393
    endloop
  endfacet
  facet normal -0.809017 -0.587785 4.70221e-16
    outer loop
      vertex 1.05 0 0
      vertex 0.41595 0.872695 4.90393
      vertex 0.381259 0.920442 4.8953
    endloop
  endfacet
  facet normal -0.809017 -0.587785 2.68365e-16
    outer loop
      vertex 1.05 0 0
      vertex 0.381259 0.920442 4.8953
      vertex 0.365014 0.942803 4.88738
    endloop
  endfacet
  facet normal -0.809017 -0.587785 -3.29066e-16
    outer loop
      vertex 1.05 0 0
      vertex 0.365014 0.942803 4.88738
      vertex 0.324468 0.998609 4.8676
    endloop
  endfacet
  facet normal -0.809017 -0.587785 0
    outer loop
      vertex 1.05 0 0
      vertex 0.324468 0.998609 4.8676
      vertex 0.324468 0.998609 0
    endloop
  endfacet
  facet normal 0 0 1
    outer loop
      vertex 0.324468 -0.998609 0
      vertex 1.05 0 0
      vertex 0.324468 0.998609 0
    endloop
  endfacet
  facet normal 0 0 1
    outer loop
      vertex -0.849468 -0.617175 0
      vertex 0.324468 -0.998609 0
      vertex -0.849468 0.617175 0
    endloop
  endfacet
  facet normal 0 0 1
    outer loop
      vertex -0.849468 0.617175 0
      vertex 0.324468 -0.998609 0
      vertex 0.324468 0.998609 0
    endloop
  endfacet
  facet normal 0.770328 -0.514716 -0.376381
    outer loop
      vertex 4.53064 -1.87665 -0.975452
      vertex 3.4676 -3.4676 -0.975452
      vertex 3.84089 -1.59095 -2.77785
    endloop
  endfacet
  facet normal 0.770327 -0.514716 -0.376381
    outer loop
      vertex 3.4676 -3.4676 -0.975452
      vertex 2.93969 -2.93969 -2.77785
      vertex 3.84089 -1.59095 -2.77785
    endloop
  endfacet
  facet normal 0.83147 -0.55557 0
    outer loop
      vertex 3.4676 -3.4676 0.975452
      vertex 3.4676 -3.4676 -0.975452
      vertex 4.53064 -1.87665 -0.975452
    endloop
  endfacet
  facet normal 0.83147 -0.55557 0
    outer loop
      vertex 4.53064 -1.87665 0.975452
      vertex 3.4676 -3.4676 0.975452
      vertex 4.53064 -1.87665 -0.975452
    endloop
  endfacet
  facet normal 0.514716 -0.770327 0.376381
    outer loop
      vertex 2.93969 -2.93969 2.77785
      vertex 1.59095 -3.84089 2.77785
      vertex 3.4676 -3.4676 0.975452
    endloop
  endfacet
  facet normal 0.770328 -0.514716 0.376381
    outer loop
      vertex 4.53064 -1.87665 0.975452
      vertex 2.93969 -2.93969 2.77785
      vertex 3.4676 -3.4676 0.975452
    endloop
  endfacet
  facet normal 0.139281 -0.700215 0.700214
    outer loop
      vertex 1.06304 -2.5664 4.15735
      vertex 0 -2.77785 4.15735
      vertex 1.59095 -3.84089 2.77785
    endloop
  endfacet
  facet normal 0.39664 -0.593613 0.700214
    outer loop
      vertex 2.93969 -2.93969 2.77785
      vertex 1.06304 -2.5664 4.15735
      vertex 1.59095 -3.84089 2.77785
    endloop
  endfacet
  facet normal -0.0759011 -0.381579 0.921214
    outer loop
      vertex 0 -0.975452 4.90393
      vertex -0.373289 -0.9012 4.90393
      vertex 0 -2.77785 4.15735
    endloop
  endfacet
  facet normal 0.0759007 -0.381579 0.921215
    outer loop
      vertex 0 -0.975452 4.90393
      vertex 0 -2.77785 4.15735
      vertex 1.06304 -2.5664 4.15735
    endloop
  endfacet
  facet normal -0.809017 0.587785 2.15966e-14
    outer loop
      vertex 0.381259 -0.920442 4.8953
      vertex 0.388066 -0.911074 4.89699
      vertex 0.324468 -0.998609 4.8676
    endloop
  endfacet
  facet normal -0.809017 0.587785 -1.57134e-14
    outer loop
      vertex 0.324468 -0.998609 4.8676
      vertex 0.388066 -0.911074 4.89699
      vertex 0.41595 -0.872695 4.90393
    endloop
  endfacet
  facet normal -0.809017 0.587785 -9.61354e-16
    outer loop
      vertex 0.324468 -0.998609 4.8676
      vertex 0.41595 -0.872695 4.90393
      vertex 0.947348 -0.141288 4.90393
    endloop
  endfacet
  facet normal -0.809017 0.587785 -1.00186e-15
    outer loop
      vertex 0.324468 -0.998609 4.8676
      vertex 0.947348 -0.141288 4.90393
      vertex 1.05 0 4.87305
    endloop
  endfacet
  facet normal -0.809017 0.587785 0
    outer loop
      vertex 0.324468 -0.998609 4.8676
      vertex 1.05 0 4.87305
      vertex 1.05 0 0
    endloop
  endfacet
  facet normal -0.809017 0.587785 0
    outer loop
      vertex 0.324468 -0.998609 4.8676
      vertex 1.05 0 0
      vertex 0.324468 -0.998609 0
    endloop
  endfacet
  facet normal 0.075901 -0.381579 0.921215
    outer loop
      vertex 0.157052 -0.944212 4.90393
      vertex 0 -0.975452 4.90393
      vertex 1.06304 -2.5664 4.15735
    endloop
  endfacet
  facet normal 0.075901 -0.381579 0.921215
    outer loop
      vertex 0.324468 -0.998609 4.8676
      vertex 0.157052 -0.944212 4.90393
      vertex 1.06304 -2.5664 4.15735
    endloop
  endfacet
  facet normal 0.075901 -0.381579 0.921215
    outer loop
      vertex 0.381259 -0.920442 4.8953
      vertex 0.324468 -0.998609 4.8676
      vertex 1.06304 -2.5664 4.15735
    endloop
  endfacet
  facet normal 0.908663 -0.180744 -0.376381
    outer loop
      vertex 4.53064 -1.87665 -0.975452
      vertex 3.84089 -1.59095 -2.77785
      vertex 4.15735 0 -2.77785
    endloop
  endfacet
  facet normal 0.908663 -0.180744 -0.376381
    outer loop
      vertex 4.53064 -1.87665 -0.975452
      vertex 4.15735 0 -2.77785
      vertex 4.90393 0 -0.975452
    endloop
  endfacet
  facet normal 0.908663 0.180744 -0.376381
    outer loop
      vertex 4.15735 0 -2.77785
      vertex 3.84089 1.59095 -2.77785
      vertex 4.90393 0 -0.975452
    endloop
  endfacet
  facet normal 0.908663 0.180744 -0.376381
    outer loop
      vertex 4.90393 0 -0.975452
      vertex 3.84089 1.59095 -2.77785
      vertex 4.53064 1.87665 -0.975452
    endloop
  endfacet
  facet normal 0.770328 0.514716 -0.376381
    outer loop
      vertex 3.84089 1.59095 -2.77785
      vertex 2.93969 2.93969 -2.77785
      vertex 4.53064 1.87665 -0.975452
    endloop
  endfacet
  facet normal 0.770328 0.514716 -0.376381
    outer loop
      vertex 4.53064 1.87665 -0.975452
      vertex 2.93969 2.93969 -2.77785
      vertex 3.4676 3.4676 -0.975452
    endloop
  endfacet
  facet normal 0.514716 0.770327 -0.376381
    outer loop
      vertex 2.93969 2.93969 -2.77785
      vertex 1.59095 3.84089 -2.77785
      vertex 3.4676 3.4676 -0.975452
    endloop
  endfacet
  facet normal 0.83147 0.55557 0
    outer loop
      vertex 4.53064 1.87665 -0.975452
      vertex 3.4676 3.4676 -0.975452
      vertex 3.4676 3.4676 0.975452
    endloop
  endfacet
  facet normal 0.83147 0.55557 -0
    outer loop
      vertex 4.53064 1.87665 0.975452
      vertex 4.53064 1.87665 -0.975452
      vertex 3.4676 3.4676 0.975452
    endloop
  endfacet
  facet normal 0.770328 0.514716 0.376381
    outer loop
      vertex 4.53064 1.87665 0.975452
      vertex 3.4676 3.4676 0.975452
      vertex 3.84089 1.59095 2.77785
    endloop
  endfacet
  facet normal 0.770327 0.514716 0.376381
    outer loop
      vertex 3.4676 3.4676 0.975452
      vertex 2.93969 2.93969 2.77785
      vertex 3.84089 1.59095 2.77785
    endloop
  endfacet
  facet normal 0.593613 0.39664 0.700214
    outer loop
      vertex 2.93969 2.93969 2.77785
      vertex 2.5664 1.06304 4.15735
      vertex 3.84089 1.59095 2.77785
    endloop
  endfacet
  facet normal 0.593613 0.39664 0.700215
    outer loop
      vertex 2.93969 2.93969 2.77785
      vertex 1.96424 1.96424 4.15735
      vertex 2.5664 1.06304 4.15735
    endloop
  endfacet
  facet normal 0.323487 0.216148 0.921215
    outer loop
      vertex 1.96424 1.96424 4.15735
      vertex 0.9012 0.373289 4.90393
      vertex 2.5664 1.06304 4.15735
    endloop
  endfacet
  facet normal 0.323487 0.216148 0.921215
    outer loop
      vertex 1.96424 1.96424 4.15735
      vertex 0.689748 0.689748 4.90393
      vertex 0.9012 0.373289 4.90393
    endloop
  endfacet
  facet normal -0 -0 1
    outer loop
      vertex 0.689748 0.689748 4.90393
      vertex 0.41595 0.872695 4.90393
      vertex 0.947348 0.141288 4.90393
    endloop
  endfacet
  facet normal -0 -0 1
    outer loop
      vertex 0.9012 0.373289 4.90393
      vertex 0.689748 0.689748 4.90393
      vertex 0.947348 0.141288 4.90393
    endloop
  endfacet
  facet normal 0.381579 0.075901 0.921215
    outer loop
      vertex 2.5664 1.06304 4.15735
      vertex 0.9012 0.373289 4.90393
      vertex 0.947348 0.141288 4.90393
    endloop
  endfacet
  facet normal 0.381579 0.075901 0.921215
    outer loop
      vertex 1.02564 0.0335326 4.88038
      vertex 2.5664 1.06304 4.15735
      vertex 0.947348 0.141288 4.90393
    endloop
  endfacet
  facet normal 0.381579 0.0759007 0.921215
    outer loop
      vertex 2.5664 1.06304 4.15735
      vertex 1.02564 0.0335326 4.88038
      vertex 1.05 0 4.87305
    endloop
  endfacet
  facet normal 0.381579 0.0759007 0.921215
    outer loop
      vertex 2.77785 0 4.15735
      vertex 2.5664 1.06304 4.15735
      vertex 1.05 0 4.87305
    endloop
  endfacet
  facet normal 0.381579 -0.0759011 0.921214
    outer loop
      vertex 0.947348 -0.141288 4.90393
      vertex 0.9012 -0.373289 4.90393
      vertex 2.77785 0 4.15735
    endloop
  endfacet
  facet normal 0.381579 -0.0759011 0.921214
    outer loop
      vertex 1.05 0 4.87305
      vertex 0.947348 -0.141288 4.90393
      vertex 2.77785 0 4.15735
    endloop
  endfacet
  facet normal 0.980785 -0.19509 0
    outer loop
      vertex 4.53064 -1.87665 0.975452
      vertex 4.53064 -1.87665 -0.975452
      vertex 4.90393 0 -0.975452
    endloop
  endfacet
  facet normal 0.980785 -0.19509 0
    outer loop
      vertex 4.90393 0 0.975452
      vertex 4.53064 -1.87665 0.975452
      vertex 4.90393 0 -0.975452
    endloop
  endfacet
  facet normal 0.770328 -0.514716 0.376381
    outer loop
      vertex 3.84089 -1.59095 2.77785
      vertex 2.93969 -2.93969 2.77785
      vertex 4.53064 -1.87665 0.975452
    endloop
  endfacet
  facet normal 0.908663 -0.180744 0.376381
    outer loop
      vertex 4.90393 0 0.975452
      vertex 3.84089 -1.59095 2.77785
      vertex 4.53064 -1.87665 0.975452
    endloop
  endfacet
  facet normal 0.39664 -0.593613 0.700215
    outer loop
      vertex 1.96424 -1.96424 4.15735
      vertex 1.06304 -2.5664 4.15735
      vertex 2.93969 -2.93969 2.77785
    endloop
  endfacet
  facet normal 0.593613 -0.39664 0.700215
    outer loop
      vertex 3.84089 -1.59095 2.77785
      vertex 1.96424 -1.96424 4.15735
      vertex 2.93969 -2.93969 2.77785
    endloop
  endfacet
  facet normal 0.216148 -0.323487 0.921215
    outer loop
      vertex 0.388066 -0.911074 4.89699
      vertex 0.381259 -0.920442 4.8953
      vertex 1.06304 -2.5664 4.15735
    endloop
  endfacet
  facet normal 0.216148 -0.323487 0.921215
    outer loop
      vertex 1.96424 -1.96424 4.15735
      vertex 0.388066 -0.911074 4.89699
      vertex 1.06304 -2.5664 4.15735
    endloop
  endfacet
  facet normal 0 0 1
    outer loop
      vertex 0.947348 -0.141288 4.90393
      vertex 0.41595 -0.872695 4.90393
      vertex 0.689748 -0.689748 4.90393
    endloop
  endfacet
  facet normal -0 0 1
    outer loop
      vertex 0.9012 -0.373289 4.90393
      vertex 0.947348 -0.141288 4.90393
      vertex 0.689748 -0.689748 4.90393
    endloop
  endfacet
  facet normal 0.216148 -0.323487 0.921215
    outer loop
      vertex 0.41595 -0.872695 4.90393
      vertex 0.388066 -0.911074 4.89699
      vertex 1.96424 -1.96424 4.15735
    endloop
  endfacet
  facet normal 0.216148 -0.323487 0.921215
    outer loop
      vertex 0.689748 -0.689748 4.90393
      vertex 0.41595 -0.872695 4.90393
      vertex 1.96424 -1.96424 4.15735
    endloop
  endfacet
  facet normal 0.980785 0.19509 0
    outer loop
      vertex 4.90393 0 -0.975452
      vertex 4.53064 1.87665 -0.975452
      vertex 4.53064 1.87665 0.975452
    endloop
  endfacet
  facet normal 0.980785 0.19509 -0
    outer loop
      vertex 4.90393 0 0.975452
      vertex 4.90393 0 -0.975452
      vertex 4.53064 1.87665 0.975452
    endloop
  endfacet
  facet normal 0.908663 0.180744 0.376381
    outer loop
      vertex 4.53064 1.87665 0.975452
      vertex 4.15735 0 2.77785
      vertex 4.90393 0 0.975452
    endloop
  endfacet
  facet normal 0.908663 0.180744 0.376381
    outer loop
      vertex 4.53064 1.87665 0.975452
      vertex 3.84089 1.59095 2.77785
      vertex 4.15735 0 2.77785
    endloop
  endfacet
  facet normal 0.700215 0.139281 0.700215
    outer loop
      vertex 3.84089 1.59095 2.77785
      vertex 2.77785 0 4.15735
      vertex 4.15735 0 2.77785
    endloop
  endfacet
  facet normal 0.700215 0.139281 0.700214
    outer loop
      vertex 3.84089 1.59095 2.77785
      vertex 2.5664 1.06304 4.15735
      vertex 2.77785 0 4.15735
    endloop
  endfacet
  facet normal 0.700215 -0.139281 0.700215
    outer loop
      vertex 2.77785 0 4.15735
      vertex 2.5664 -1.06304 4.15735
      vertex 4.15735 0 2.77785
    endloop
  endfacet
  facet normal 0.381579 -0.0759007 0.921215
    outer loop
      vertex 2.77785 0 4.15735
      vertex 0.9012 -0.373289 4.90393
      vertex 2.5664 -1.06304 4.15735
    endloop
  endfacet
  facet normal 0.323487 -0.216148 0.921215
    outer loop
      vertex 0.9012 -0.373289 4.90393
      vertex 0.689748 -0.689748 4.90393
      vertex 2.5664 -1.06304 4.15735
    endloop
  endfacet
  facet normal 0.908663 -0.180744 0.376381
    outer loop
      vertex 4.15735 0 2.77785
      vertex 3.84089 -1.59095 2.77785
      vertex 4.90393 0 0.975452
    endloop
  endfacet
  facet normal 0.593613 -0.39664 0.700214
    outer loop
      vertex 2.5664 -1.06304 4.15735
      vertex 1.96424 -1.96424 4.15735
      vertex 3.84089 -1.59095 2.77785
    endloop
  endfacet
  facet normal 0.700215 -0.139281 0.700214
    outer loop
      vertex 4.15735 0 2.77785
      vertex 2.5664 -1.06304 4.15735
      vertex 3.84089 -1.59095 2.77785
    endloop
  endfacet
  facet normal 0.323487 -0.216148 0.921215
    outer loop
      vertex 2.5664 -1.06304 4.15735
      vertex 0.689748 -0.689748 4.90393
      vertex 1.96424 -1.96424 4.15735
    endloop
  endfacet
endsolid OpenSCAD_Model
