solid OpenSCAD_Model
  facet normal -0.5 0.866025 0
    outer loop
      vertex -10.3657 -0.0461552 -9
      vertex -10.3657 -0.0461552 9
      vertex -10.2857 0 -9
    endloop
  endfacet
  facet normal -0.5 0.866025 0
    outer loop
      vertex -10.2857 0 -9
      vertex -10.3657 -0.0461552 9
      vertex -10.2857 0 9
    endloop
  endfacet
  facet normal -0.866025 -0.5 -0
    outer loop
      vertex -10.3657 -0.0461552 -9
      vertex -5.2228 -8.95384 -9
      vertex -10.3657 -0.0461552 9
    endloop
  endfacet
  facet normal -0.866025 -0.5 0
    outer loop
      vertex -10.3657 -0.0461552 9
      vertex -5.2228 -8.95384 -9
      vertex -5.2228 -8.95384 9
    endloop
  endfacet
  facet normal -0 0 -1
    outer loop
      vertex -10.3657 -0.0461552 -9
      vertex -10.2857 0 -9
      vertex -5.2228 -8.95384 -9
    endloop
  endfacet
  facet normal 0 0 -1
    outer loop
      vertex -5.2228 8.95384 -9
      vertex -10.2857 0 -9
      vertex -10.3657 0.0461552 -9
    endloop
  endfacet
  facet normal 0 0 -1
    outer loop
      vertex -5.2228 -8.95384 -9
      vertex -10.2857 0 -9
      vertex -5.2228 8.95384 -9
    endloop
  endfacet
  facet normal 0 -0 -1
    outer loop
      vertex -5.2228 -8.95384 -9
      vertex -5.2228 8.95384 -9
      vertex -5.14286 8.90769 -9
    endloop
  endfacet
  facet normal 0 -0 -1
    outer loop
      vertex -5.14286 8.90769 -9
      vertex -5.14286 9 -9
      vertex 5.14286 9 -9
    endloop
  endfacet
  facet normal 0 0 -1
    outer loop
      vertex -0.468357 -0.99531 -9
      vertex -5.2228 -8.95384 -9
      vertex -0.589409 -0.928761 -9
    endloop
  endfacet
  facet normal 0 -0 -1
    outer loop
      vertex 10.2857 0 -9
      vertex 5.2228 8.95384 -9
      vertex 10.3657 0.0461552 -9
    endloop
  endfacet
  facet normal -0 0 -1
    outer loop
      vertex 0.468357 0.99531 -9
      vertex 5.2228 8.95384 -9
      vertex 0.589409 0.928761 -9
    endloop
  endfacet
  facet normal 0 0 -1
    outer loop
      vertex -0.589409 -0.928761 -9
      vertex -5.2228 -8.95384 -9
      vertex -0.701166 -0.847565 -9
    endloop
  endfacet
  facet normal -0 0 -1
    outer loop
      vertex 5.14286 -8.90769 -9
      vertex 10.3657 -0.0461552 -9
      vertex 5.2228 -8.95384 -9
    endloop
  endfacet
  facet normal -0 0 -1
    outer loop
      vertex 0.339919 1.04616 -9
      vertex 5.14286 9 -9
      vertex 0.468357 0.99531 -9
    endloop
  endfacet
  facet normal 0 0 -1
    outer loop
      vertex -5.14286 -8.90769 -9
      vertex 5.14286 -8.90769 -9
      vertex 5.14286 -9 -9
    endloop
  endfacet
  facet normal -0 0 -1
    outer loop
      vertex -5.14286 -8.90769 -9
      vertex 10.3657 -0.0461552 -9
      vertex 5.14286 -8.90769 -9
    endloop
  endfacet
  facet normal 0 0 -1
    outer loop
      vertex 10.2857 0 -9
      vertex 10.3657 -0.0461552 -9
      vertex -5.14286 -8.90769 -9
    endloop
  endfacet
  facet normal 0 0 -1
    outer loop
      vertex -5.14286 8.90769 -9
      vertex -1.1 0 -9
      vertex -5.2228 -8.95384 -9
    endloop
  endfacet
  facet normal 0 0 -1
    outer loop
      vertex -0.468357 0.99531 -9
      vertex 5.14286 9 -9
      vertex -0.339919 1.04616 -9
    endloop
  endfacet
  facet normal 0 0 -1
    outer loop
      vertex -1.1 0 -9
      vertex -1.09133 -0.137867 -9
      vertex -5.2228 -8.95384 -9
    endloop
  endfacet
  facet normal 0 0 -1
    outer loop
      vertex -0.339919 1.04616 -9
      vertex 5.14286 9 -9
      vertex -0.206119 1.08052 -9
    endloop
  endfacet
  facet normal 0 0 -1
    outer loop
      vertex -1.09133 -0.137867 -9
      vertex -1.06544 -0.273559 -9
      vertex -5.2228 -8.95384 -9
    endloop
  endfacet
  facet normal 0 0 -1
    outer loop
      vertex -0.206119 1.08052 -9
      vertex 5.14286 9 -9
      vertex -0.06907 1.09783 -9
    endloop
  endfacet
  facet normal 0 0 -1
    outer loop
      vertex -1.06544 -0.273559 -9
      vertex -1.02275 -0.404937 -9
      vertex -5.2228 -8.95384 -9
    endloop
  endfacet
  facet normal -0 0 -1
    outer loop
      vertex -0.06907 1.09783 -9
      vertex 5.14286 9 -9
      vertex 0.06907 1.09783 -9
    endloop
  endfacet
  facet normal 0 0 -1
    outer loop
      vertex -1.02275 -0.404937 -9
      vertex -0.963937 -0.529929 -9
      vertex -5.2228 -8.95384 -9
    endloop
  endfacet
  facet normal 0 0 -1
    outer loop
      vertex -0.963937 -0.529929 -9
      vertex -0.889919 -0.646564 -9
      vertex -5.2228 -8.95384 -9
    endloop
  endfacet
  facet normal -0 0 -1
    outer loop
      vertex 0.06907 1.09783 -9
      vertex 5.14286 9 -9
      vertex 0.206119 1.08052 -9
    endloop
  endfacet
  facet normal 0 0 -1
    outer loop
      vertex -0.889919 -0.646564 -9
      vertex -0.801865 -0.753002 -9
      vertex -5.2228 -8.95384 -9
    endloop
  endfacet
  facet normal -0 0 -1
    outer loop
      vertex 0.206119 1.08052 -9
      vertex 5.14286 9 -9
      vertex 0.339919 1.04616 -9
    endloop
  endfacet
  facet normal 0 0 -1
    outer loop
      vertex -0.801865 -0.753002 -9
      vertex -0.701166 -0.847565 -9
      vertex -5.2228 -8.95384 -9
    endloop
  endfacet
  facet normal 0 0 -1
    outer loop
      vertex -0.468357 -0.99531 -9
      vertex -5.14286 -8.90769 -9
      vertex -5.2228 -8.95384 -9
    endloop
  endfacet
  facet normal 0 0 -1
    outer loop
      vertex -0.339919 -1.04616 -9
      vertex -5.14286 -8.90769 -9
      vertex -0.468357 -0.99531 -9
    endloop
  endfacet
  facet normal 0 0 -1
    outer loop
      vertex 0.468357 0.99531 -9
      vertex 5.14286 8.90769 -9
      vertex 5.2228 8.95384 -9
    endloop
  endfacet
  facet normal 0 0 -1
    outer loop
      vertex -0.206119 -1.08052 -9
      vertex -5.14286 -8.90769 -9
      vertex -0.339919 -1.04616 -9
    endloop
  endfacet
  facet normal 0 0 -1
    outer loop
      vertex -0.06907 -1.09783 -9
      vertex -5.14286 -8.90769 -9
      vertex -0.206119 -1.08052 -9
    endloop
  endfacet
  facet normal 0 0 -1
    outer loop
      vertex 0.06907 -1.09783 -9
      vertex -5.14286 -8.90769 -9
      vertex -0.06907 -1.09783 -9
    endloop
  endfacet
  facet normal 0 0 -1
    outer loop
      vertex 10.2857 0 -9
      vertex -5.14286 -8.90769 -9
      vertex 0.06907 -1.09783 -9
    endloop
  endfacet
  facet normal 0 0 -1
    outer loop
      vertex 10.2857 0 -9
      vertex 0.06907 -1.09783 -9
      vertex 0.206119 -1.08052 -9
    endloop
  endfacet
  facet normal -0 0 -1
    outer loop
      vertex 0.468357 -0.99531 -9
      vertex 10.2857 0 -9
      vertex 0.339919 -1.04616 -9
    endloop
  endfacet
  facet normal -0 0 -1
    outer loop
      vertex 0.589409 -0.928761 -9
      vertex 10.2857 0 -9
      vertex 0.468357 -0.99531 -9
    endloop
  endfacet
  facet normal -0 0 -1
    outer loop
      vertex 0.701166 -0.847565 -9
      vertex 10.2857 0 -9
      vertex 0.589409 -0.928761 -9
    endloop
  endfacet
  facet normal -0 0 -1
    outer loop
      vertex 1.06544 -0.273559 -9
      vertex 5.2228 8.95384 -9
      vertex 1.02275 -0.404937 -9
    endloop
  endfacet
  facet normal 0 0 -1
    outer loop
      vertex 10.2857 0 -9
      vertex 0.701166 -0.847565 -9
      vertex 0.801865 -0.753002 -9
    endloop
  endfacet
  facet normal 0 0 -1
    outer loop
      vertex 10.2857 0 -9
      vertex 0.801865 -0.753002 -9
      vertex 0.889919 -0.646564 -9
    endloop
  endfacet
  facet normal 0 0 -1
    outer loop
      vertex 10.2857 0 -9
      vertex 0.889919 -0.646564 -9
      vertex 0.963937 -0.529929 -9
    endloop
  endfacet
  facet normal 0 0 -1
    outer loop
      vertex 10.2857 0 -9
      vertex 0.963937 -0.529929 -9
      vertex 1.02275 -0.404937 -9
    endloop
  endfacet
  facet normal 0 0 -1
    outer loop
      vertex 10.2857 0 -9
      vertex 1.02275 -0.404937 -9
      vertex 5.2228 8.95384 -9
    endloop
  endfacet
  facet normal -0 0 -1
    outer loop
      vertex 1.09133 -0.137867 -9
      vertex 5.2228 8.95384 -9
      vertex 1.06544 -0.273559 -9
    endloop
  endfacet
  facet normal -0 0 -1
    outer loop
      vertex 1.1 0 -9
      vertex 5.2228 8.95384 -9
      vertex 1.09133 -0.137867 -9
    endloop
  endfacet
  facet normal -0 0 -1
    outer loop
      vertex 1.09133 0.137867 -9
      vertex 5.2228 8.95384 -9
      vertex 1.1 0 -9
    endloop
  endfacet
  facet normal -0 0 -1
    outer loop
      vertex 0.589409 0.928761 -9
      vertex 5.2228 8.95384 -9
      vertex 0.701166 0.847565 -9
    endloop
  endfacet
  facet normal 0 -0 -1
    outer loop
      vertex 1.09133 0.137867 -9
      vertex 1.06544 0.273559 -9
      vertex 5.2228 8.95384 -9
    endloop
  endfacet
  facet normal 0 -0 -1
    outer loop
      vertex 1.06544 0.273559 -9
      vertex 1.02275 0.404937 -9
      vertex 5.2228 8.95384 -9
    endloop
  endfacet
  facet normal 0 -0 -1
    outer loop
      vertex 1.02275 0.404937 -9
      vertex 0.963937 0.529929 -9
      vertex 5.2228 8.95384 -9
    endloop
  endfacet
  facet normal 0 -0 -1
    outer loop
      vertex 0.963937 0.529929 -9
      vertex 0.889919 0.646564 -9
      vertex 5.2228 8.95384 -9
    endloop
  endfacet
  facet normal 0 -0 -1
    outer loop
      vertex 0.889919 0.646564 -9
      vertex 0.801865 0.753002 -9
      vertex 5.2228 8.95384 -9
    endloop
  endfacet
  facet normal 0 -0 -1
    outer loop
      vertex 0.801865 0.753002 -9
      vertex 0.701166 0.847565 -9
      vertex 5.2228 8.95384 -9
    endloop
  endfacet
  facet normal -0 0 -1
    outer loop
      vertex 0.339919 -1.04616 -9
      vertex 10.2857 0 -9
      vertex 0.206119 -1.08052 -9
    endloop
  endfacet
  facet normal 0 0 -1
    outer loop
      vertex 0.468357 0.99531 -9
      vertex 5.14286 9 -9
      vertex 5.14286 8.90769 -9
    endloop
  endfacet
  facet normal -0 0 -1
    outer loop
      vertex -5.14286 8.90769 -9
      vertex 5.14286 9 -9
      vertex -0.468357 0.99531 -9
    endloop
  endfacet
  facet normal 0 0 -1
    outer loop
      vertex -5.14286 8.90769 -9
      vertex -0.468357 0.99531 -9
      vertex -0.589409 0.928761 -9
    endloop
  endfacet
  facet normal 0 0 -1
    outer loop
      vertex -5.14286 8.90769 -9
      vertex -0.589409 0.928761 -9
      vertex -0.701166 0.847565 -9
    endloop
  endfacet
  facet normal 0 0 -1
    outer loop
      vertex -5.14286 8.90769 -9
      vertex -0.701166 0.847565 -9
      vertex -0.801865 0.753002 -9
    endloop
  endfacet
  facet normal 0 0 -1
    outer loop
      vertex -5.14286 8.90769 -9
      vertex -0.801865 0.753002 -9
      vertex -0.889919 0.646564 -9
    endloop
  endfacet
  facet normal 0 0 -1
    outer loop
      vertex -5.14286 8.90769 -9
      vertex -0.889919 0.646564 -9
      vertex -0.963937 0.529929 -9
    endloop
  endfacet
  facet normal 0 0 -1
    outer loop
      vertex -5.14286 8.90769 -9
      vertex -0.963937 0.529929 -9
      vertex -1.02275 0.404937 -9
    endloop
  endfacet
  facet normal 0 0 -1
    outer loop
      vertex -5.14286 8.90769 -9
      vertex -1.02275 0.404937 -9
      vertex -1.06544 0.273559 -9
    endloop
  endfacet
  facet normal 0 0 -1
    outer loop
      vertex -5.14286 8.90769 -9
      vertex -1.06544 0.273559 -9
      vertex -1.09133 0.137867 -9
    endloop
  endfacet
  facet normal 0 0 -1
    outer loop
      vertex -5.14286 8.90769 -9
      vertex -1.09133 0.137867 -9
      vertex -1.1 0 -9
    endloop
  endfacet
  facet normal 0 0 -1
    outer loop
      vertex -5.14286 -8.90769 -9
      vertex 5.14286 -9 -9
      vertex -5.14286 -9 -9
    endloop
  endfacet
  facet normal -0.5 -0.866025 0
    outer loop
      vertex -10.3657 0.0461552 9
      vertex -10.3657 0.0461552 -9
      vertex -10.2857 0 -9
    endloop
  endfacet
  facet normal -0.5 -0.866025 0
    outer loop
      vertex -10.2857 0 9
      vertex -10.3657 0.0461552 9
      vertex -10.2857 0 -9
    endloop
  endfacet
  facet normal 0 -0 1
    outer loop
      vertex -10.2857 0 9
      vertex -10.3657 -0.0461552 9
      vertex -5.2228 -8.95384 9
    endloop
  endfacet
  facet normal 0 0 1
    outer loop
      vertex 5.14286 -9 9
      vertex -10.2857 0 9
      vertex -5.14286 -8.90769 9
    endloop
  endfacet
  facet normal -0 0 1
    outer loop
      vertex -5.14286 -8.90769 9
      vertex -10.2857 0 9
      vertex -5.2228 -8.95384 9
    endloop
  endfacet
  facet normal -0 0 1
    outer loop
      vertex 5.14286 -9 9
      vertex -5.14286 -8.90769 9
      vertex -5.14286 -9 9
    endloop
  endfacet
  facet normal -0 0 1
    outer loop
      vertex 5.14286 -8.90769 9
      vertex -10.2857 0 9
      vertex 5.14286 -9 9
    endloop
  endfacet
  facet normal -0 -0 1
    outer loop
      vertex -0.589409 -0.928761 9
      vertex -10.2857 0 9
      vertex 5.14286 -8.90769 9
    endloop
  endfacet
  facet normal 0 0 1
    outer loop
      vertex 10.3657 -0.0461552 9
      vertex 5.14286 -8.90769 9
      vertex 5.2228 -8.95384 9
    endloop
  endfacet
  facet normal 0 -0 1
    outer loop
      vertex 10.2857 0 9
      vertex 1.1 0 9
      vertex 10.3657 -0.0461552 9
    endloop
  endfacet
  facet normal 0 0 1
    outer loop
      vertex 5.14286 9 9
      vertex -10.2857 0 9
      vertex 5.14286 8.90769 9
    endloop
  endfacet
  facet normal 0 -0 1
    outer loop
      vertex 5.2228 8.95384 9
      vertex 5.14286 8.90769 9
      vertex 10.3657 0.0461552 9
    endloop
  endfacet
  facet normal 0 0 1
    outer loop
      vertex -0.801865 0.753002 9
      vertex -0.701166 0.847565 9
      vertex 5.14286 8.90769 9
    endloop
  endfacet
  facet normal -0 0 1
    outer loop
      vertex -5.14286 8.90769 9
      vertex -5.2228 8.95384 9
      vertex -10.3657 0.0461552 9
    endloop
  endfacet
  facet normal 0 0 1
    outer loop
      vertex 5.14286 9 9
      vertex -5.14286 9 9
      vertex -5.14286 8.90769 9
    endloop
  endfacet
  facet normal -0 0 1
    outer loop
      vertex -1.1 0 9
      vertex -1.09133 0.137867 9
      vertex -10.2857 0 9
    endloop
  endfacet
  facet normal 0 -0 1
    outer loop
      vertex 1.1 0 9
      vertex 1.09133 -0.137867 9
      vertex 10.3657 -0.0461552 9
    endloop
  endfacet
  facet normal 0 0 1
    outer loop
      vertex -1.06544 0.273559 9
      vertex -10.2857 0 9
      vertex -1.09133 0.137867 9
    endloop
  endfacet
  facet normal 0 0 1
    outer loop
      vertex -1.02275 0.404937 9
      vertex -10.2857 0 9
      vertex -1.06544 0.273559 9
    endloop
  endfacet
  facet normal 0 0 1
    outer loop
      vertex -0.963937 0.529929 9
      vertex -10.2857 0 9
      vertex -1.02275 0.404937 9
    endloop
  endfacet
  facet normal 0 0 1
    outer loop
      vertex -0.701166 0.847565 9
      vertex -0.589409 0.928761 9
      vertex 5.14286 8.90769 9
    endloop
  endfacet
  facet normal 0 0 1
    outer loop
      vertex -0.889919 0.646564 9
      vertex -10.2857 0 9
      vertex -0.963937 0.529929 9
    endloop
  endfacet
  facet normal 0 0 1
    outer loop
      vertex 5.14286 8.90769 9
      vertex -10.2857 0 9
      vertex -0.889919 0.646564 9
    endloop
  endfacet
  facet normal 0 0 1
    outer loop
      vertex 1.09133 0.137867 9
      vertex 1.1 0 9
      vertex 10.3657 0.0461552 9
    endloop
  endfacet
  facet normal 0 0 1
    outer loop
      vertex 5.14286 8.90769 9
      vertex -0.889919 0.646564 9
      vertex -0.801865 0.753002 9
    endloop
  endfacet
  facet normal 0 0 1
    outer loop
      vertex -0.589409 0.928761 9
      vertex -0.468357 0.99531 9
      vertex 5.14286 8.90769 9
    endloop
  endfacet
  facet normal 0 0 1
    outer loop
      vertex 0.206119 1.08052 9
      vertex 0.339919 1.04616 9
      vertex 10.3657 0.0461552 9
    endloop
  endfacet
  facet normal 0 0 1
    outer loop
      vertex 0.589409 0.928761 9
      vertex 0.701166 0.847565 9
      vertex 10.3657 0.0461552 9
    endloop
  endfacet
  facet normal 0 0 1
    outer loop
      vertex 5.14286 8.90769 9
      vertex -0.468357 0.99531 9
      vertex -0.339919 1.04616 9
    endloop
  endfacet
  facet normal 0 0 1
    outer loop
      vertex 0.468357 0.99531 9
      vertex 0.589409 0.928761 9
      vertex 10.3657 0.0461552 9
    endloop
  endfacet
  facet normal 0 0 1
    outer loop
      vertex 5.14286 8.90769 9
      vertex -0.339919 1.04616 9
      vertex -0.206119 1.08052 9
    endloop
  endfacet
  facet normal 0 0 1
    outer loop
      vertex 0.339919 1.04616 9
      vertex 0.468357 0.99531 9
      vertex 10.3657 0.0461552 9
    endloop
  endfacet
  facet normal 0 0 1
    outer loop
      vertex 5.14286 8.90769 9
      vertex -0.206119 1.08052 9
      vertex -0.06907 1.09783 9
    endloop
  endfacet
  facet normal 0 -0 1
    outer loop
      vertex 5.14286 8.90769 9
      vertex 0.06907 1.09783 9
      vertex 10.3657 0.0461552 9
    endloop
  endfacet
  facet normal 0 0 1
    outer loop
      vertex 5.14286 8.90769 9
      vertex -0.06907 1.09783 9
      vertex 0.06907 1.09783 9
    endloop
  endfacet
  facet normal 0 0 1
    outer loop
      vertex 0.06907 1.09783 9
      vertex 0.206119 1.08052 9
      vertex 10.3657 0.0461552 9
    endloop
  endfacet
  facet normal 0 0 1
    outer loop
      vertex 0.701166 0.847565 9
      vertex 0.801865 0.753002 9
      vertex 10.3657 0.0461552 9
    endloop
  endfacet
  facet normal 0 0 1
    outer loop
      vertex 0.801865 0.753002 9
      vertex 0.889919 0.646564 9
      vertex 10.3657 0.0461552 9
    endloop
  endfacet
  facet normal 0 0 1
    outer loop
      vertex 0.889919 0.646564 9
      vertex 0.963937 0.529929 9
      vertex 10.3657 0.0461552 9
    endloop
  endfacet
  facet normal 0 0 1
    outer loop
      vertex 0.963937 0.529929 9
      vertex 1.02275 0.404937 9
      vertex 10.3657 0.0461552 9
    endloop
  endfacet
  facet normal 0 0 1
    outer loop
      vertex 1.02275 0.404937 9
      vertex 1.06544 0.273559 9
      vertex 10.3657 0.0461552 9
    endloop
  endfacet
  facet normal 0 0 1
    outer loop
      vertex 1.06544 0.273559 9
      vertex 1.09133 0.137867 9
      vertex 10.3657 0.0461552 9
    endloop
  endfacet
  facet normal 0 0 1
    outer loop
      vertex 10.3657 0.0461552 9
      vertex 1.1 0 9
      vertex 10.2857 0 9
    endloop
  endfacet
  facet normal 0 0 1
    outer loop
      vertex 10.3657 -0.0461552 9
      vertex 1.09133 -0.137867 9
      vertex 5.14286 -8.90769 9
    endloop
  endfacet
  facet normal 0 -0 1
    outer loop
      vertex 1.09133 -0.137867 9
      vertex 1.06544 -0.273559 9
      vertex 5.14286 -8.90769 9
    endloop
  endfacet
  facet normal 0 -0 1
    outer loop
      vertex 1.06544 -0.273559 9
      vertex 1.02275 -0.404937 9
      vertex 5.14286 -8.90769 9
    endloop
  endfacet
  facet normal 0 -0 1
    outer loop
      vertex 1.02275 -0.404937 9
      vertex 0.963937 -0.529929 9
      vertex 5.14286 -8.90769 9
    endloop
  endfacet
  facet normal 0 -0 1
    outer loop
      vertex 0.963937 -0.529929 9
      vertex 0.889919 -0.646564 9
      vertex 5.14286 -8.90769 9
    endloop
  endfacet
  facet normal 0 -0 1
    outer loop
      vertex 0.889919 -0.646564 9
      vertex 0.801865 -0.753002 9
      vertex 5.14286 -8.90769 9
    endloop
  endfacet
  facet normal 0 -0 1
    outer loop
      vertex 0.801865 -0.753002 9
      vertex 0.701166 -0.847565 9
      vertex 5.14286 -8.90769 9
    endloop
  endfacet
  facet normal 0 -0 1
    outer loop
      vertex 0.701166 -0.847565 9
      vertex 0.589409 -0.928761 9
      vertex 5.14286 -8.90769 9
    endloop
  endfacet
  facet normal 0 -0 1
    outer loop
      vertex 0.589409 -0.928761 9
      vertex 0.468357 -0.99531 9
      vertex 5.14286 -8.90769 9
    endloop
  endfacet
  facet normal 0 -0 1
    outer loop
      vertex 0.468357 -0.99531 9
      vertex 0.339919 -1.04616 9
      vertex 5.14286 -8.90769 9
    endloop
  endfacet
  facet normal 0 -0 1
    outer loop
      vertex 0.339919 -1.04616 9
      vertex 0.206119 -1.08052 9
      vertex 5.14286 -8.90769 9
    endloop
  endfacet
  facet normal 0 -0 1
    outer loop
      vertex 0.206119 -1.08052 9
      vertex 0.06907 -1.09783 9
      vertex 5.14286 -8.90769 9
    endloop
  endfacet
  facet normal 0 -0 1
    outer loop
      vertex 0.06907 -1.09783 9
      vertex -0.06907 -1.09783 9
      vertex 5.14286 -8.90769 9
    endloop
  endfacet
  facet normal -0 -0 1
    outer loop
      vertex -0.06907 -1.09783 9
      vertex -0.206119 -1.08052 9
      vertex 5.14286 -8.90769 9
    endloop
  endfacet
  facet normal -0 -0 1
    outer loop
      vertex -0.206119 -1.08052 9
      vertex -0.339919 -1.04616 9
      vertex 5.14286 -8.90769 9
    endloop
  endfacet
  facet normal -0 -0 1
    outer loop
      vertex -0.339919 -1.04616 9
      vertex -0.468357 -0.99531 9
      vertex 5.14286 -8.90769 9
    endloop
  endfacet
  facet normal -0 -0 1
    outer loop
      vertex -0.701166 -0.847565 9
      vertex -10.2857 0 9
      vertex -0.589409 -0.928761 9
    endloop
  endfacet
  facet normal -0 -0 1
    outer loop
      vertex -0.801865 -0.753002 9
      vertex -10.2857 0 9
      vertex -0.701166 -0.847565 9
    endloop
  endfacet
  facet normal -0 -0 1
    outer loop
      vertex -0.889919 -0.646564 9
      vertex -10.2857 0 9
      vertex -0.801865 -0.753002 9
    endloop
  endfacet
  facet normal -0 -0 1
    outer loop
      vertex -0.963937 -0.529929 9
      vertex -10.2857 0 9
      vertex -0.889919 -0.646564 9
    endloop
  endfacet
  facet normal -0 -0 1
    outer loop
      vertex -1.02275 -0.404937 9
      vertex -10.2857 0 9
      vertex -0.963937 -0.529929 9
    endloop
  endfacet
  facet normal -0 -0 1
    outer loop
      vertex -1.06544 -0.273559 9
      vertex -10.2857 0 9
      vertex -1.02275 -0.404937 9
    endloop
  endfacet
  facet normal -0 -0 1
    outer loop
      vertex -1.09133 -0.137867 9
      vertex -10.2857 0 9
      vertex -1.06544 -0.273559 9
    endloop
  endfacet
  facet normal -0 -0 1
    outer loop
      vertex -0.468357 -0.99531 9
      vertex -0.589409 -0.928761 9
      vertex 5.14286 -8.90769 9
    endloop
  endfacet
  facet normal 0 0 1
    outer loop
      vertex -1.09133 -0.137867 9
      vertex -1.1 0 9
      vertex -10.2857 0 9
    endloop
  endfacet
  facet normal 0 0 1
    outer loop
      vertex -10.3657 0.0461552 9
      vertex 5.14286 9 9
      vertex -5.14286 8.90769 9
    endloop
  endfacet
  facet normal 0 0 1
    outer loop
      vertex -10.3657 0.0461552 9
      vertex -10.2857 0 9
      vertex 5.14286 9 9
    endloop
  endfacet
  facet normal 0.5 -0.866025 0
    outer loop
      vertex -5.2228 -8.95384 9
      vertex -5.2228 -8.95384 -9
      vertex -5.14286 -8.90769 -9
    endloop
  endfacet
  facet normal 0.5 -0.866025 0
    outer loop
      vertex -5.14286 -8.90769 9
      vertex -5.2228 -8.95384 9
      vertex -5.14286 -8.90769 -9
    endloop
  endfacet
  facet normal -1 -0 -0
    outer loop
      vertex -5.14286 -9 -9
      vertex -5.14286 -9 9
      vertex -5.14286 -8.90769 -9
    endloop
  endfacet
  facet normal -1 0 0
    outer loop
      vertex -5.14286 -8.90769 -9
      vertex -5.14286 -9 9
      vertex -5.14286 -8.90769 9
    endloop
  endfacet
  facet normal 0 -1 0
    outer loop
      vertex -5.14286 -9 9
      vertex -5.14286 -9 -9
      vertex 5.14286 -9 -9
    endloop
  endfacet
  facet normal 0 -1 0
    outer loop
      vertex 5.14286 -9 9
      vertex -5.14286 -9 9
      vertex 5.14286 -9 -9
    endloop
  endfacet
  facet normal 1 0 -0
    outer loop
      vertex 5.14286 -9 9
      vertex 5.14286 -9 -9
      vertex 5.14286 -8.90769 -9
    endloop
  endfacet
  facet normal 1 0 0
    outer loop
      vertex 5.14286 -8.90769 9
      vertex 5.14286 -9 9
      vertex 5.14286 -8.90769 -9
    endloop
  endfacet
  facet normal -0.5 -0.866025 0
    outer loop
      vertex 5.14286 -8.90769 9
      vertex 5.14286 -8.90769 -9
      vertex 5.2228 -8.95384 -9
    endloop
  endfacet
  facet normal -0.5 -0.866025 0
    outer loop
      vertex 5.2228 -8.95384 9
      vertex 5.14286 -8.90769 9
      vertex 5.2228 -8.95384 -9
    endloop
  endfacet
  facet normal 0.866025 -0.5 0
    outer loop
      vertex 5.2228 -8.95384 9
      vertex 5.2228 -8.95384 -9
      vertex 10.3657 -0.0461552 -9
    endloop
  endfacet
  facet normal 0.866025 -0.5 0
    outer loop
      vertex 10.3657 -0.0461552 9
      vertex 5.2228 -8.95384 9
      vertex 10.3657 -0.0461552 -9
    endloop
  endfacet
  facet normal 0.5 0.866025 0
    outer loop
      vertex 10.2857 0 -9
      vertex 10.2857 0 9
      vertex 10.3657 -0.0461552 -9
    endloop
  endfacet
  facet normal 0.5 0.866025 0
    outer loop
      vertex 10.3657 -0.0461552 -9
      vertex 10.2857 0 9
      vertex 10.3657 -0.0461552 9
    endloop
  endfacet
  facet normal 0.5 -0.866025 0
    outer loop
      vertex 10.2857 0 9
      vertex 10.2857 0 -9
      vertex 10.3657 0.0461552 -9
    endloop
  endfacet
  facet normal 0.5 -0.866025 0
    outer loop
      vertex 10.3657 0.0461552 9
      vertex 10.2857 0 9
      vertex 10.3657 0.0461552 -9
    endloop
  endfacet
  facet normal 0.866025 0.5 0
    outer loop
      vertex 10.3657 0.0461552 -9
      vertex 5.2228 8.95384 -9
      vertex 5.2228 8.95384 9
    endloop
  endfacet
  facet normal 0.866025 0.5 -0
    outer loop
      vertex 10.3657 0.0461552 9
      vertex 10.3657 0.0461552 -9
      vertex 5.2228 8.95384 9
    endloop
  endfacet
  facet normal -0.5 0.866025 0
    outer loop
      vertex 5.14286 8.90769 -9
      vertex 5.14286 8.90769 9
      vertex 5.2228 8.95384 -9
    endloop
  endfacet
  facet normal -0.5 0.866025 0
    outer loop
      vertex 5.2228 8.95384 -9
      vertex 5.14286 8.90769 9
      vertex 5.2228 8.95384 9
    endloop
  endfacet
  facet normal 1 0 -0
    outer loop
      vertex 5.14286 8.90769 9
      vertex 5.14286 8.90769 -9
      vertex 5.14286 9 -9
    endloop
  endfacet
  facet normal 1 0 0
    outer loop
      vertex 5.14286 9 9
      vertex 5.14286 8.90769 9
      vertex 5.14286 9 -9
    endloop
  endfacet
  facet normal 0 1 0
    outer loop
      vertex -5.14286 9 -9
      vertex -5.14286 9 9
      vertex 5.14286 9 -9
    endloop
  endfacet
  facet normal 0 1 0
    outer loop
      vertex 5.14286 9 -9
      vertex -5.14286 9 9
      vertex 5.14286 9 9
    endloop
  endfacet
  facet normal -1 -0 -0
    outer loop
      vertex -5.14286 8.90769 -9
      vertex -5.14286 8.90769 9
      vertex -5.14286 9 -9
    endloop
  endfacet
  facet normal -1 0 0
    outer loop
      vertex -5.14286 9 -9
      vertex -5.14286 8.90769 9
      vertex -5.14286 9 9
    endloop
  endfacet
  facet normal 0.5 0.866025 0
    outer loop
      vertex -5.2228 8.95384 -9
      vertex -5.2228 8.95384 9
      vertex -5.14286 8.90769 -9
    endloop
  endfacet
  facet normal 0.5 0.866025 0
    outer loop
      vertex -5.14286 8.90769 -9
      vertex -5.2228 8.95384 9
      vertex -5.14286 8.90769 9
    endloop
  endfacet
  facet normal -0.866025 0.5 0
    outer loop
      vertex -10.3657 0.0461552 -9
      vertex -10.3657 0.0461552 9
      vertex -5.2228 8.95384 -9
    endloop
  endfacet
  facet normal -0.866025 0.5 0
    outer loop
      vertex -5.2228 8.95384 -9
      vertex -10.3657 0.0461552 9
      vertex -5.2228 8.95384 9
    endloop
  endfacet
  facet normal 0.998027 -0.0627916 0
    outer loop
      vertex -1.09133 0.137867 -9
      vertex -1.09133 0.137867 9
      vertex -1.1 0 9
    endloop
  endfacet
  facet normal 0.998027 -0.0627916 0
    outer loop
      vertex -1.1 0 -9
      vertex -1.09133 0.137867 -9
      vertex -1.1 0 9
    endloop
  endfacet
  facet normal 0.998027 0.0627916 0
    outer loop
      vertex -1.1 0 9
      vertex -1.09133 -0.137867 9
      vertex -1.09133 -0.137867 -9
    endloop
  endfacet
  facet normal 0.998027 0.0627916 0
    outer loop
      vertex -1.1 0 -9
      vertex -1.1 0 9
      vertex -1.09133 -0.137867 -9
    endloop
  endfacet
  facet normal 0.982287 -0.187384 0
    outer loop
      vertex -1.06544 0.273559 -9
      vertex -1.06544 0.273559 9
      vertex -1.09133 0.137867 9
    endloop
  endfacet
  facet normal 0.982287 -0.187384 0
    outer loop
      vertex -1.09133 0.137867 -9
      vertex -1.06544 0.273559 -9
      vertex -1.09133 0.137867 9
    endloop
  endfacet
  facet normal 0.951057 -0.309015 0
    outer loop
      vertex -1.02275 0.404937 -9
      vertex -1.02275 0.404937 9
      vertex -1.06544 0.273559 9
    endloop
  endfacet
  facet normal 0.951057 -0.309015 0
    outer loop
      vertex -1.06544 0.273559 -9
      vertex -1.02275 0.404937 -9
      vertex -1.06544 0.273559 9
    endloop
  endfacet
  facet normal 0.904826 -0.425781 0
    outer loop
      vertex -0.963937 0.529929 -9
      vertex -0.963937 0.529929 9
      vertex -1.02275 0.404937 9
    endloop
  endfacet
  facet normal 0.904826 -0.425781 0
    outer loop
      vertex -1.02275 0.404937 -9
      vertex -0.963937 0.529929 -9
      vertex -1.02275 0.404937 9
    endloop
  endfacet
  facet normal 0.844331 -0.535823 0
    outer loop
      vertex -0.889919 0.646564 -9
      vertex -0.889919 0.646564 9
      vertex -0.963937 0.529929 9
    endloop
  endfacet
  facet normal 0.844331 -0.535823 0
    outer loop
      vertex -0.963937 0.529929 -9
      vertex -0.889919 0.646564 -9
      vertex -0.963937 0.529929 9
    endloop
  endfacet
  facet normal 0.77051 -0.637428 0
    outer loop
      vertex -0.801865 0.753002 -9
      vertex -0.801865 0.753002 9
      vertex -0.889919 0.646564 9
    endloop
  endfacet
  facet normal 0.77051 -0.637428 0
    outer loop
      vertex -0.889919 0.646564 -9
      vertex -0.801865 0.753002 -9
      vertex -0.889919 0.646564 9
    endloop
  endfacet
  facet normal 0.684548 -0.728967 0
    outer loop
      vertex -0.701166 0.847565 -9
      vertex -0.701166 0.847565 9
      vertex -0.801865 0.753002 9
    endloop
  endfacet
  facet normal 0.684548 -0.728967 0
    outer loop
      vertex -0.801865 0.753002 -9
      vertex -0.701166 0.847565 -9
      vertex -0.801865 0.753002 9
    endloop
  endfacet
  facet normal 0.587784 -0.809018 0
    outer loop
      vertex -0.589409 0.928761 -9
      vertex -0.589409 0.928761 9
      vertex -0.701166 0.847565 9
    endloop
  endfacet
  facet normal 0.587784 -0.809018 0
    outer loop
      vertex -0.701166 0.847565 -9
      vertex -0.589409 0.928761 -9
      vertex -0.701166 0.847565 9
    endloop
  endfacet
  facet normal 0.481754 -0.876306 0
    outer loop
      vertex -0.468357 0.99531 -9
      vertex -0.468357 0.99531 9
      vertex -0.589409 0.928761 9
    endloop
  endfacet
  facet normal 0.481754 -0.876306 0
    outer loop
      vertex -0.589409 0.928761 -9
      vertex -0.468357 0.99531 -9
      vertex -0.589409 0.928761 9
    endloop
  endfacet
  facet normal 0.368123 -0.929777 0
    outer loop
      vertex -0.339919 1.04616 -9
      vertex -0.339919 1.04616 9
      vertex -0.468357 0.99531 9
    endloop
  endfacet
  facet normal 0.368123 -0.929777 0
    outer loop
      vertex -0.468357 0.99531 -9
      vertex -0.339919 1.04616 -9
      vertex -0.468357 0.99531 9
    endloop
  endfacet
  facet normal 0.24869 -0.968583 0
    outer loop
      vertex -0.206119 1.08052 -9
      vertex -0.206119 1.08052 9
      vertex -0.339919 1.04616 9
    endloop
  endfacet
  facet normal 0.24869 -0.968583 0
    outer loop
      vertex -0.339919 1.04616 -9
      vertex -0.206119 1.08052 -9
      vertex -0.339919 1.04616 9
    endloop
  endfacet
  facet normal 0.125331 -0.992115 0
    outer loop
      vertex -0.06907 1.09783 -9
      vertex -0.06907 1.09783 9
      vertex -0.206119 1.08052 9
    endloop
  endfacet
  facet normal 0.125331 -0.992115 0
    outer loop
      vertex -0.206119 1.08052 -9
      vertex -0.06907 1.09783 -9
      vertex -0.206119 1.08052 9
    endloop
  endfacet
  facet normal 0 -1 0
    outer loop
      vertex 0.06907 1.09783 -9
      vertex 0.06907 1.09783 9
      vertex -0.06907 1.09783 9
    endloop
  endfacet
  facet normal -0 -1 -0
    outer loop
      vertex -0.06907 1.09783 -9
      vertex 0.06907 1.09783 -9
      vertex -0.06907 1.09783 9
    endloop
  endfacet
  facet normal -0.125331 -0.992115 -0
    outer loop
      vertex 0.206119 1.08052 -9
      vertex 0.206119 1.08052 9
      vertex 0.06907 1.09783 9
    endloop
  endfacet
  facet normal -0.125331 -0.992115 -0
    outer loop
      vertex 0.06907 1.09783 -9
      vertex 0.206119 1.08052 -9
      vertex 0.06907 1.09783 9
    endloop
  endfacet
  facet normal -0.24869 -0.968583 -0
    outer loop
      vertex 0.339919 1.04616 -9
      vertex 0.339919 1.04616 9
      vertex 0.206119 1.08052 9
    endloop
  endfacet
  facet normal -0.24869 -0.968583 -0
    outer loop
      vertex 0.206119 1.08052 -9
      vertex 0.339919 1.04616 -9
      vertex 0.206119 1.08052 9
    endloop
  endfacet
  facet normal -0.368123 -0.929777 -0
    outer loop
      vertex 0.468357 0.99531 -9
      vertex 0.468357 0.99531 9
      vertex 0.339919 1.04616 9
    endloop
  endfacet
  facet normal -0.368123 -0.929777 -0
    outer loop
      vertex 0.339919 1.04616 -9
      vertex 0.468357 0.99531 -9
      vertex 0.339919 1.04616 9
    endloop
  endfacet
  facet normal -0.481754 -0.876306 -0
    outer loop
      vertex 0.589409 0.928761 -9
      vertex 0.589409 0.928761 9
      vertex 0.468357 0.99531 9
    endloop
  endfacet
  facet normal -0.481754 -0.876306 -0
    outer loop
      vertex 0.468357 0.99531 -9
      vertex 0.589409 0.928761 -9
      vertex 0.468357 0.99531 9
    endloop
  endfacet
  facet normal -0.587784 -0.809018 -0
    outer loop
      vertex 0.701166 0.847565 -9
      vertex 0.701166 0.847565 9
      vertex 0.589409 0.928761 9
    endloop
  endfacet
  facet normal -0.587784 -0.809018 -0
    outer loop
      vertex 0.589409 0.928761 -9
      vertex 0.701166 0.847565 -9
      vertex 0.589409 0.928761 9
    endloop
  endfacet
  facet normal -0.684548 -0.728967 -0
    outer loop
      vertex 0.801865 0.753002 -9
      vertex 0.801865 0.753002 9
      vertex 0.701166 0.847565 9
    endloop
  endfacet
  facet normal -0.684548 -0.728967 -0
    outer loop
      vertex 0.701166 0.847565 -9
      vertex 0.801865 0.753002 -9
      vertex 0.701166 0.847565 9
    endloop
  endfacet
  facet normal -0.77051 -0.637428 0
    outer loop
      vertex 0.889919 0.646564 9
      vertex 0.801865 0.753002 9
      vertex 0.889919 0.646564 -9
    endloop
  endfacet
  facet normal -0.77051 -0.637428 0
    outer loop
      vertex 0.889919 0.646564 -9
      vertex 0.801865 0.753002 9
      vertex 0.801865 0.753002 -9
    endloop
  endfacet
  facet normal -0.844331 -0.535823 0
    outer loop
      vertex 0.963937 0.529929 9
      vertex 0.889919 0.646564 9
      vertex 0.963937 0.529929 -9
    endloop
  endfacet
  facet normal -0.844331 -0.535823 0
    outer loop
      vertex 0.963937 0.529929 -9
      vertex 0.889919 0.646564 9
      vertex 0.889919 0.646564 -9
    endloop
  endfacet
  facet normal -0.904826 -0.425781 0
    outer loop
      vertex 1.02275 0.404937 9
      vertex 0.963937 0.529929 9
      vertex 1.02275 0.404937 -9
    endloop
  endfacet
  facet normal -0.904826 -0.425781 0
    outer loop
      vertex 1.02275 0.404937 -9
      vertex 0.963937 0.529929 9
      vertex 0.963937 0.529929 -9
    endloop
  endfacet
  facet normal -0.951057 -0.309015 0
    outer loop
      vertex 1.06544 0.273559 9
      vertex 1.02275 0.404937 9
      vertex 1.06544 0.273559 -9
    endloop
  endfacet
  facet normal -0.951057 -0.309015 0
    outer loop
      vertex 1.06544 0.273559 -9
      vertex 1.02275 0.404937 9
      vertex 1.02275 0.404937 -9
    endloop
  endfacet
  facet normal -0.982287 -0.187384 0
    outer loop
      vertex 1.09133 0.137867 9
      vertex 1.06544 0.273559 9
      vertex 1.09133 0.137867 -9
    endloop
  endfacet
  facet normal -0.982287 -0.187384 0
    outer loop
      vertex 1.09133 0.137867 -9
      vertex 1.06544 0.273559 9
      vertex 1.06544 0.273559 -9
    endloop
  endfacet
  facet normal -0.998027 -0.0627916 0
    outer loop
      vertex 1.1 0 9
      vertex 1.09133 0.137867 9
      vertex 1.1 0 -9
    endloop
  endfacet
  facet normal -0.998027 -0.0627916 0
    outer loop
      vertex 1.1 0 -9
      vertex 1.09133 0.137867 9
      vertex 1.09133 0.137867 -9
    endloop
  endfacet
  facet normal -0.998027 0.0627916 0
    outer loop
      vertex 1.1 0 9
      vertex 1.1 0 -9
      vertex 1.09133 -0.137867 9
    endloop
  endfacet
  facet normal -0.998027 0.0627916 0
    outer loop
      vertex 1.09133 -0.137867 9
      vertex 1.1 0 -9
      vertex 1.09133 -0.137867 -9
    endloop
  endfacet
  facet normal -0.982287 0.187384 0
    outer loop
      vertex 1.09133 -0.137867 9
      vertex 1.09133 -0.137867 -9
      vertex 1.06544 -0.273559 9
    endloop
  endfacet
  facet normal -0.982287 0.187384 0
    outer loop
      vertex 1.06544 -0.273559 9
      vertex 1.09133 -0.137867 -9
      vertex 1.06544 -0.273559 -9
    endloop
  endfacet
  facet normal -0.951057 0.309015 0
    outer loop
      vertex 1.06544 -0.273559 9
      vertex 1.06544 -0.273559 -9
      vertex 1.02275 -0.404937 9
    endloop
  endfacet
  facet normal -0.951057 0.309015 0
    outer loop
      vertex 1.02275 -0.404937 9
      vertex 1.06544 -0.273559 -9
      vertex 1.02275 -0.404937 -9
    endloop
  endfacet
  facet normal -0.904826 0.425781 0
    outer loop
      vertex 1.02275 -0.404937 9
      vertex 1.02275 -0.404937 -9
      vertex 0.963937 -0.529929 9
    endloop
  endfacet
  facet normal -0.904826 0.425781 0
    outer loop
      vertex 0.963937 -0.529929 9
      vertex 1.02275 -0.404937 -9
      vertex 0.963937 -0.529929 -9
    endloop
  endfacet
  facet normal -0.844331 0.535823 0
    outer loop
      vertex 0.963937 -0.529929 9
      vertex 0.963937 -0.529929 -9
      vertex 0.889919 -0.646564 9
    endloop
  endfacet
  facet normal -0.844331 0.535823 0
    outer loop
      vertex 0.889919 -0.646564 9
      vertex 0.963937 -0.529929 -9
      vertex 0.889919 -0.646564 -9
    endloop
  endfacet
  facet normal -0.77051 0.637428 0
    outer loop
      vertex 0.889919 -0.646564 9
      vertex 0.889919 -0.646564 -9
      vertex 0.801865 -0.753002 9
    endloop
  endfacet
  facet normal -0.77051 0.637428 0
    outer loop
      vertex 0.801865 -0.753002 9
      vertex 0.889919 -0.646564 -9
      vertex 0.801865 -0.753002 -9
    endloop
  endfacet
  facet normal -0.684548 0.728967 0
    outer loop
      vertex 0.801865 -0.753002 9
      vertex 0.801865 -0.753002 -9
      vertex 0.701166 -0.847565 9
    endloop
  endfacet
  facet normal -0.684548 0.728967 0
    outer loop
      vertex 0.701166 -0.847565 9
      vertex 0.801865 -0.753002 -9
      vertex 0.701166 -0.847565 -9
    endloop
  endfacet
  facet normal -0.587784 0.809018 0
    outer loop
      vertex 0.701166 -0.847565 9
      vertex 0.701166 -0.847565 -9
      vertex 0.589409 -0.928761 9
    endloop
  endfacet
  facet normal -0.587784 0.809018 0
    outer loop
      vertex 0.589409 -0.928761 9
      vertex 0.701166 -0.847565 -9
      vertex 0.589409 -0.928761 -9
    endloop
  endfacet
  facet normal -0.481754 0.876306 0
    outer loop
      vertex 0.589409 -0.928761 9
      vertex 0.589409 -0.928761 -9
      vertex 0.468357 -0.99531 9
    endloop
  endfacet
  facet normal -0.481754 0.876306 0
    outer loop
      vertex 0.468357 -0.99531 9
      vertex 0.589409 -0.928761 -9
      vertex 0.468357 -0.99531 -9
    endloop
  endfacet
  facet normal -0.368123 0.929777 0
    outer loop
      vertex 0.468357 -0.99531 9
      vertex 0.468357 -0.99531 -9
      vertex 0.339919 -1.04616 9
    endloop
  endfacet
  facet normal -0.368123 0.929777 0
    outer loop
      vertex 0.339919 -1.04616 9
      vertex 0.468357 -0.99531 -9
      vertex 0.339919 -1.04616 -9
    endloop
  endfacet
  facet normal -0.24869 0.968583 0
    outer loop
      vertex 0.339919 -1.04616 9
      vertex 0.339919 -1.04616 -9
      vertex 0.206119 -1.08052 9
    endloop
  endfacet
  facet normal -0.24869 0.968583 0
    outer loop
      vertex 0.206119 -1.08052 9
      vertex 0.339919 -1.04616 -9
      vertex 0.206119 -1.08052 -9
    endloop
  endfacet
  facet normal -0.125331 0.992115 0
    outer loop
      vertex 0.206119 -1.08052 9
      vertex 0.206119 -1.08052 -9
      vertex 0.06907 -1.09783 9
    endloop
  endfacet
  facet normal -0.125331 0.992115 0
    outer loop
      vertex 0.06907 -1.09783 9
      vertex 0.206119 -1.08052 -9
      vertex 0.06907 -1.09783 -9
    endloop
  endfacet
  facet normal 0 1 0
    outer loop
      vertex 0.06907 -1.09783 9
      vertex 0.06907 -1.09783 -9
      vertex -0.06907 -1.09783 9
    endloop
  endfacet
  facet normal 0 1 -0
    outer loop
      vertex -0.06907 -1.09783 9
      vertex 0.06907 -1.09783 -9
      vertex -0.06907 -1.09783 -9
    endloop
  endfacet
  facet normal 0.125331 0.992115 -0
    outer loop
      vertex -0.06907 -1.09783 9
      vertex -0.06907 -1.09783 -9
      vertex -0.206119 -1.08052 9
    endloop
  endfacet
  facet normal 0.125331 0.992115 -0
    outer loop
      vertex -0.206119 -1.08052 9
      vertex -0.06907 -1.09783 -9
      vertex -0.206119 -1.08052 -9
    endloop
  endfacet
  facet normal 0.24869 0.968583 -0
    outer loop
      vertex -0.206119 -1.08052 9
      vertex -0.206119 -1.08052 -9
      vertex -0.339919 -1.04616 9
    endloop
  endfacet
  facet normal 0.24869 0.968583 -0
    outer loop
      vertex -0.339919 -1.04616 9
      vertex -0.206119 -1.08052 -9
      vertex -0.339919 -1.04616 -9
    endloop
  endfacet
  facet normal 0.368123 0.929777 -0
    outer loop
      vertex -0.339919 -1.04616 9
      vertex -0.339919 -1.04616 -9
      vertex -0.468357 -0.99531 9
    endloop
  endfacet
  facet normal 0.368123 0.929777 -0
    outer loop
      vertex -0.468357 -0.99531 9
      vertex -0.339919 -1.04616 -9
      vertex -0.468357 -0.99531 -9
    endloop
  endfacet
  facet normal 0.481754 0.876306 -0
    outer loop
      vertex -0.468357 -0.99531 9
      vertex -0.468357 -0.99531 -9
      vertex -0.589409 -0.928761 9
    endloop
  endfacet
  facet normal 0.481754 0.876306 -0
    outer loop
      vertex -0.589409 -0.928761 9
      vertex -0.468357 -0.99531 -9
      vertex -0.589409 -0.928761 -9
    endloop
  endfacet
  facet normal 0.587784 0.809018 -0
    outer loop
      vertex -0.589409 -0.928761 9
      vertex -0.589409 -0.928761 -9
      vertex -0.701166 -0.847565 9
    endloop
  endfacet
  facet normal 0.587784 0.809018 -0
    outer loop
      vertex -0.701166 -0.847565 9
      vertex -0.589409 -0.928761 -9
      vertex -0.701166 -0.847565 -9
    endloop
  endfacet
  facet normal 0.684548 0.728967 -0
    outer loop
      vertex -0.701166 -0.847565 9
      vertex -0.701166 -0.847565 -9
      vertex -0.801865 -0.753002 9
    endloop
  endfacet
  facet normal 0.684548 0.728967 -0
    outer loop
      vertex -0.801865 -0.753002 9
      vertex -0.701166 -0.847565 -9
      vertex -0.801865 -0.753002 -9
    endloop
  endfacet
  facet normal 0.77051 0.637428 0
    outer loop
      vertex -0.889919 -0.646564 9
      vertex -0.801865 -0.753002 9
      vertex -0.801865 -0.753002 -9
    endloop
  endfacet
  facet normal 0.77051 0.637428 0
    outer loop
      vertex -0.889919 -0.646564 -9
      vertex -0.889919 -0.646564 9
      vertex -0.801865 -0.753002 -9
    endloop
  endfacet
  facet normal 0.844331 0.535823 0
    outer loop
      vertex -0.963937 -0.529929 9
      vertex -0.889919 -0.646564 9
      vertex -0.889919 -0.646564 -9
    endloop
  endfacet
  facet normal 0.844331 0.535823 0
    outer loop
      vertex -0.963937 -0.529929 -9
      vertex -0.963937 -0.529929 9
      vertex -0.889919 -0.646564 -9
    endloop
  endfacet
  facet normal 0.904826 0.425781 0
    outer loop
      vertex -1.02275 -0.404937 9
      vertex -0.963937 -0.529929 9
      vertex -0.963937 -0.529929 -9
    endloop
  endfacet
  facet normal 0.904826 0.425781 0
    outer loop
      vertex -1.02275 -0.404937 -9
      vertex -1.02275 -0.404937 9
      vertex -0.963937 -0.529929 -9
    endloop
  endfacet
  facet normal 0.951057 0.309015 0
    outer loop
      vertex -1.06544 -0.273559 9
      vertex -1.02275 -0.404937 9
      vertex -1.02275 -0.404937 -9
    endloop
  endfacet
  facet normal 0.951057 0.309015 0
    outer loop
      vertex -1.06544 -0.273559 -9
      vertex -1.06544 -0.273559 9
      vertex -1.02275 -0.404937 -9
    endloop
  endfacet
  facet normal 0.982287 0.187384 0
    outer loop
      vertex -1.09133 -0.137867 9
      vertex -1.06544 -0.273559 9
      vertex -1.06544 -0.273559 -9
    endloop
  endfacet
  facet normal 0.982287 0.187384 0
    outer loop
      vertex -1.09133 -0.137867 -9
      vertex -1.09133 -0.137867 9
      vertex -1.06544 -0.273559 -9
    endloop
  endfacet
endsolid OpenSCAD_Model
