solid OpenSCAD_Model
  facet normal -0.864483 -0.453715 -0.216362
    outer loop
      vertex -2.99404 -2.65249 0
      vertex -3.88377 -0.957263 0
      vertex -2.69754 -2.38981 -1.73553
    endloop
  endfacet
  facet normal -0.864483 -0.453715 -0.216362
    outer loop
      vertex -2.69754 -2.38981 -1.73553
      vertex -3.88377 -0.957263 0
      vertex -3.49915 -0.862464 -1.73553
    endloop
  endfacet
  facet normal -0.976313 -0 -0.216362
    outer loop
      vertex -3.88377 -0.957263 0
      vertex -3.88377 0.957263 0
      vertex -3.49915 -0.862464 -1.73553
    endloop
  endfacet
  facet normal -0.976313 -0 -0.216362
    outer loop
      vertex -3.49915 -0.862464 -1.73553
      vertex -3.88377 0.957263 0
      vertex -3.49915 0.862464 -1.73553
    endloop
  endfacet
  facet normal -0.976313 0 0.216362
    outer loop
      vertex -3.88377 -0.957263 0
      vertex -3.49915 -0.862464 1.73553
      vertex -3.88377 0.957263 0
    endloop
  endfacet
  facet normal -0.976313 0 0.216362
    outer loop
      vertex -3.88377 0.957263 0
      vertex -3.49915 -0.862464 1.73553
      vertex -3.49915 0.862464 1.73553
    endloop
  endfacet
  facet normal -0.864482 -0.453715 0.216362
    outer loop
      vertex -3.49915 -0.862464 1.73553
      vertex -3.88377 -0.957263 0
      vertex -2.99404 -2.65249 0
    endloop
  endfacet
  facet normal -0.554609 -0.80349 -0.216362
    outer loop
      vertex -1.41842 -3.74006 0
      vertex -2.99404 -2.65249 0
      vertex -1.27795 -3.36968 -1.73553
    endloop
  endfacet
  facet normal -0.554609 -0.80349 -0.216362
    outer loop
      vertex -1.27795 -3.36968 -1.73553
      vertex -2.99404 -2.65249 0
      vertex -2.69754 -2.38981 -1.73553
    endloop
  endfacet
  facet normal -0.864483 -0.453715 0.216362
    outer loop
      vertex -2.69754 -2.38981 1.73553
      vertex -3.49915 -0.862464 1.73553
      vertex -2.99404 -2.65249 0
    endloop
  endfacet
  facet normal -0.554609 -0.80349 0.216362
    outer loop
      vertex -2.69754 -2.38981 1.73553
      vertex -2.99404 -2.65249 0
      vertex -1.41842 -3.74006 0
    endloop
  endfacet
  facet normal -0.449159 -0.650719 -0.612226
    outer loop
      vertex -1.27795 -3.36968 -1.73553
      vertex -2.69754 -2.38981 -1.73553
      vertex -0.88437 -2.33189 -3.12733
    endloop
  endfacet
  facet normal -0.449159 -0.650719 -0.612226
    outer loop
      vertex -0.88437 -2.33189 -3.12733
      vertex -2.69754 -2.38981 -1.73553
      vertex -1.86675 -1.6538 -3.12733
    endloop
  endfacet
  facet normal -0.700115 -0.367448 -0.612226
    outer loop
      vertex -2.69754 -2.38981 -1.73553
      vertex -3.49915 -0.862464 -1.73553
      vertex -1.86675 -1.6538 -3.12733
    endloop
  endfacet
  facet normal -0.700115 -0.367449 -0.612226
    outer loop
      vertex -1.86675 -1.6538 -3.12733
      vertex -3.49915 -0.862464 -1.73553
      vertex -2.42149 -0.596844 -3.12733
    endloop
  endfacet
  facet normal -0.790683 -0 -0.612226
    outer loop
      vertex -3.49915 -0.862464 -1.73553
      vertex -3.49915 0.862464 -1.73553
      vertex -2.42149 -0.596844 -3.12733
    endloop
  endfacet
  facet normal -0.790683 -0 -0.612226
    outer loop
      vertex -2.42149 -0.596844 -3.12733
      vertex -3.49915 0.862464 -1.73553
      vertex -2.42149 0.596844 -3.12733
    endloop
  endfacet
  facet normal -0.700115 0.367448 -0.612226
    outer loop
      vertex -2.42149 0.596844 -3.12733
      vertex -3.49915 0.862464 -1.73553
      vertex -2.69754 2.38981 -1.73553
    endloop
  endfacet
  facet normal -0.864483 0.453715 -0.216362
    outer loop
      vertex -2.69754 2.38981 -1.73553
      vertex -3.49915 0.862464 -1.73553
      vertex -2.99404 2.65249 0
    endloop
  endfacet
  facet normal -0.864482 0.453715 -0.216362
    outer loop
      vertex -3.49915 0.862464 -1.73553
      vertex -3.88377 0.957263 0
      vertex -2.99404 2.65249 0
    endloop
  endfacet
  facet normal -0.864483 0.453715 0.216362
    outer loop
      vertex -2.99404 2.65249 0
      vertex -3.88377 0.957263 0
      vertex -2.69754 2.38981 1.73553
    endloop
  endfacet
  facet normal -0.864483 0.453715 0.216362
    outer loop
      vertex -2.69754 2.38981 1.73553
      vertex -3.88377 0.957263 0
      vertex -3.49915 0.862464 1.73553
    endloop
  endfacet
  facet normal -0.700115 0.367448 0.612226
    outer loop
      vertex -2.69754 2.38981 1.73553
      vertex -3.49915 0.862464 1.73553
      vertex -1.86675 1.6538 3.12733
    endloop
  endfacet
  facet normal -0.700115 0.367449 0.612226
    outer loop
      vertex -1.86675 1.6538 3.12733
      vertex -3.49915 0.862464 1.73553
      vertex -2.42149 0.596844 3.12733
    endloop
  endfacet
  facet normal -0.790683 0 0.612226
    outer loop
      vertex -3.49915 -0.862464 1.73553
      vertex -2.42149 -0.596844 3.12733
      vertex -3.49915 0.862464 1.73553
    endloop
  endfacet
  facet normal -0.790683 0 0.612226
    outer loop
      vertex -3.49915 0.862464 1.73553
      vertex -2.42149 -0.596844 3.12733
      vertex -2.42149 0.596844 3.12733
    endloop
  endfacet
  facet normal -0.700115 -0.367448 0.612226
    outer loop
      vertex -2.42149 -0.596844 3.12733
      vertex -3.49915 -0.862464 1.73553
      vertex -2.69754 -2.38981 1.73553
    endloop
  endfacet
  facet normal -0.117681 -0.969195 -0.216362
    outer loop
      vertex 0.482147 -3.97083 0
      vertex -1.41842 -3.74006 0
      vertex 0.434399 -3.5776 -1.73553
    endloop
  endfacet
  facet normal -0.117682 -0.969195 -0.216362
    outer loop
      vertex 0.434399 -3.5776 -1.73553
      vertex -1.41842 -3.74006 0
      vertex -1.27795 -3.36968 -1.73553
    endloop
  endfacet
  facet normal -0.554609 -0.80349 0.216362
    outer loop
      vertex -1.27795 -3.36968 1.73553
      vertex -2.69754 -2.38981 1.73553
      vertex -1.41842 -3.74006 0
    endloop
  endfacet
  facet normal -0.117681 -0.969195 0.216362
    outer loop
      vertex -1.27795 -3.36968 1.73553
      vertex -1.41842 -3.74006 0
      vertex 0.482147 -3.97083 0
    endloop
  endfacet
  facet normal -0.0953063 -0.784918 -0.612226
    outer loop
      vertex 0.434399 -3.5776 -1.73553
      vertex -1.27795 -3.36968 -1.73553
      vertex 0.300614 -2.47578 -3.12733
    endloop
  endfacet
  facet normal -0.0953062 -0.784918 -0.612226
    outer loop
      vertex 0.300614 -2.47578 -3.12733
      vertex -1.27795 -3.36968 -1.73553
      vertex -0.88437 -2.33189 -3.12733
    endloop
  endfacet
  facet normal -0.700115 -0.367449 0.612226
    outer loop
      vertex -2.42149 -0.596844 3.12733
      vertex -2.69754 -2.38981 1.73553
      vertex -1.86675 -1.6538 3.12733
    endloop
  endfacet
  facet normal -0.449159 -0.650719 0.612226
    outer loop
      vertex -1.86675 -1.6538 3.12733
      vertex -2.69754 -2.38981 1.73553
      vertex -1.27795 -3.36968 1.73553
    endloop
  endfacet
  facet normal -0.0535587 -0.441096 -0.89586
    outer loop
      vertex 0.300614 -2.47578 -3.12733
      vertex -0.88437 -2.33189 -3.12733
      vertex 0.107288 -0.883594 -3.89971
    endloop
  endfacet
  facet normal -0.0535584 -0.441096 -0.89586
    outer loop
      vertex 0.107288 -0.883594 -3.89971
      vertex -0.88437 -2.33189 -3.12733
      vertex -0.315628 -0.832243 -3.89971
    endloop
  endfacet
  facet normal -0.252411 -0.365681 -0.89586
    outer loop
      vertex -0.88437 -2.33189 -3.12733
      vertex -1.86675 -1.6538 -3.12733
      vertex -0.315628 -0.832243 -3.89971
    endloop
  endfacet
  facet normal -0.252411 -0.365681 -0.89586
    outer loop
      vertex -0.315628 -0.832243 -3.89971
      vertex -1.86675 -1.6538 -3.12733
      vertex -0.666237 -0.590235 -3.89971
    endloop
  endfacet
  facet normal -0.393439 -0.206493 -0.89586
    outer loop
      vertex -1.86675 -1.6538 -3.12733
      vertex -2.42149 -0.596844 -3.12733
      vertex -0.666237 -0.590235 -3.89971
    endloop
  endfacet
  facet normal -0.393439 -0.206494 -0.89586
    outer loop
      vertex -0.666237 -0.590235 -3.89971
      vertex -2.42149 -0.596844 -3.12733
      vertex -0.86422 -0.213011 -3.89971
    endloop
  endfacet
  facet normal -0.444336 -0 -0.89586
    outer loop
      vertex -2.42149 -0.596844 -3.12733
      vertex -2.42149 0.596844 -3.12733
      vertex -0.86422 -0.213011 -3.89971
    endloop
  endfacet
  facet normal -0.444336 -0 -0.89586
    outer loop
      vertex -0.86422 -0.213011 -3.89971
      vertex -2.42149 0.596844 -3.12733
      vertex -0.86422 0.213011 -3.89971
    endloop
  endfacet
  facet normal -0.39344 0.206493 -0.89586
    outer loop
      vertex -0.86422 0.213011 -3.89971
      vertex -2.42149 0.596844 -3.12733
      vertex -1.86675 1.6538 -3.12733
    endloop
  endfacet
  facet normal -0.700115 0.367449 -0.612226
    outer loop
      vertex -2.42149 0.596844 -3.12733
      vertex -2.69754 2.38981 -1.73553
      vertex -1.86675 1.6538 -3.12733
    endloop
  endfacet
  facet normal -0.449159 0.650719 -0.612226
    outer loop
      vertex -1.86675 1.6538 -3.12733
      vertex -2.69754 2.38981 -1.73553
      vertex -1.27795 3.36968 -1.73553
    endloop
  endfacet
  facet normal -0.554609 0.80349 -0.216362
    outer loop
      vertex -1.27795 3.36968 -1.73553
      vertex -2.69754 2.38981 -1.73553
      vertex -1.41842 3.74006 0
    endloop
  endfacet
  facet normal -0.554609 0.80349 -0.216362
    outer loop
      vertex -2.69754 2.38981 -1.73553
      vertex -2.99404 2.65249 0
      vertex -1.41842 3.74006 0
    endloop
  endfacet
  facet normal -0.554609 0.80349 0.216362
    outer loop
      vertex -1.41842 3.74006 0
      vertex -2.99404 2.65249 0
      vertex -1.27795 3.36968 1.73553
    endloop
  endfacet
  facet normal -0.554609 0.80349 0.216362
    outer loop
      vertex -1.27795 3.36968 1.73553
      vertex -2.99404 2.65249 0
      vertex -2.69754 2.38981 1.73553
    endloop
  endfacet
  facet normal -0.449159 0.650719 0.612226
    outer loop
      vertex -1.27795 3.36968 1.73553
      vertex -2.69754 2.38981 1.73553
      vertex -0.88437 2.33189 3.12733
    endloop
  endfacet
  facet normal -0.449159 0.650719 0.612226
    outer loop
      vertex -0.88437 2.33189 3.12733
      vertex -2.69754 2.38981 1.73553
      vertex -1.86675 1.6538 3.12733
    endloop
  endfacet
  facet normal -0.252411 0.365681 0.89586
    outer loop
      vertex -0.88437 2.33189 3.12733
      vertex -1.86675 1.6538 3.12733
      vertex -0.316704 0.832813 3.89918
    endloop
  endfacet
  facet normal -0.252411 0.365681 0.89586
    outer loop
      vertex -0.315938 0.833061 3.89929
      vertex -0.88437 2.33189 3.12733
      vertex -0.316704 0.832813 3.89918
    endloop
  endfacet
  facet normal -0.252411 0.365681 0.89586
    outer loop
      vertex -0.316704 0.832813 3.89918
      vertex -1.86675 1.6538 3.12733
      vertex -0.772781 0.684624 3.83116
    endloop
  endfacet
  facet normal -0.393439 0.206493 0.89586
    outer loop
      vertex -1.86675 1.6538 3.12733
      vertex -2.42149 0.596844 3.12733
      vertex -0.889919 0.591077 3.80128
    endloop
  endfacet
  facet normal -0.393439 0.206493 0.89586
    outer loop
      vertex -0.772781 0.684624 3.83116
      vertex -1.86675 1.6538 3.12733
      vertex -0.889919 0.646564 3.78849
    endloop
  endfacet
  facet normal -0.393439 0.206493 0.89586
    outer loop
      vertex -0.889919 0.646564 3.78849
      vertex -1.86675 1.6538 3.12733
      vertex -0.889919 0.591077 3.80128
    endloop
  endfacet
  facet normal -0.393439 0.206494 0.89586
    outer loop
      vertex -0.889919 0.591077 3.80128
      vertex -2.42149 0.596844 3.12733
      vertex -0.889919 0.219345 3.88697
    endloop
  endfacet
  facet normal -0.444336 0 0.89586
    outer loop
      vertex -2.42149 0.596844 3.12733
      vertex -2.42149 -0.596844 3.12733
      vertex -0.889919 -0.219345 3.88697
    endloop
  endfacet
  facet normal -0.444336 0 0.89586
    outer loop
      vertex -0.889919 0.219345 3.88697
      vertex -2.42149 0.596844 3.12733
      vertex -0.889919 -0.219345 3.88697
    endloop
  endfacet
  facet normal -0.39344 -0.206493 0.89586
    outer loop
      vertex -0.889919 -0.219345 3.88697
      vertex -2.42149 -0.596844 3.12733
      vertex -1.86675 -1.6538 3.12733
    endloop
  endfacet
  facet normal -0.39344 -0.206493 0.89586
    outer loop
      vertex -0.889919 -0.249944 3.87991
      vertex -0.889919 -0.219345 3.88697
      vertex -1.86675 -1.6538 3.12733
    endloop
  endfacet
  facet normal 0.346205 -0.912869 -0.216362
    outer loop
      vertex 2.27226 -3.29194 0
      vertex 0.482147 -3.97083 0
      vertex 2.04723 -2.96593 -1.73553
    endloop
  endfacet
  facet normal 0.346205 -0.912869 -0.216362
    outer loop
      vertex 0.482147 -3.97083 0
      vertex 0.434399 -3.5776 -1.73553
      vertex 2.04723 -2.96593 -1.73553
    endloop
  endfacet
  facet normal -0.117682 -0.969195 0.216362
    outer loop
      vertex 0.434399 -3.5776 1.73553
      vertex -1.27795 -3.36968 1.73553
      vertex 0.482147 -3.97083 0
    endloop
  endfacet
  facet normal 0.346205 -0.912869 0.216362
    outer loop
      vertex 2.27226 -3.29194 0
      vertex 0.434399 -3.5776 1.73553
      vertex 0.482147 -3.97083 0
    endloop
  endfacet
  facet normal 0.28038 -0.739301 -0.612226
    outer loop
      vertex 2.04723 -2.96593 -1.73553
      vertex 0.434399 -3.5776 -1.73553
      vertex 1.41673 -2.05249 -3.12733
    endloop
  endfacet
  facet normal 0.28038 -0.739301 -0.612226
    outer loop
      vertex 0.434399 -3.5776 -1.73553
      vertex 0.300614 -2.47578 -3.12733
      vertex 1.41673 -2.05249 -3.12733
    endloop
  endfacet
  facet normal -0.449159 -0.650719 0.612226
    outer loop
      vertex -0.88437 -2.33189 3.12733
      vertex -1.86675 -1.6538 3.12733
      vertex -1.27795 -3.36968 1.73553
    endloop
  endfacet
  facet normal -0.0953063 -0.784918 0.612226
    outer loop
      vertex -0.88437 -2.33189 3.12733
      vertex -1.27795 -3.36968 1.73553
      vertex 0.434399 -3.5776 1.73553
    endloop
  endfacet
  facet normal 0.157564 -0.415461 -0.89586
    outer loop
      vertex 1.41673 -2.05249 -3.12733
      vertex 0.300614 -2.47578 -3.12733
      vertex 0.505625 -0.732525 -3.89971
    endloop
  endfacet
  facet normal 0.157563 -0.415461 -0.89586
    outer loop
      vertex 0.300614 -2.47578 -3.12733
      vertex 0.107288 -0.883594 -3.89971
      vertex 0.505625 -0.732525 -3.89971
    endloop
  endfacet
  facet normal -0.393439 -0.206493 0.895861
    outer loop
      vertex -0.889919 -0.646564 3.78849
      vertex -1.86675 -1.6538 3.12733
      vertex -0.772781 -0.684624 3.83116
    endloop
  endfacet
  facet normal -0.393439 -0.206493 0.895861
    outer loop
      vertex -0.889919 -0.249944 3.87991
      vertex -1.86675 -1.6538 3.12733
      vertex -0.889919 -0.646564 3.78849
    endloop
  endfacet
  facet normal -0.252411 -0.365681 0.89586
    outer loop
      vertex -0.772781 -0.684624 3.83116
      vertex -1.86675 -1.6538 3.12733
      vertex -0.88437 -2.33189 3.12733
    endloop
  endfacet
  facet normal -0.252411 -0.365681 0.89586
    outer loop
      vertex -0.681763 -0.714198 3.84474
      vertex -0.772781 -0.684624 3.83116
      vertex -0.88437 -2.33189 3.12733
    endloop
  endfacet
  facet normal -0 -0 -1
    outer loop
      vertex -0.86422 -0.213011 -3.89971
      vertex -0.86422 0.213011 -3.89971
      vertex -0.666237 -0.590235 -3.89971
    endloop
  endfacet
  facet normal 0 0 -1
    outer loop
      vertex -0.666237 -0.590235 -3.89971
      vertex -0.86422 0.213011 -3.89971
      vertex -0.666237 0.590235 -3.89971
    endloop
  endfacet
  facet normal 0 -0 -1
    outer loop
      vertex -0.666237 -0.590235 -3.89971
      vertex -0.666237 0.590235 -3.89971
      vertex -0.315628 0.832243 -3.89971
    endloop
  endfacet
  facet normal 0 0 -1
    outer loop
      vertex -0.666237 -0.590235 -3.89971
      vertex -0.315628 0.832243 -3.89971
      vertex 0.107288 0.883594 -3.89971
    endloop
  endfacet
  facet normal 0 0 -1
    outer loop
      vertex -0.666237 -0.590235 -3.89971
      vertex 0.107288 0.883594 -3.89971
      vertex 0.505625 0.732525 -3.89971
    endloop
  endfacet
  facet normal 0 0 -1
    outer loop
      vertex -0.666237 -0.590235 -3.89971
      vertex 0.505625 0.732525 -3.89971
      vertex 0.78813 0.413643 -3.89971
    endloop
  endfacet
  facet normal 0 0 -1
    outer loop
      vertex -0.666237 -0.590235 -3.89971
      vertex 0.78813 0.413643 -3.89971
      vertex 0.890084 0 -3.89971
    endloop
  endfacet
  facet normal 0 0 -1
    outer loop
      vertex -0.666237 -0.590235 -3.89971
      vertex 0.890084 0 -3.89971
      vertex 0.78813 -0.413643 -3.89971
    endloop
  endfacet
  facet normal -0 0 -1
    outer loop
      vertex -0.666237 -0.590235 -3.89971
      vertex 0.78813 -0.413643 -3.89971
      vertex 0.505625 -0.732525 -3.89971
    endloop
  endfacet
  facet normal 0 0 -1
    outer loop
      vertex -0.666237 -0.590235 -3.89971
      vertex 0.505625 -0.732525 -3.89971
      vertex 0.107288 -0.883594 -3.89971
    endloop
  endfacet
  facet normal 0 0 -1
    outer loop
      vertex -0.666237 -0.590235 -3.89971
      vertex 0.107288 -0.883594 -3.89971
      vertex -0.315628 -0.832243 -3.89971
    endloop
  endfacet
  facet normal -0.393439 0.206493 -0.895861
    outer loop
      vertex -0.86422 0.213011 -3.89971
      vertex -1.86675 1.6538 -3.12733
      vertex -0.666237 0.590235 -3.89971
    endloop
  endfacet
  facet normal -0.252411 0.365681 -0.89586
    outer loop
      vertex -0.666237 0.590235 -3.89971
      vertex -1.86675 1.6538 -3.12733
      vertex -0.88437 2.33189 -3.12733
    endloop
  endfacet
  facet normal -0.449159 0.650719 -0.612226
    outer loop
      vertex -0.88437 2.33189 -3.12733
      vertex -1.86675 1.6538 -3.12733
      vertex -1.27795 3.36968 -1.73553
    endloop
  endfacet
  facet normal -0.0953063 0.784918 -0.612226
    outer loop
      vertex -0.88437 2.33189 -3.12733
      vertex -1.27795 3.36968 -1.73553
      vertex 0.434399 3.5776 -1.73553
    endloop
  endfacet
  facet normal -0.117682 0.969195 -0.216362
    outer loop
      vertex 0.434399 3.5776 -1.73553
      vertex -1.27795 3.36968 -1.73553
      vertex 0.482147 3.97083 0
    endloop
  endfacet
  facet normal -0.117681 0.969195 -0.216362
    outer loop
      vertex -1.27795 3.36968 -1.73553
      vertex -1.41842 3.74006 0
      vertex 0.482147 3.97083 0
    endloop
  endfacet
  facet normal -0.117681 0.969195 0.216362
    outer loop
      vertex 0.482147 3.97083 0
      vertex -1.41842 3.74006 0
      vertex 0.434399 3.5776 1.73553
    endloop
  endfacet
  facet normal -0.117682 0.969195 0.216362
    outer loop
      vertex 0.434399 3.5776 1.73553
      vertex -1.41842 3.74006 0
      vertex -1.27795 3.36968 1.73553
    endloop
  endfacet
  facet normal -0.0953063 0.784918 0.612226
    outer loop
      vertex 0.434399 3.5776 1.73553
      vertex -1.27795 3.36968 1.73553
      vertex 0.300614 2.47578 3.12733
    endloop
  endfacet
  facet normal -0.0953062 0.784918 0.612226
    outer loop
      vertex 0.300614 2.47578 3.12733
      vertex -1.27795 3.36968 1.73553
      vertex -0.88437 2.33189 3.12733
    endloop
  endfacet
  facet normal -0.0535587 0.441096 0.89586
    outer loop
      vertex 0.300614 2.47578 3.12733
      vertex -0.88437 2.33189 3.12733
      vertex 0.0585697 0.954746 3.86177
    endloop
  endfacet
  facet normal -0.0535587 0.441096 0.89586
    outer loop
      vertex 0.118283 0.974148 3.85578
      vertex 0.300614 2.47578 3.12733
      vertex 0.0585697 0.954746 3.86177
    endloop
  endfacet
  facet normal -0.0535584 0.441096 0.89586
    outer loop
      vertex 0.0585697 0.954746 3.86177
      vertex -0.88437 2.33189 3.12733
      vertex -0.315938 0.833061 3.89929
    endloop
  endfacet
  facet normal 0.309017 -0.951057 0
    outer loop
      vertex 0.339919 1.04616 0
      vertex 0.339919 1.04616 3.78341
      vertex 0.118283 0.974148 3.85578
    endloop
  endfacet
  facet normal 0.309017 -0.951057 -2.6208e-17
    outer loop
      vertex -0.315938 0.833061 3.89929
      vertex 0.339919 1.04616 0
      vertex 0.0585697 0.954746 3.86177
    endloop
  endfacet
  facet normal 0.309017 -0.951057 6.0458e-17
    outer loop
      vertex 0.0585697 0.954746 3.86177
      vertex 0.339919 1.04616 0
      vertex 0.118283 0.974148 3.85578
    endloop
  endfacet
  facet normal 0.309017 -0.951057 1.73778e-15
    outer loop
      vertex -0.316704 0.832813 3.89918
      vertex 0.339919 1.04616 0
      vertex -0.315938 0.833061 3.89929
    endloop
  endfacet
  facet normal 0.309017 -0.951057 0
    outer loop
      vertex -0.772781 0.684624 3.83116
      vertex 0.339919 1.04616 0
      vertex -0.316704 0.832813 3.89918
    endloop
  endfacet
  facet normal 0.309017 -0.951057 -2.02793e-16
    outer loop
      vertex -0.889919 0.646564 3.78849
      vertex 0.339919 1.04616 0
      vertex -0.772781 0.684624 3.83116
    endloop
  endfacet
  facet normal 0.309017 -0.951057 0
    outer loop
      vertex -0.889919 0.646564 0
      vertex 0.339919 1.04616 0
      vertex -0.889919 0.646564 3.78849
    endloop
  endfacet
  facet normal 1 0 0
    outer loop
      vertex -0.889919 0.646564 0
      vertex -0.889919 0.646564 3.78849
      vertex -0.889919 0.591077 3.80128
    endloop
  endfacet
  facet normal 1 0 0
    outer loop
      vertex -0.889919 0.219345 3.88697
      vertex -0.889919 0.646564 0
      vertex -0.889919 0.591077 3.80128
    endloop
  endfacet
  facet normal 1 0 -0
    outer loop
      vertex -0.889919 0.219345 3.88697
      vertex -0.889919 -0.219345 3.88697
      vertex -0.889919 0.646564 0
    endloop
  endfacet
  facet normal 1 0 -0
    outer loop
      vertex -0.889919 -0.219345 3.88697
      vertex -0.889919 -0.249944 3.87991
      vertex -0.889919 0.646564 0
    endloop
  endfacet
  facet normal 1 0 -0
    outer loop
      vertex -0.889919 -0.249944 3.87991
      vertex -0.889919 -0.646564 3.78849
      vertex -0.889919 0.646564 0
    endloop
  endfacet
  facet normal 1 0 -0
    outer loop
      vertex -0.889919 -0.646564 3.78849
      vertex -0.889919 -0.646564 0
      vertex -0.889919 0.646564 0
    endloop
  endfacet
  facet normal 0.730781 -0.647416 -0.216362
    outer loop
      vertex 3.54182 -1.85889 0
      vertex 2.27226 -3.29194 0
      vertex 3.19107 -1.6748 -1.73553
    endloop
  endfacet
  facet normal 0.730781 -0.647415 -0.216362
    outer loop
      vertex 2.27226 -3.29194 0
      vertex 2.04723 -2.96593 -1.73553
      vertex 3.19107 -1.6748 -1.73553
    endloop
  endfacet
  facet normal 0.346205 -0.912869 0.216362
    outer loop
      vertex 2.04723 -2.96593 1.73553
      vertex 0.434399 -3.5776 1.73553
      vertex 2.27226 -3.29194 0
    endloop
  endfacet
  facet normal 0.730781 -0.647416 0.216362
    outer loop
      vertex 3.54182 -1.85889 0
      vertex 2.04723 -2.96593 1.73553
      vertex 2.27226 -3.29194 0
    endloop
  endfacet
  facet normal 0.591835 -0.52432 -0.612226
    outer loop
      vertex 3.19107 -1.6748 -1.73553
      vertex 2.04723 -2.96593 -1.73553
      vertex 2.20829 -1.159 -3.12733
    endloop
  endfacet
  facet normal 0.591834 -0.52432 -0.612226
    outer loop
      vertex 2.04723 -2.96593 -1.73553
      vertex 1.41673 -2.05249 -3.12733
      vertex 2.20829 -1.159 -3.12733
    endloop
  endfacet
  facet normal -0.0953062 -0.784918 0.612226
    outer loop
      vertex 0.300614 -2.47578 3.12733
      vertex -0.88437 -2.33189 3.12733
      vertex 0.434399 -3.5776 1.73553
    endloop
  endfacet
  facet normal 0.28038 -0.739301 0.612226
    outer loop
      vertex 2.04723 -2.96593 1.73553
      vertex 0.300614 -2.47578 3.12733
      vertex 0.434399 -3.5776 1.73553
    endloop
  endfacet
  facet normal 0.33259 -0.294649 -0.89586
    outer loop
      vertex 1.41673 -2.05249 -3.12733
      vertex 0.78813 -0.413643 -3.89971
      vertex 2.20829 -1.159 -3.12733
    endloop
  endfacet
  facet normal 0.33259 -0.294649 -0.89586
    outer loop
      vertex 1.41673 -2.05249 -3.12733
      vertex 0.505625 -0.732525 -3.89971
      vertex 0.78813 -0.413643 -3.89971
    endloop
  endfacet
  facet normal -0.252411 -0.365681 0.89586
    outer loop
      vertex -0.681763 -0.714198 3.84474
      vertex -0.88437 -2.33189 3.12733
      vertex -0.315938 -0.833061 3.89929
    endloop
  endfacet
  facet normal -0.0535587 -0.441096 0.89586
    outer loop
      vertex -0.315938 -0.833061 3.89929
      vertex -0.88437 -2.33189 3.12733
      vertex 0.300614 -2.47578 3.12733
    endloop
  endfacet
  facet normal -0.0535587 -0.441096 0.89586
    outer loop
      vertex -0.315236 -0.83329 3.89922
      vertex -0.315938 -0.833061 3.89929
      vertex 0.300614 -2.47578 3.12733
    endloop
  endfacet
  facet normal 0.309017 0.951057 -9.47377e-16
    outer loop
      vertex -0.772781 -0.684624 3.83116
      vertex -0.681763 -0.714198 3.84474
      vertex -0.889919 -0.646564 3.78849
    endloop
  endfacet
  facet normal 0.309017 0.951057 -6.60271e-15
    outer loop
      vertex -0.889919 -0.646564 3.78849
      vertex -0.681763 -0.714198 3.84474
      vertex -0.315938 -0.833061 3.89929
    endloop
  endfacet
  facet normal 0.309017 0.951057 1.474e-13
    outer loop
      vertex -0.889919 -0.646564 3.78849
      vertex -0.315938 -0.833061 3.89929
      vertex -0.315236 -0.83329 3.89922
    endloop
  endfacet
  facet normal 0.309017 0.951057 -1.10321e-15
    outer loop
      vertex -0.889919 -0.646564 3.78849
      vertex -0.315236 -0.83329 3.89922
      vertex 0.118283 -0.974148 3.85578
    endloop
  endfacet
  facet normal 0.309017 0.951057 3.71713e-15
    outer loop
      vertex -0.889919 -0.646564 3.78849
      vertex 0.118283 -0.974148 3.85578
      vertex 0.260493 -1.02036 3.80934
    endloop
  endfacet
  facet normal 0.309017 0.951057 -2.53538e-15
    outer loop
      vertex -0.889919 -0.646564 3.78849
      vertex 0.260493 -1.02036 3.80934
      vertex 0.339919 -1.04616 3.78341
    endloop
  endfacet
  facet normal 0.309017 0.951057 0
    outer loop
      vertex -0.889919 -0.646564 3.78849
      vertex 0.339919 -1.04616 3.78341
      vertex 0.339919 -1.04616 0
    endloop
  endfacet
  facet normal 0.309017 0.951057 -0
    outer loop
      vertex -0.889919 -0.646564 3.78849
      vertex 0.339919 -1.04616 0
      vertex -0.889919 -0.646564 0
    endloop
  endfacet
  facet normal 0.431424 -0.106337 -0.89586
    outer loop
      vertex 2.20829 -1.159 -3.12733
      vertex 0.78813 -0.413643 -3.89971
      vertex 0.890084 0 -3.89971
    endloop
  endfacet
  facet normal 0.431424 -0.106336 -0.89586
    outer loop
      vertex 2.20829 -1.159 -3.12733
      vertex 0.890084 0 -3.89971
      vertex 2.49396 0 -3.12733
    endloop
  endfacet
  facet normal 0.431424 0.106337 -0.89586
    outer loop
      vertex 0.890084 0 -3.89971
      vertex 0.78813 0.413643 -3.89971
      vertex 2.49396 0 -3.12733
    endloop
  endfacet
  facet normal 0.431424 0.106336 -0.89586
    outer loop
      vertex 2.49396 0 -3.12733
      vertex 0.78813 0.413643 -3.89971
      vertex 2.20829 1.159 -3.12733
    endloop
  endfacet
  facet normal 0.33259 0.294649 -0.89586
    outer loop
      vertex 0.78813 0.413643 -3.89971
      vertex 0.505625 0.732525 -3.89971
      vertex 2.20829 1.159 -3.12733
    endloop
  endfacet
  facet normal 0.33259 0.294649 -0.89586
    outer loop
      vertex 2.20829 1.159 -3.12733
      vertex 0.505625 0.732525 -3.89971
      vertex 1.41673 2.05249 -3.12733
    endloop
  endfacet
  facet normal 0.157563 0.415461 -0.89586
    outer loop
      vertex 0.505625 0.732525 -3.89971
      vertex 0.107288 0.883594 -3.89971
      vertex 1.41673 2.05249 -3.12733
    endloop
  endfacet
  facet normal 0.157564 0.415461 -0.89586
    outer loop
      vertex 1.41673 2.05249 -3.12733
      vertex 0.107288 0.883594 -3.89971
      vertex 0.300614 2.47578 -3.12733
    endloop
  endfacet
  facet normal -0.0535584 0.441096 -0.89586
    outer loop
      vertex 0.107288 0.883594 -3.89971
      vertex -0.315628 0.832243 -3.89971
      vertex 0.300614 2.47578 -3.12733
    endloop
  endfacet
  facet normal -0.0535587 0.441096 -0.89586
    outer loop
      vertex -0.315628 0.832243 -3.89971
      vertex -0.88437 2.33189 -3.12733
      vertex 0.300614 2.47578 -3.12733
    endloop
  endfacet
  facet normal -0.252411 0.365681 -0.89586
    outer loop
      vertex -0.666237 0.590235 -3.89971
      vertex -0.88437 2.33189 -3.12733
      vertex -0.315628 0.832243 -3.89971
    endloop
  endfacet
  facet normal -0.0953062 0.784918 -0.612226
    outer loop
      vertex 0.300614 2.47578 -3.12733
      vertex -0.88437 2.33189 -3.12733
      vertex 0.434399 3.5776 -1.73553
    endloop
  endfacet
  facet normal 0.28038 0.739301 -0.612226
    outer loop
      vertex 2.04723 2.96593 -1.73553
      vertex 0.300614 2.47578 -3.12733
      vertex 0.434399 3.5776 -1.73553
    endloop
  endfacet
  facet normal 0.346205 0.912869 -0.216362
    outer loop
      vertex 2.04723 2.96593 -1.73553
      vertex 0.434399 3.5776 -1.73553
      vertex 2.27226 3.29194 0
    endloop
  endfacet
  facet normal 0.346205 0.912869 -0.216362
    outer loop
      vertex 2.27226 3.29194 0
      vertex 0.434399 3.5776 -1.73553
      vertex 0.482147 3.97083 0
    endloop
  endfacet
  facet normal 0.346205 0.912869 0.216362
    outer loop
      vertex 2.27226 3.29194 0
      vertex 0.482147 3.97083 0
      vertex 2.04723 2.96593 1.73553
    endloop
  endfacet
  facet normal 0.346205 0.912869 0.216362
    outer loop
      vertex 0.482147 3.97083 0
      vertex 0.434399 3.5776 1.73553
      vertex 2.04723 2.96593 1.73553
    endloop
  endfacet
  facet normal 0.28038 0.739301 0.612226
    outer loop
      vertex 2.04723 2.96593 1.73553
      vertex 0.434399 3.5776 1.73553
      vertex 1.41673 2.05249 3.12733
    endloop
  endfacet
  facet normal 0.28038 0.739301 0.612226
    outer loop
      vertex 0.434399 3.5776 1.73553
      vertex 0.300614 2.47578 3.12733
      vertex 1.41673 2.05249 3.12733
    endloop
  endfacet
  facet normal 0.157564 0.415461 0.89586
    outer loop
      vertex 1.41673 2.05249 3.12733
      vertex 0.300614 2.47578 3.12733
      vertex 0.493619 0.834612 3.85448
    endloop
  endfacet
  facet normal 0.157564 0.415461 0.89586
    outer loop
      vertex 0.535911 0.776402 3.87404
      vertex 1.41673 2.05249 3.12733
      vertex 0.493619 0.834612 3.85448
    endloop
  endfacet
  facet normal 0.157563 0.415461 0.89586
    outer loop
      vertex 0.300614 2.47578 3.12733
      vertex 0.118283 0.974148 3.85578
      vertex 0.339919 1.04616 3.78341
    endloop
  endfacet
  facet normal 0.157563 0.415461 0.89586
    outer loop
      vertex 0.493619 0.834612 3.85448
      vertex 0.300614 2.47578 3.12733
      vertex 0.339919 1.04616 3.78341
    endloop
  endfacet
  facet normal 0 0 1
    outer loop
      vertex 0.339919 -1.04616 0
      vertex 1.1 0 0
      vertex 0.339919 1.04616 0
    endloop
  endfacet
  facet normal 0 0 1
    outer loop
      vertex -0.889919 -0.646564 0
      vertex 0.339919 -1.04616 0
      vertex -0.889919 0.646564 0
    endloop
  endfacet
  facet normal 0 0 1
    outer loop
      vertex -0.889919 0.646564 0
      vertex 0.339919 -1.04616 0
      vertex 0.339919 1.04616 0
    endloop
  endfacet
  facet normal -0.809017 -0.587785 0
    outer loop
      vertex 1.1 0 3.79862
      vertex 1.01818 0.112621 3.82466
      vertex 1.1 0 0
    endloop
  endfacet
  facet normal -0.809017 -0.587785 -2.29494e-17
    outer loop
      vertex 1.1 0 0
      vertex 1.01818 0.112621 3.82466
      vertex 0.79634 0.417952 3.89525
    endloop
  endfacet
  facet normal -0.809017 -0.587785 0
    outer loop
      vertex 1.1 0 0
      vertex 0.79634 0.417952 3.89525
      vertex 0.792048 0.423859 3.8949
    endloop
  endfacet
  facet normal -0.809017 -0.587785 -3.08116e-17
    outer loop
      vertex 1.1 0 0
      vertex 0.792048 0.423859 3.8949
      vertex 0.535911 0.776402 3.87404
    endloop
  endfacet
  facet normal -0.809017 -0.587785 -3.5004e-16
    outer loop
      vertex 1.1 0 0
      vertex 0.535911 0.776402 3.87404
      vertex 0.493619 0.834612 3.85448
    endloop
  endfacet
  facet normal -0.809017 -0.587785 0
    outer loop
      vertex 1.1 0 0
      vertex 0.493619 0.834612 3.85448
      vertex 0.339919 1.04616 3.78341
    endloop
  endfacet
  facet normal -0.809017 -0.587785 0
    outer loop
      vertex 1.1 0 0
      vertex 0.339919 1.04616 3.78341
      vertex 0.339919 1.04616 0
    endloop
  endfacet
  facet normal 0.947943 -0.233647 -0.216362
    outer loop
      vertex 4 0 0
      vertex 3.54182 -1.85889 0
      vertex 3.60387 0 -1.73553
    endloop
  endfacet
  facet normal 0.947943 -0.233647 -0.216362
    outer loop
      vertex 3.54182 -1.85889 0
      vertex 3.19107 -1.6748 -1.73553
      vertex 3.60387 0 -1.73553
    endloop
  endfacet
  facet normal 0.730781 -0.647415 0.216362
    outer loop
      vertex 3.19107 -1.6748 1.73553
      vertex 2.04723 -2.96593 1.73553
      vertex 3.54182 -1.85889 0
    endloop
  endfacet
  facet normal 0.947943 -0.233647 0.216362
    outer loop
      vertex 4 0 0
      vertex 3.19107 -1.6748 1.73553
      vertex 3.54182 -1.85889 0
    endloop
  endfacet
  facet normal 0.767707 -0.189223 -0.612226
    outer loop
      vertex 3.19107 -1.6748 -1.73553
      vertex 2.49396 0 -3.12733
      vertex 3.60387 0 -1.73553
    endloop
  endfacet
  facet normal 0.767707 -0.189223 -0.612226
    outer loop
      vertex 3.19107 -1.6748 -1.73553
      vertex 2.20829 -1.159 -3.12733
      vertex 2.49396 0 -3.12733
    endloop
  endfacet
  facet normal 0.28038 -0.739301 0.612226
    outer loop
      vertex 1.41673 -2.05249 3.12733
      vertex 0.300614 -2.47578 3.12733
      vertex 2.04723 -2.96593 1.73553
    endloop
  endfacet
  facet normal 0.591835 -0.524319 0.612226
    outer loop
      vertex 3.19107 -1.6748 1.73553
      vertex 1.41673 -2.05249 3.12733
      vertex 2.04723 -2.96593 1.73553
    endloop
  endfacet
  facet normal -0.0535584 -0.441096 0.89586
    outer loop
      vertex 0.118283 -0.974148 3.85578
      vertex -0.315236 -0.83329 3.89922
      vertex 0.300614 -2.47578 3.12733
    endloop
  endfacet
  facet normal 0.157564 -0.415461 0.89586
    outer loop
      vertex 0.260493 -1.02036 3.80934
      vertex 0.118283 -0.974148 3.85578
      vertex 0.300614 -2.47578 3.12733
    endloop
  endfacet
  facet normal 0.157564 -0.415461 0.89586
    outer loop
      vertex 1.41673 -2.05249 3.12733
      vertex 0.260493 -1.02036 3.80934
      vertex 0.300614 -2.47578 3.12733
    endloop
  endfacet
  facet normal -0.809017 0.587785 4.2764e-15
    outer loop
      vertex 0.535911 -0.776402 3.87404
      vertex 0.558219 -0.745698 3.87585
      vertex 0.339919 -1.04616 3.78341
    endloop
  endfacet
  facet normal -0.809017 0.587785 -1.44841e-15
    outer loop
      vertex 0.339919 -1.04616 3.78341
      vertex 0.558219 -0.745698 3.87585
      vertex 0.79634 -0.417952 3.89525
    endloop
  endfacet
  facet normal -0.809017 0.587785 -1.84725e-14
    outer loop
      vertex 0.339919 -1.04616 3.78341
      vertex 0.79634 -0.417952 3.89525
      vertex 0.801896 -0.410305 3.89348
    endloop
  endfacet
  facet normal -0.809017 0.587785 -4.65981e-16
    outer loop
      vertex 0.339919 -1.04616 3.78341
      vertex 0.801896 -0.410305 3.89348
      vertex 1.1 0 3.79862
    endloop
  endfacet
  facet normal -0.809017 0.587785 0
    outer loop
      vertex 0.339919 -1.04616 3.78341
      vertex 1.1 0 3.79862
      vertex 1.1 0 0
    endloop
  endfacet
  facet normal -0.809017 0.587785 0
    outer loop
      vertex 0.339919 -1.04616 3.78341
      vertex 1.1 0 0
      vertex 0.339919 -1.04616 0
    endloop
  endfacet
  facet normal 0.157563 -0.415461 0.89586
    outer loop
      vertex 0.339919 -1.04616 3.78341
      vertex 0.260493 -1.02036 3.80934
      vertex 1.41673 -2.05249 3.12733
    endloop
  endfacet
  facet normal 0.157563 -0.415461 0.89586
    outer loop
      vertex 0.535911 -0.776402 3.87404
      vertex 0.339919 -1.04616 3.78341
      vertex 1.41673 -2.05249 3.12733
    endloop
  endfacet
  facet normal 0.767707 0.189223 -0.612226
    outer loop
      vertex 2.49396 0 -3.12733
      vertex 2.20829 1.159 -3.12733
      vertex 3.60387 0 -1.73553
    endloop
  endfacet
  facet normal 0.767707 0.189223 -0.612226
    outer loop
      vertex 3.60387 0 -1.73553
      vertex 2.20829 1.159 -3.12733
      vertex 3.19107 1.6748 -1.73553
    endloop
  endfacet
  facet normal 0.591835 0.52432 -0.612226
    outer loop
      vertex 2.20829 1.159 -3.12733
      vertex 1.41673 2.05249 -3.12733
      vertex 3.19107 1.6748 -1.73553
    endloop
  endfacet
  facet normal 0.591835 0.524319 -0.612226
    outer loop
      vertex 3.19107 1.6748 -1.73553
      vertex 1.41673 2.05249 -3.12733
      vertex 2.04723 2.96593 -1.73553
    endloop
  endfacet
  facet normal 0.28038 0.739301 -0.612226
    outer loop
      vertex 1.41673 2.05249 -3.12733
      vertex 0.300614 2.47578 -3.12733
      vertex 2.04723 2.96593 -1.73553
    endloop
  endfacet
  facet normal 0.730781 0.647415 -0.216362
    outer loop
      vertex 3.19107 1.6748 -1.73553
      vertex 2.04723 2.96593 -1.73553
      vertex 3.54182 1.85889 0
    endloop
  endfacet
  facet normal 0.730781 0.647416 -0.216362
    outer loop
      vertex 3.54182 1.85889 0
      vertex 2.04723 2.96593 -1.73553
      vertex 2.27226 3.29194 0
    endloop
  endfacet
  facet normal 0.730781 0.647416 0.216362
    outer loop
      vertex 3.54182 1.85889 0
      vertex 2.27226 3.29194 0
      vertex 3.19107 1.6748 1.73553
    endloop
  endfacet
  facet normal 0.730781 0.647415 0.216362
    outer loop
      vertex 2.27226 3.29194 0
      vertex 2.04723 2.96593 1.73553
      vertex 3.19107 1.6748 1.73553
    endloop
  endfacet
  facet normal 0.591835 0.52432 0.612226
    outer loop
      vertex 3.19107 1.6748 1.73553
      vertex 2.04723 2.96593 1.73553
      vertex 2.20829 1.159 3.12733
    endloop
  endfacet
  facet normal 0.591834 0.52432 0.612226
    outer loop
      vertex 2.04723 2.96593 1.73553
      vertex 1.41673 2.05249 3.12733
      vertex 2.20829 1.159 3.12733
    endloop
  endfacet
  facet normal 0.33259 0.294649 0.89586
    outer loop
      vertex 1.41673 2.05249 3.12733
      vertex 0.792048 0.423859 3.8949
      vertex 0.79634 0.417952 3.89525
    endloop
  endfacet
  facet normal 0.33259 0.294649 0.89586
    outer loop
      vertex 2.20829 1.159 3.12733
      vertex 1.41673 2.05249 3.12733
      vertex 0.79634 0.417952 3.89525
    endloop
  endfacet
  facet normal 0.33259 0.294649 0.89586
    outer loop
      vertex 1.41673 2.05249 3.12733
      vertex 0.535911 0.776402 3.87404
      vertex 0.792048 0.423859 3.8949
    endloop
  endfacet
  facet normal 0.431424 0.106337 0.89586
    outer loop
      vertex 2.20829 1.159 3.12733
      vertex 0.79634 0.417952 3.89525
      vertex 1.01818 0.112621 3.82466
    endloop
  endfacet
  facet normal 0.431424 0.106336 0.89586
    outer loop
      vertex 2.20829 1.159 3.12733
      vertex 1.01818 0.112621 3.82466
      vertex 1.1 0 3.79862
    endloop
  endfacet
  facet normal 0.431424 0.106336 0.89586
    outer loop
      vertex 2.49396 0 3.12733
      vertex 2.20829 1.159 3.12733
      vertex 1.1 0 3.79862
    endloop
  endfacet
  facet normal 0.431424 -0.106337 0.89586
    outer loop
      vertex 1.1 0 3.79862
      vertex 0.801896 -0.410305 3.89348
      vertex 2.49396 0 3.12733
    endloop
  endfacet
  facet normal 0.947943 -0.233647 0.216362
    outer loop
      vertex 3.60387 0 1.73553
      vertex 3.19107 -1.6748 1.73553
      vertex 4 0 0
    endloop
  endfacet
  facet normal 0.947943 0.233647 0.216362
    outer loop
      vertex 4 0 0
      vertex 3.54182 1.85889 0
      vertex 3.60387 0 1.73553
    endloop
  endfacet
  facet normal 0.947943 0.233647 -0.216362
    outer loop
      vertex 4 0 0
      vertex 3.19107 1.6748 -1.73553
      vertex 3.54182 1.85889 0
    endloop
  endfacet
  facet normal 0.947943 0.233647 -0.216362
    outer loop
      vertex 3.60387 0 -1.73553
      vertex 3.19107 1.6748 -1.73553
      vertex 4 0 0
    endloop
  endfacet
  facet normal 0.591835 -0.52432 0.612226
    outer loop
      vertex 2.20829 -1.159 3.12733
      vertex 1.41673 -2.05249 3.12733
      vertex 3.19107 -1.6748 1.73553
    endloop
  endfacet
  facet normal 0.767707 -0.189223 0.612226
    outer loop
      vertex 3.60387 0 1.73553
      vertex 2.20829 -1.159 3.12733
      vertex 3.19107 -1.6748 1.73553
    endloop
  endfacet
  facet normal 0.33259 -0.294649 0.89586
    outer loop
      vertex 0.558219 -0.745698 3.87585
      vertex 0.535911 -0.776402 3.87404
      vertex 1.41673 -2.05249 3.12733
    endloop
  endfacet
  facet normal 0.33259 -0.294649 0.89586
    outer loop
      vertex 2.20829 -1.159 3.12733
      vertex 0.558219 -0.745698 3.87585
      vertex 1.41673 -2.05249 3.12733
    endloop
  endfacet
  facet normal 0.431424 -0.106336 0.89586
    outer loop
      vertex 0.801896 -0.410305 3.89348
      vertex 0.79634 -0.417952 3.89525
      vertex 2.20829 -1.159 3.12733
    endloop
  endfacet
  facet normal 0.431424 -0.106336 0.89586
    outer loop
      vertex 2.49396 0 3.12733
      vertex 0.801896 -0.410305 3.89348
      vertex 2.20829 -1.159 3.12733
    endloop
  endfacet
  facet normal 0.33259 -0.294649 0.89586
    outer loop
      vertex 0.79634 -0.417952 3.89525
      vertex 0.558219 -0.745698 3.87585
      vertex 2.20829 -1.159 3.12733
    endloop
  endfacet
  facet normal 0.947943 0.233647 0.216362
    outer loop
      vertex 3.54182 1.85889 0
      vertex 3.19107 1.6748 1.73553
      vertex 3.60387 0 1.73553
    endloop
  endfacet
  facet normal 0.767707 0.189223 0.612226
    outer loop
      vertex 3.19107 1.6748 1.73553
      vertex 2.49396 0 3.12733
      vertex 3.60387 0 1.73553
    endloop
  endfacet
  facet normal 0.767707 0.189223 0.612226
    outer loop
      vertex 3.19107 1.6748 1.73553
      vertex 2.20829 1.159 3.12733
      vertex 2.49396 0 3.12733
    endloop
  endfacet
  facet normal 0.767707 -0.189223 0.612226
    outer loop
      vertex 2.49396 0 3.12733
      vertex 2.20829 -1.159 3.12733
      vertex 3.60387 0 1.73553
    endloop
  endfacet
endsolid OpenSCAD_Model
