solid OpenSCAD_Model
  facet normal -0.5 0.866025 0
    outer loop
      vertex -4.60696 -0.0205136 -4
      vertex -4.60696 -0.0205136 4
      vertex -4.57143 0 -4
    endloop
  endfacet
  facet normal -0.5 0.866025 0
    outer loop
      vertex -4.57143 0 -4
      vertex -4.60696 -0.0205136 4
      vertex -4.57143 0 4
    endloop
  endfacet
  facet normal -0.866025 -0.5 -0
    outer loop
      vertex -4.60696 -0.0205136 -4
      vertex -2.32124 -3.97949 -4
      vertex -4.60696 -0.0205136 4
    endloop
  endfacet
  facet normal -0.866025 -0.5 0
    outer loop
      vertex -4.60696 -0.0205136 4
      vertex -2.32124 -3.97949 -4
      vertex -2.32124 -3.97949 4
    endloop
  endfacet
  facet normal -0 0 -1
    outer loop
      vertex -4.60696 -0.0205136 -4
      vertex -4.57143 0 -4
      vertex -2.32124 -3.97949 -4
    endloop
  endfacet
  facet normal 0 0 -1
    outer loop
      vertex -2.32124 3.97949 -4
      vertex -4.57143 0 -4
      vertex -4.60696 0.0205136 -4
    endloop
  endfacet
  facet normal 0 0 -1
    outer loop
      vertex -2.32124 -3.97949 -4
      vertex -4.57143 0 -4
      vertex -2.32124 3.97949 -4
    endloop
  endfacet
  facet normal 0 -0 -1
    outer loop
      vertex -2.32124 -3.97949 -4
      vertex -2.32124 3.97949 -4
      vertex -2.28571 3.95897 -4
    endloop
  endfacet
  facet normal 0 -0 -1
    outer loop
      vertex -2.28571 3.95897 -4
      vertex -2.28571 4 -4
      vertex 2.28571 4 -4
    endloop
  endfacet
  facet normal 0 -0 -1
    outer loop
      vertex 4.57143 0 -4
      vertex 2.32124 3.97949 -4
      vertex 4.60696 0.0205136 -4
    endloop
  endfacet
  facet normal -0 0 -1
    outer loop
      vertex 0.468357 0.99531 -4
      vertex 2.32124 3.97949 -4
      vertex 0.589409 0.928761 -4
    endloop
  endfacet
  facet normal 0 0 -1
    outer loop
      vertex -0.468357 -0.99531 -4
      vertex -2.28571 -3.95897 -4
      vertex -2.32124 -3.97949 -4
    endloop
  endfacet
  facet normal -0 0 -1
    outer loop
      vertex 2.28571 -3.95897 -4
      vertex 4.60696 -0.0205136 -4
      vertex 2.32124 -3.97949 -4
    endloop
  endfacet
  facet normal 0 0 -1
    outer loop
      vertex -0.468357 -0.99531 -4
      vertex -2.32124 -3.97949 -4
      vertex -0.589409 -0.928761 -4
    endloop
  endfacet
  facet normal 0 0 -1
    outer loop
      vertex -2.28571 -3.95897 -4
      vertex 2.28571 -3.95897 -4
      vertex 2.28571 -4 -4
    endloop
  endfacet
  facet normal -0 0 -1
    outer loop
      vertex -2.28571 -3.95897 -4
      vertex 4.60696 -0.0205136 -4
      vertex 2.28571 -3.95897 -4
    endloop
  endfacet
  facet normal 0 0 -1
    outer loop
      vertex 4.57143 0 -4
      vertex 4.60696 -0.0205136 -4
      vertex -2.28571 -3.95897 -4
    endloop
  endfacet
  facet normal 0 0 -1
    outer loop
      vertex -2.28571 3.95897 -4
      vertex -1.1 0 -4
      vertex -2.32124 -3.97949 -4
    endloop
  endfacet
  facet normal 0 0 -1
    outer loop
      vertex -1.1 0 -4
      vertex -1.09133 -0.137867 -4
      vertex -2.32124 -3.97949 -4
    endloop
  endfacet
  facet normal 0 0 -1
    outer loop
      vertex -0.206119 1.08052 -4
      vertex 2.28571 4 -4
      vertex -0.06907 1.09783 -4
    endloop
  endfacet
  facet normal 0 0 -1
    outer loop
      vertex -1.09133 -0.137867 -4
      vertex -1.06544 -0.273559 -4
      vertex -2.32124 -3.97949 -4
    endloop
  endfacet
  facet normal -0 0 -1
    outer loop
      vertex -0.06907 1.09783 -4
      vertex 2.28571 4 -4
      vertex 0.06907 1.09783 -4
    endloop
  endfacet
  facet normal 0 0 -1
    outer loop
      vertex -1.06544 -0.273559 -4
      vertex -1.02275 -0.404937 -4
      vertex -2.32124 -3.97949 -4
    endloop
  endfacet
  facet normal 0 0 -1
    outer loop
      vertex -1.02275 -0.404937 -4
      vertex -0.963937 -0.529929 -4
      vertex -2.32124 -3.97949 -4
    endloop
  endfacet
  facet normal -0 0 -1
    outer loop
      vertex 0.06907 1.09783 -4
      vertex 2.28571 4 -4
      vertex 0.206119 1.08052 -4
    endloop
  endfacet
  facet normal 0 0 -1
    outer loop
      vertex -0.963937 -0.529929 -4
      vertex -0.889919 -0.646564 -4
      vertex -2.32124 -3.97949 -4
    endloop
  endfacet
  facet normal -0 0 -1
    outer loop
      vertex 0.206119 1.08052 -4
      vertex 2.28571 4 -4
      vertex 0.339919 1.04616 -4
    endloop
  endfacet
  facet normal 0 0 -1
    outer loop
      vertex -0.889919 -0.646564 -4
      vertex -0.801865 -0.753002 -4
      vertex -2.32124 -3.97949 -4
    endloop
  endfacet
  facet normal 0 0 -1
    outer loop
      vertex -0.801865 -0.753002 -4
      vertex -0.701166 -0.847565 -4
      vertex -2.32124 -3.97949 -4
    endloop
  endfacet
  facet normal -0 0 -1
    outer loop
      vertex 0.339919 1.04616 -4
      vertex 2.28571 4 -4
      vertex 0.468357 0.99531 -4
    endloop
  endfacet
  facet normal 0 0 -1
    outer loop
      vertex -0.701166 -0.847565 -4
      vertex -0.589409 -0.928761 -4
      vertex -2.32124 -3.97949 -4
    endloop
  endfacet
  facet normal 0 0 -1
    outer loop
      vertex -0.339919 -1.04616 -4
      vertex -2.28571 -3.95897 -4
      vertex -0.468357 -0.99531 -4
    endloop
  endfacet
  facet normal 0 0 -1
    outer loop
      vertex 0.468357 0.99531 -4
      vertex 2.28571 3.95897 -4
      vertex 2.32124 3.97949 -4
    endloop
  endfacet
  facet normal 0 0 -1
    outer loop
      vertex -0.206119 -1.08052 -4
      vertex -2.28571 -3.95897 -4
      vertex -0.339919 -1.04616 -4
    endloop
  endfacet
  facet normal 0 0 -1
    outer loop
      vertex -0.06907 -1.09783 -4
      vertex -2.28571 -3.95897 -4
      vertex -0.206119 -1.08052 -4
    endloop
  endfacet
  facet normal 0 0 -1
    outer loop
      vertex 0.06907 -1.09783 -4
      vertex -2.28571 -3.95897 -4
      vertex -0.06907 -1.09783 -4
    endloop
  endfacet
  facet normal 0 0 -1
    outer loop
      vertex 0.206119 -1.08052 -4
      vertex -2.28571 -3.95897 -4
      vertex 0.06907 -1.09783 -4
    endloop
  endfacet
  facet normal 0 0 -1
    outer loop
      vertex 4.57143 0 -4
      vertex -2.28571 -3.95897 -4
      vertex 0.206119 -1.08052 -4
    endloop
  endfacet
  facet normal 0 0 -1
    outer loop
      vertex 4.57143 0 -4
      vertex 0.206119 -1.08052 -4
      vertex 0.339919 -1.04616 -4
    endloop
  endfacet
  facet normal -0 0 -1
    outer loop
      vertex 0.589409 -0.928761 -4
      vertex 4.57143 0 -4
      vertex 0.468357 -0.99531 -4
    endloop
  endfacet
  facet normal -0 0 -1
    outer loop
      vertex 0.701166 -0.847565 -4
      vertex 4.57143 0 -4
      vertex 0.589409 -0.928761 -4
    endloop
  endfacet
  facet normal -0 0 -1
    outer loop
      vertex 0.801865 -0.753002 -4
      vertex 4.57143 0 -4
      vertex 0.701166 -0.847565 -4
    endloop
  endfacet
  facet normal -0 0 -1
    outer loop
      vertex 0.889919 -0.646564 -4
      vertex 4.57143 0 -4
      vertex 0.801865 -0.753002 -4
    endloop
  endfacet
  facet normal -0 0 -1
    outer loop
      vertex 1.09133 -0.137867 -4
      vertex 2.32124 3.97949 -4
      vertex 1.06544 -0.273559 -4
    endloop
  endfacet
  facet normal 0 0 -1
    outer loop
      vertex 4.57143 0 -4
      vertex 0.889919 -0.646564 -4
      vertex 0.963937 -0.529929 -4
    endloop
  endfacet
  facet normal 0 0 -1
    outer loop
      vertex 4.57143 0 -4
      vertex 0.963937 -0.529929 -4
      vertex 1.02275 -0.404937 -4
    endloop
  endfacet
  facet normal 0 0 -1
    outer loop
      vertex 4.57143 0 -4
      vertex 1.02275 -0.404937 -4
      vertex 1.06544 -0.273559 -4
    endloop
  endfacet
  facet normal 0 0 -1
    outer loop
      vertex 4.57143 0 -4
      vertex 1.06544 -0.273559 -4
      vertex 2.32124 3.97949 -4
    endloop
  endfacet
  facet normal -0 0 -1
    outer loop
      vertex 1.1 0 -4
      vertex 2.32124 3.97949 -4
      vertex 1.09133 -0.137867 -4
    endloop
  endfacet
  facet normal -0 0 -1
    outer loop
      vertex 1.09133 0.137867 -4
      vertex 2.32124 3.97949 -4
      vertex 1.1 0 -4
    endloop
  endfacet
  facet normal -0 0 -1
    outer loop
      vertex 0.589409 0.928761 -4
      vertex 2.32124 3.97949 -4
      vertex 0.701166 0.847565 -4
    endloop
  endfacet
  facet normal 0 -0 -1
    outer loop
      vertex 1.09133 0.137867 -4
      vertex 1.06544 0.273559 -4
      vertex 2.32124 3.97949 -4
    endloop
  endfacet
  facet normal 0 -0 -1
    outer loop
      vertex 1.06544 0.273559 -4
      vertex 1.02275 0.404937 -4
      vertex 2.32124 3.97949 -4
    endloop
  endfacet
  facet normal 0 -0 -1
    outer loop
      vertex 1.02275 0.404937 -4
      vertex 0.963937 0.529929 -4
      vertex 2.32124 3.97949 -4
    endloop
  endfacet
  facet normal 0 -0 -1
    outer loop
      vertex 0.963937 0.529929 -4
      vertex 0.889919 0.646564 -4
      vertex 2.32124 3.97949 -4
    endloop
  endfacet
  facet normal 0 -0 -1
    outer loop
      vertex 0.889919 0.646564 -4
      vertex 0.801865 0.753002 -4
      vertex 2.32124 3.97949 -4
    endloop
  endfacet
  facet normal 0 -0 -1
    outer loop
      vertex 0.801865 0.753002 -4
      vertex 0.701166 0.847565 -4
      vertex 2.32124 3.97949 -4
    endloop
  endfacet
  facet normal -0 0 -1
    outer loop
      vertex 0.468357 -0.99531 -4
      vertex 4.57143 0 -4
      vertex 0.339919 -1.04616 -4
    endloop
  endfacet
  facet normal 0 0 -1
    outer loop
      vertex 0.468357 0.99531 -4
      vertex 2.28571 4 -4
      vertex 2.28571 3.95897 -4
    endloop
  endfacet
  facet normal -0 0 -1
    outer loop
      vertex -2.28571 3.95897 -4
      vertex 2.28571 4 -4
      vertex -0.206119 1.08052 -4
    endloop
  endfacet
  facet normal 0 0 -1
    outer loop
      vertex -2.28571 3.95897 -4
      vertex -0.206119 1.08052 -4
      vertex -0.339919 1.04616 -4
    endloop
  endfacet
  facet normal 0 0 -1
    outer loop
      vertex -2.28571 3.95897 -4
      vertex -0.339919 1.04616 -4
      vertex -0.468357 0.99531 -4
    endloop
  endfacet
  facet normal 0 0 -1
    outer loop
      vertex -2.28571 3.95897 -4
      vertex -0.468357 0.99531 -4
      vertex -0.589409 0.928761 -4
    endloop
  endfacet
  facet normal 0 0 -1
    outer loop
      vertex -2.28571 3.95897 -4
      vertex -0.589409 0.928761 -4
      vertex -0.701166 0.847565 -4
    endloop
  endfacet
  facet normal 0 0 -1
    outer loop
      vertex -2.28571 3.95897 -4
      vertex -0.701166 0.847565 -4
      vertex -0.801865 0.753002 -4
    endloop
  endfacet
  facet normal 0 0 -1
    outer loop
      vertex -2.28571 3.95897 -4
      vertex -0.801865 0.753002 -4
      vertex -0.889919 0.646564 -4
    endloop
  endfacet
  facet normal 0 0 -1
    outer loop
      vertex -2.28571 3.95897 -4
      vertex -0.889919 0.646564 -4
      vertex -0.963937 0.529929 -4
    endloop
  endfacet
  facet normal 0 0 -1
    outer loop
      vertex -2.28571 3.95897 -4
      vertex -0.963937 0.529929 -4
      vertex -1.02275 0.404937 -4
    endloop
  endfacet
  facet normal 0 0 -1
    outer loop
      vertex -2.28571 3.95897 -4
      vertex -1.02275 0.404937 -4
      vertex -1.06544 0.273559 -4
    endloop
  endfacet
  facet normal 0 0 -1
    outer loop
      vertex -2.28571 3.95897 -4
      vertex -1.06544 0.273559 -4
      vertex -1.09133 0.137867 -4
    endloop
  endfacet
  facet normal 0 0 -1
    outer loop
      vertex -2.28571 3.95897 -4
      vertex -1.09133 0.137867 -4
      vertex -1.1 0 -4
    endloop
  endfacet
  facet normal 0 0 -1
    outer loop
      vertex -2.28571 -3.95897 -4
      vertex 2.28571 -4 -4
      vertex -2.28571 -4 -4
    endloop
  endfacet
  facet normal -0.5 -0.866025 0
    outer loop
      vertex -4.60696 0.0205136 4
      vertex -4.60696 0.0205136 -4
      vertex -4.57143 0 -4
    endloop
  endfacet
  facet normal -0.5 -0.866025 0
    outer loop
      vertex -4.57143 0 4
      vertex -4.60696 0.0205136 4
      vertex -4.57143 0 -4
    endloop
  endfacet
  facet normal 0 -0 1
    outer loop
      vertex -4.57143 0 4
      vertex -4.60696 -0.0205136 4
      vertex -2.32124 -3.97949 4
    endloop
  endfacet
  facet normal 0 0 1
    outer loop
      vertex 2.28571 -4 4
      vertex -4.57143 0 4
      vertex -2.28571 -3.95897 4
    endloop
  endfacet
  facet normal -0 0 1
    outer loop
      vertex -2.28571 -3.95897 4
      vertex -4.57143 0 4
      vertex -2.32124 -3.97949 4
    endloop
  endfacet
  facet normal -0 0 1
    outer loop
      vertex 2.28571 -4 4
      vertex -2.28571 -3.95897 4
      vertex -2.28571 -4 4
    endloop
  endfacet
  facet normal -0 0 1
    outer loop
      vertex 2.28571 -3.95897 4
      vertex -4.57143 0 4
      vertex 2.28571 -4 4
    endloop
  endfacet
  facet normal -0 -0 1
    outer loop
      vertex -0.339919 -1.04616 4
      vertex -4.57143 0 4
      vertex 2.28571 -3.95897 4
    endloop
  endfacet
  facet normal 0 0 1
    outer loop
      vertex 4.60696 -0.0205136 4
      vertex 2.28571 -3.95897 4
      vertex 2.32124 -3.97949 4
    endloop
  endfacet
  facet normal 0 -0 1
    outer loop
      vertex 4.57143 0 4
      vertex 1.1 0 4
      vertex 4.60696 -0.0205136 4
    endloop
  endfacet
  facet normal 0 0 1
    outer loop
      vertex 2.28571 4 4
      vertex -4.57143 0 4
      vertex 2.28571 3.95897 4
    endloop
  endfacet
  facet normal 0 -0 1
    outer loop
      vertex 2.32124 3.97949 4
      vertex 2.28571 3.95897 4
      vertex 4.60696 0.0205136 4
    endloop
  endfacet
  facet normal 0 0 1
    outer loop
      vertex -0.589409 0.928761 4
      vertex -0.468357 0.99531 4
      vertex 2.28571 3.95897 4
    endloop
  endfacet
  facet normal -0 0 1
    outer loop
      vertex -2.28571 3.95897 4
      vertex -2.32124 3.97949 4
      vertex -4.60696 0.0205136 4
    endloop
  endfacet
  facet normal 0 0 1
    outer loop
      vertex 2.28571 4 4
      vertex -2.28571 4 4
      vertex -2.28571 3.95897 4
    endloop
  endfacet
  facet normal -0 0 1
    outer loop
      vertex -1.1 0 4
      vertex -1.09133 0.137867 4
      vertex -4.57143 0 4
    endloop
  endfacet
  facet normal 0 0 1
    outer loop
      vertex -0.701166 0.847565 4
      vertex -0.589409 0.928761 4
      vertex 2.28571 3.95897 4
    endloop
  endfacet
  facet normal 0 -0 1
    outer loop
      vertex 1.1 0 4
      vertex 1.09133 -0.137867 4
      vertex 4.60696 -0.0205136 4
    endloop
  endfacet
  facet normal 0 0 1
    outer loop
      vertex -1.06544 0.273559 4
      vertex -4.57143 0 4
      vertex -1.09133 0.137867 4
    endloop
  endfacet
  facet normal 0 0 1
    outer loop
      vertex -1.02275 0.404937 4
      vertex -4.57143 0 4
      vertex -1.06544 0.273559 4
    endloop
  endfacet
  facet normal 0 0 1
    outer loop
      vertex -0.963937 0.529929 4
      vertex -4.57143 0 4
      vertex -1.02275 0.404937 4
    endloop
  endfacet
  facet normal 0 0 1
    outer loop
      vertex -0.468357 0.99531 4
      vertex -0.339919 1.04616 4
      vertex 2.28571 3.95897 4
    endloop
  endfacet
  facet normal 0 0 1
    outer loop
      vertex -0.889919 0.646564 4
      vertex -4.57143 0 4
      vertex -0.963937 0.529929 4
    endloop
  endfacet
  facet normal 0 0 1
    outer loop
      vertex -0.801865 0.753002 4
      vertex -4.57143 0 4
      vertex -0.889919 0.646564 4
    endloop
  endfacet
  facet normal 0 0 1
    outer loop
      vertex 2.28571 3.95897 4
      vertex -4.57143 0 4
      vertex -0.801865 0.753002 4
    endloop
  endfacet
  facet normal 0 0 1
    outer loop
      vertex 2.28571 3.95897 4
      vertex -0.801865 0.753002 4
      vertex -0.701166 0.847565 4
    endloop
  endfacet
  facet normal 0 0 1
    outer loop
      vertex 1.09133 0.137867 4
      vertex 1.1 0 4
      vertex 4.60696 0.0205136 4
    endloop
  endfacet
  facet normal 0 0 1
    outer loop
      vertex -0.339919 1.04616 4
      vertex -0.206119 1.08052 4
      vertex 2.28571 3.95897 4
    endloop
  endfacet
  facet normal 0 0 1
    outer loop
      vertex 0.339919 1.04616 4
      vertex 0.468357 0.99531 4
      vertex 4.60696 0.0205136 4
    endloop
  endfacet
  facet normal 0 0 1
    outer loop
      vertex 0.589409 0.928761 4
      vertex 0.701166 0.847565 4
      vertex 4.60696 0.0205136 4
    endloop
  endfacet
  facet normal 0 0 1
    outer loop
      vertex 2.28571 3.95897 4
      vertex -0.206119 1.08052 4
      vertex -0.06907 1.09783 4
    endloop
  endfacet
  facet normal 0 0 1
    outer loop
      vertex 0.468357 0.99531 4
      vertex 0.589409 0.928761 4
      vertex 4.60696 0.0205136 4
    endloop
  endfacet
  facet normal 0 0 1
    outer loop
      vertex 2.28571 3.95897 4
      vertex -0.06907 1.09783 4
      vertex 0.06907 1.09783 4
    endloop
  endfacet
  facet normal 0 -0 1
    outer loop
      vertex 2.28571 3.95897 4
      vertex 0.206119 1.08052 4
      vertex 4.60696 0.0205136 4
    endloop
  endfacet
  facet normal 0 0 1
    outer loop
      vertex 2.28571 3.95897 4
      vertex 0.06907 1.09783 4
      vertex 0.206119 1.08052 4
    endloop
  endfacet
  facet normal 0 0 1
    outer loop
      vertex 0.206119 1.08052 4
      vertex 0.339919 1.04616 4
      vertex 4.60696 0.0205136 4
    endloop
  endfacet
  facet normal 0 0 1
    outer loop
      vertex 0.701166 0.847565 4
      vertex 0.801865 0.753002 4
      vertex 4.60696 0.0205136 4
    endloop
  endfacet
  facet normal 0 0 1
    outer loop
      vertex 0.801865 0.753002 4
      vertex 0.889919 0.646564 4
      vertex 4.60696 0.0205136 4
    endloop
  endfacet
  facet normal 0 0 1
    outer loop
      vertex 0.889919 0.646564 4
      vertex 0.963937 0.529929 4
      vertex 4.60696 0.0205136 4
    endloop
  endfacet
  facet normal 0 0 1
    outer loop
      vertex 0.963937 0.529929 4
      vertex 1.02275 0.404937 4
      vertex 4.60696 0.0205136 4
    endloop
  endfacet
  facet normal 0 0 1
    outer loop
      vertex 1.02275 0.404937 4
      vertex 1.06544 0.273559 4
      vertex 4.60696 0.0205136 4
    endloop
  endfacet
  facet normal 0 0 1
    outer loop
      vertex 1.06544 0.273559 4
      vertex 1.09133 0.137867 4
      vertex 4.60696 0.0205136 4
    endloop
  endfacet
  facet normal 0 0 1
    outer loop
      vertex 4.60696 0.0205136 4
      vertex 1.1 0 4
      vertex 4.57143 0 4
    endloop
  endfacet
  facet normal 0 0 1
    outer loop
      vertex 4.60696 -0.0205136 4
      vertex 1.09133 -0.137867 4
      vertex 2.28571 -3.95897 4
    endloop
  endfacet
  facet normal 0 -0 1
    outer loop
      vertex 1.09133 -0.137867 4
      vertex 1.06544 -0.273559 4
      vertex 2.28571 -3.95897 4
    endloop
  endfacet
  facet normal 0 -0 1
    outer loop
      vertex 1.06544 -0.273559 4
      vertex 1.02275 -0.404937 4
      vertex 2.28571 -3.95897 4
    endloop
  endfacet
  facet normal 0 -0 1
    outer loop
      vertex 1.02275 -0.404937 4
      vertex 0.963937 -0.529929 4
      vertex 2.28571 -3.95897 4
    endloop
  endfacet
  facet normal 0 -0 1
    outer loop
      vertex 0.963937 -0.529929 4
      vertex 0.889919 -0.646564 4
      vertex 2.28571 -3.95897 4
    endloop
  endfacet
  facet normal 0 -0 1
    outer loop
      vertex 0.889919 -0.646564 4
      vertex 0.801865 -0.753002 4
      vertex 2.28571 -3.95897 4
    endloop
  endfacet
  facet normal 0 -0 1
    outer loop
      vertex 0.801865 -0.753002 4
      vertex 0.701166 -0.847565 4
      vertex 2.28571 -3.95897 4
    endloop
  endfacet
  facet normal 0 -0 1
    outer loop
      vertex 0.701166 -0.847565 4
      vertex 0.589409 -0.928761 4
      vertex 2.28571 -3.95897 4
    endloop
  endfacet
  facet normal 0 -0 1
    outer loop
      vertex 0.589409 -0.928761 4
      vertex 0.468357 -0.99531 4
      vertex 2.28571 -3.95897 4
    endloop
  endfacet
  facet normal 0 -0 1
    outer loop
      vertex 0.468357 -0.99531 4
      vertex 0.339919 -1.04616 4
      vertex 2.28571 -3.95897 4
    endloop
  endfacet
  facet normal 0 -0 1
    outer loop
      vertex 0.339919 -1.04616 4
      vertex 0.206119 -1.08052 4
      vertex 2.28571 -3.95897 4
    endloop
  endfacet
  facet normal 0 -0 1
    outer loop
      vertex 0.206119 -1.08052 4
      vertex 0.06907 -1.09783 4
      vertex 2.28571 -3.95897 4
    endloop
  endfacet
  facet normal 0 -0 1
    outer loop
      vertex 0.06907 -1.09783 4
      vertex -0.06907 -1.09783 4
      vertex 2.28571 -3.95897 4
    endloop
  endfacet
  facet normal -0 -0 1
    outer loop
      vertex -0.06907 -1.09783 4
      vertex -0.206119 -1.08052 4
      vertex 2.28571 -3.95897 4
    endloop
  endfacet
  facet normal -0 -0 1
    outer loop
      vertex -0.468357 -0.99531 4
      vertex -4.57143 0 4
      vertex -0.339919 -1.04616 4
    endloop
  endfacet
  facet normal -0 -0 1
    outer loop
      vertex -0.589409 -0.928761 4
      vertex -4.57143 0 4
      vertex -0.468357 -0.99531 4
    endloop
  endfacet
  facet normal -0 -0 1
    outer loop
      vertex -0.701166 -0.847565 4
      vertex -4.57143 0 4
      vertex -0.589409 -0.928761 4
    endloop
  endfacet
  facet normal -0 -0 1
    outer loop
      vertex -0.801865 -0.753002 4
      vertex -4.57143 0 4
      vertex -0.701166 -0.847565 4
    endloop
  endfacet
  facet normal -0 -0 1
    outer loop
      vertex -0.889919 -0.646564 4
      vertex -4.57143 0 4
      vertex -0.801865 -0.753002 4
    endloop
  endfacet
  facet normal -0 -0 1
    outer loop
      vertex -0.963937 -0.529929 4
      vertex -4.57143 0 4
      vertex -0.889919 -0.646564 4
    endloop
  endfacet
  facet normal -0 -0 1
    outer loop
      vertex -1.02275 -0.404937 4
      vertex -4.57143 0 4
      vertex -0.963937 -0.529929 4
    endloop
  endfacet
  facet normal -0 -0 1
    outer loop
      vertex -1.06544 -0.273559 4
      vertex -4.57143 0 4
      vertex -1.02275 -0.404937 4
    endloop
  endfacet
  facet normal -0 -0 1
    outer loop
      vertex -1.09133 -0.137867 4
      vertex -4.57143 0 4
      vertex -1.06544 -0.273559 4
    endloop
  endfacet
  facet normal -0 -0 1
    outer loop
      vertex -0.206119 -1.08052 4
      vertex -0.339919 -1.04616 4
      vertex 2.28571 -3.95897 4
    endloop
  endfacet
  facet normal 0 0 1
    outer loop
      vertex -1.09133 -0.137867 4
      vertex -1.1 0 4
      vertex -4.57143 0 4
    endloop
  endfacet
  facet normal 0 0 1
    outer loop
      vertex -4.60696 0.0205136 4
      vertex 2.28571 4 4
      vertex -2.28571 3.95897 4
    endloop
  endfacet
  facet normal 0 0 1
    outer loop
      vertex -4.60696 0.0205136 4
      vertex -4.57143 0 4
      vertex 2.28571 4 4
    endloop
  endfacet
  facet normal 0.5 -0.866025 0
    outer loop
      vertex -2.32124 -3.97949 4
      vertex -2.32124 -3.97949 -4
      vertex -2.28571 -3.95897 -4
    endloop
  endfacet
  facet normal 0.5 -0.866025 0
    outer loop
      vertex -2.28571 -3.95897 4
      vertex -2.32124 -3.97949 4
      vertex -2.28571 -3.95897 -4
    endloop
  endfacet
  facet normal -1 -0 -0
    outer loop
      vertex -2.28571 -4 -4
      vertex -2.28571 -4 4
      vertex -2.28571 -3.95897 -4
    endloop
  endfacet
  facet normal -1 0 0
    outer loop
      vertex -2.28571 -3.95897 -4
      vertex -2.28571 -4 4
      vertex -2.28571 -3.95897 4
    endloop
  endfacet
  facet normal 0 -1 0
    outer loop
      vertex -2.28571 -4 4
      vertex -2.28571 -4 -4
      vertex 2.28571 -4 -4
    endloop
  endfacet
  facet normal 0 -1 0
    outer loop
      vertex 2.28571 -4 4
      vertex -2.28571 -4 4
      vertex 2.28571 -4 -4
    endloop
  endfacet
  facet normal 1 0 -0
    outer loop
      vertex 2.28571 -4 4
      vertex 2.28571 -4 -4
      vertex 2.28571 -3.95897 -4
    endloop
  endfacet
  facet normal 1 0 0
    outer loop
      vertex 2.28571 -3.95897 4
      vertex 2.28571 -4 4
      vertex 2.28571 -3.95897 -4
    endloop
  endfacet
  facet normal -0.5 -0.866025 0
    outer loop
      vertex 2.28571 -3.95897 4
      vertex 2.28571 -3.95897 -4
      vertex 2.32124 -3.97949 -4
    endloop
  endfacet
  facet normal -0.5 -0.866025 0
    outer loop
      vertex 2.32124 -3.97949 4
      vertex 2.28571 -3.95897 4
      vertex 2.32124 -3.97949 -4
    endloop
  endfacet
  facet normal 0.866025 -0.5 0
    outer loop
      vertex 2.32124 -3.97949 4
      vertex 2.32124 -3.97949 -4
      vertex 4.60696 -0.0205136 -4
    endloop
  endfacet
  facet normal 0.866025 -0.5 0
    outer loop
      vertex 4.60696 -0.0205136 4
      vertex 2.32124 -3.97949 4
      vertex 4.60696 -0.0205136 -4
    endloop
  endfacet
  facet normal 0.5 0.866025 0
    outer loop
      vertex 4.57143 0 -4
      vertex 4.57143 0 4
      vertex 4.60696 -0.0205136 -4
    endloop
  endfacet
  facet normal 0.5 0.866025 0
    outer loop
      vertex 4.60696 -0.0205136 -4
      vertex 4.57143 0 4
      vertex 4.60696 -0.0205136 4
    endloop
  endfacet
  facet normal 0.5 -0.866025 0
    outer loop
      vertex 4.57143 0 4
      vertex 4.57143 0 -4
      vertex 4.60696 0.0205136 -4
    endloop
  endfacet
  facet normal 0.5 -0.866025 0
    outer loop
      vertex 4.60696 0.0205136 4
      vertex 4.57143 0 4
      vertex 4.60696 0.0205136 -4
    endloop
  endfacet
  facet normal 0.866025 0.5 0
    outer loop
      vertex 4.60696 0.0205136 -4
      vertex 2.32124 3.97949 -4
      vertex 2.32124 3.97949 4
    endloop
  endfacet
  facet normal 0.866025 0.5 -0
    outer loop
      vertex 4.60696 0.0205136 4
      vertex 4.60696 0.0205136 -4
      vertex 2.32124 3.97949 4
    endloop
  endfacet
  facet normal -0.5 0.866025 0
    outer loop
      vertex 2.28571 3.95897 -4
      vertex 2.28571 3.95897 4
      vertex 2.32124 3.97949 -4
    endloop
  endfacet
  facet normal -0.5 0.866025 0
    outer loop
      vertex 2.32124 3.97949 -4
      vertex 2.28571 3.95897 4
      vertex 2.32124 3.97949 4
    endloop
  endfacet
  facet normal 1 0 -0
    outer loop
      vertex 2.28571 3.95897 4
      vertex 2.28571 3.95897 -4
      vertex 2.28571 4 -4
    endloop
  endfacet
  facet normal 1 0 0
    outer loop
      vertex 2.28571 4 4
      vertex 2.28571 3.95897 4
      vertex 2.28571 4 -4
    endloop
  endfacet
  facet normal 0 1 0
    outer loop
      vertex -2.28571 4 -4
      vertex -2.28571 4 4
      vertex 2.28571 4 -4
    endloop
  endfacet
  facet normal 0 1 0
    outer loop
      vertex 2.28571 4 -4
      vertex -2.28571 4 4
      vertex 2.28571 4 4
    endloop
  endfacet
  facet normal -1 -0 -0
    outer loop
      vertex -2.28571 3.95897 -4
      vertex -2.28571 3.95897 4
      vertex -2.28571 4 -4
    endloop
  endfacet
  facet normal -1 0 0
    outer loop
      vertex -2.28571 4 -4
      vertex -2.28571 3.95897 4
      vertex -2.28571 4 4
    endloop
  endfacet
  facet normal 0.5 0.866025 0
    outer loop
      vertex -2.32124 3.97949 -4
      vertex -2.32124 3.97949 4
      vertex -2.28571 3.95897 -4
    endloop
  endfacet
  facet normal 0.5 0.866025 0
    outer loop
      vertex -2.28571 3.95897 -4
      vertex -2.32124 3.97949 4
      vertex -2.28571 3.95897 4
    endloop
  endfacet
  facet normal -0.866025 0.5 0
    outer loop
      vertex -4.60696 0.0205136 -4
      vertex -4.60696 0.0205136 4
      vertex -2.32124 3.97949 -4
    endloop
  endfacet
  facet normal -0.866025 0.5 0
    outer loop
      vertex -2.32124 3.97949 -4
      vertex -4.60696 0.0205136 4
      vertex -2.32124 3.97949 4
    endloop
  endfacet
  facet normal 0.998027 -0.0627916 0
    outer loop
      vertex -1.09133 0.137867 -4
      vertex -1.09133 0.137867 4
      vertex -1.1 0 4
    endloop
  endfacet
  facet normal 0.998027 -0.0627916 0
    outer loop
      vertex -1.1 0 -4
      vertex -1.09133 0.137867 -4
      vertex -1.1 0 4
    endloop
  endfacet
  facet normal 0.998027 0.0627916 0
    outer loop
      vertex -1.1 0 4
      vertex -1.09133 -0.137867 4
      vertex -1.09133 -0.137867 -4
    endloop
  endfacet
  facet normal 0.998027 0.0627916 0
    outer loop
      vertex -1.1 0 -4
      vertex -1.1 0 4
      vertex -1.09133 -0.137867 -4
    endloop
  endfacet
  facet normal 0.982287 -0.187384 0
    outer loop
      vertex -1.06544 0.273559 -4
      vertex -1.06544 0.273559 4
      vertex -1.09133 0.137867 4
    endloop
  endfacet
  facet normal 0.982287 -0.187384 0
    outer loop
      vertex -1.09133 0.137867 -4
      vertex -1.06544 0.273559 -4
      vertex -1.09133 0.137867 4
    endloop
  endfacet
  facet normal 0.951057 -0.309015 0
    outer loop
      vertex -1.02275 0.404937 -4
      vertex -1.02275 0.404937 4
      vertex -1.06544 0.273559 4
    endloop
  endfacet
  facet normal 0.951057 -0.309015 0
    outer loop
      vertex -1.06544 0.273559 -4
      vertex -1.02275 0.404937 -4
      vertex -1.06544 0.273559 4
    endloop
  endfacet
  facet normal 0.904826 -0.425781 0
    outer loop
      vertex -0.963937 0.529929 -4
      vertex -0.963937 0.529929 4
      vertex -1.02275 0.404937 4
    endloop
  endfacet
  facet normal 0.904826 -0.425781 0
    outer loop
      vertex -1.02275 0.404937 -4
      vertex -0.963937 0.529929 -4
      vertex -1.02275 0.404937 4
    endloop
  endfacet
  facet normal 0.844331 -0.535823 0
    outer loop
      vertex -0.889919 0.646564 -4
      vertex -0.889919 0.646564 4
      vertex -0.963937 0.529929 4
    endloop
  endfacet
  facet normal 0.844331 -0.535823 0
    outer loop
      vertex -0.963937 0.529929 -4
      vertex -0.889919 0.646564 -4
      vertex -0.963937 0.529929 4
    endloop
  endfacet
  facet normal 0.77051 -0.637428 0
    outer loop
      vertex -0.801865 0.753002 -4
      vertex -0.801865 0.753002 4
      vertex -0.889919 0.646564 4
    endloop
  endfacet
  facet normal 0.77051 -0.637428 0
    outer loop
      vertex -0.889919 0.646564 -4
      vertex -0.801865 0.753002 -4
      vertex -0.889919 0.646564 4
    endloop
  endfacet
  facet normal 0.684548 -0.728967 0
    outer loop
      vertex -0.701166 0.847565 -4
      vertex -0.701166 0.847565 4
      vertex -0.801865 0.753002 4
    endloop
  endfacet
  facet normal 0.684548 -0.728967 0
    outer loop
      vertex -0.801865 0.753002 -4
      vertex -0.701166 0.847565 -4
      vertex -0.801865 0.753002 4
    endloop
  endfacet
  facet normal 0.587784 -0.809018 0
    outer loop
      vertex -0.589409 0.928761 -4
      vertex -0.589409 0.928761 4
      vertex -0.701166 0.847565 4
    endloop
  endfacet
  facet normal 0.587784 -0.809018 0
    outer loop
      vertex -0.701166 0.847565 -4
      vertex -0.589409 0.928761 -4
      vertex -0.701166 0.847565 4
    endloop
  endfacet
  facet normal 0.481754 -0.876306 0
    outer loop
      vertex -0.468357 0.99531 -4
      vertex -0.468357 0.99531 4
      vertex -0.589409 0.928761 4
    endloop
  endfacet
  facet normal 0.481754 -0.876306 0
    outer loop
      vertex -0.589409 0.928761 -4
      vertex -0.468357 0.99531 -4
      vertex -0.589409 0.928761 4
    endloop
  endfacet
  facet normal 0.368123 -0.929777 0
    outer loop
      vertex -0.339919 1.04616 -4
      vertex -0.339919 1.04616 4
      vertex -0.468357 0.99531 4
    endloop
  endfacet
  facet normal 0.368123 -0.929777 0
    outer loop
      vertex -0.468357 0.99531 -4
      vertex -0.339919 1.04616 -4
      vertex -0.468357 0.99531 4
    endloop
  endfacet
  facet normal 0.24869 -0.968583 0
    outer loop
      vertex -0.206119 1.08052 -4
      vertex -0.206119 1.08052 4
      vertex -0.339919 1.04616 4
    endloop
  endfacet
  facet normal 0.24869 -0.968583 0
    outer loop
      vertex -0.339919 1.04616 -4
      vertex -0.206119 1.08052 -4
      vertex -0.339919 1.04616 4
    endloop
  endfacet
  facet normal 0.125331 -0.992115 0
    outer loop
      vertex -0.06907 1.09783 -4
      vertex -0.06907 1.09783 4
      vertex -0.206119 1.08052 4
    endloop
  endfacet
  facet normal 0.125331 -0.992115 0
    outer loop
      vertex -0.206119 1.08052 -4
      vertex -0.06907 1.09783 -4
      vertex -0.206119 1.08052 4
    endloop
  endfacet
  facet normal 0 -1 0
    outer loop
      vertex 0.06907 1.09783 -4
      vertex 0.06907 1.09783 4
      vertex -0.06907 1.09783 4
    endloop
  endfacet
  facet normal -0 -1 -0
    outer loop
      vertex -0.06907 1.09783 -4
      vertex 0.06907 1.09783 -4
      vertex -0.06907 1.09783 4
    endloop
  endfacet
  facet normal -0.125331 -0.992115 -0
    outer loop
      vertex 0.206119 1.08052 -4
      vertex 0.206119 1.08052 4
      vertex 0.06907 1.09783 4
    endloop
  endfacet
  facet normal -0.125331 -0.992115 -0
    outer loop
      vertex 0.06907 1.09783 -4
      vertex 0.206119 1.08052 -4
      vertex 0.06907 1.09783 4
    endloop
  endfacet
  facet normal -0.24869 -0.968583 -0
    outer loop
      vertex 0.339919 1.04616 -4
      vertex 0.339919 1.04616 4
      vertex 0.206119 1.08052 4
    endloop
  endfacet
  facet normal -0.24869 -0.968583 -0
    outer loop
      vertex 0.206119 1.08052 -4
      vertex 0.339919 1.04616 -4
      vertex 0.206119 1.08052 4
    endloop
  endfacet
  facet normal -0.368123 -0.929777 -0
    outer loop
      vertex 0.468357 0.99531 -4
      vertex 0.468357 0.99531 4
      vertex 0.339919 1.04616 4
    endloop
  endfacet
  facet normal -0.368123 -0.929777 -0
    outer loop
      vertex 0.339919 1.04616 -4
      vertex 0.468357 0.99531 -4
      vertex 0.339919 1.04616 4
    endloop
  endfacet
  facet normal -0.481754 -0.876306 -0
    outer loop
      vertex 0.589409 0.928761 -4
      vertex 0.589409 0.928761 4
      vertex 0.468357 0.99531 4
    endloop
  endfacet
  facet normal -0.481754 -0.876306 -0
    outer loop
      vertex 0.468357 0.99531 -4
      vertex 0.589409 0.928761 -4
      vertex 0.468357 0.99531 4
    endloop
  endfacet
  facet normal -0.587784 -0.809018 -0
    outer loop
      vertex 0.701166 0.847565 -4
      vertex 0.701166 0.847565 4
      vertex 0.589409 0.928761 4
    endloop
  endfacet
  facet normal -0.587784 -0.809018 -0
    outer loop
      vertex 0.589409 0.928761 -4
      vertex 0.701166 0.847565 -4
      vertex 0.589409 0.928761 4
    endloop
  endfacet
  facet normal -0.684548 -0.728967 -0
    outer loop
      vertex 0.801865 0.753002 -4
      vertex 0.801865 0.753002 4
      vertex 0.701166 0.847565 4
    endloop
  endfacet
  facet normal -0.684548 -0.728967 -0
    outer loop
      vertex 0.701166 0.847565 -4
      vertex 0.801865 0.753002 -4
      vertex 0.701166 0.847565 4
    endloop
  endfacet
  facet normal -0.77051 -0.637428 0
    outer loop
      vertex 0.889919 0.646564 4
      vertex 0.801865 0.753002 4
      vertex 0.889919 0.646564 -4
    endloop
  endfacet
  facet normal -0.77051 -0.637428 0
    outer loop
      vertex 0.889919 0.646564 -4
      vertex 0.801865 0.753002 4
      vertex 0.801865 0.753002 -4
    endloop
  endfacet
  facet normal -0.844331 -0.535823 0
    outer loop
      vertex 0.963937 0.529929 4
      vertex 0.889919 0.646564 4
      vertex 0.963937 0.529929 -4
    endloop
  endfacet
  facet normal -0.844331 -0.535823 0
    outer loop
      vertex 0.963937 0.529929 -4
      vertex 0.889919 0.646564 4
      vertex 0.889919 0.646564 -4
    endloop
  endfacet
  facet normal -0.904826 -0.425781 0
    outer loop
      vertex 1.02275 0.404937 4
      vertex 0.963937 0.529929 4
      vertex 1.02275 0.404937 -4
    endloop
  endfacet
  facet normal -0.904826 -0.425781 0
    outer loop
      vertex 1.02275 0.404937 -4
      vertex 0.963937 0.529929 4
      vertex 0.963937 0.529929 -4
    endloop
  endfacet
  facet normal -0.951057 -0.309015 0
    outer loop
      vertex 1.06544 0.273559 4
      vertex 1.02275 0.404937 4
      vertex 1.06544 0.273559 -4
    endloop
  endfacet
  facet normal -0.951057 -0.309015 0
    outer loop
      vertex 1.06544 0.273559 -4
      vertex 1.02275 0.404937 4
      vertex 1.02275 0.404937 -4
    endloop
  endfacet
  facet normal -0.982287 -0.187384 0
    outer loop
      vertex 1.09133 0.137867 4
      vertex 1.06544 0.273559 4
      vertex 1.09133 0.137867 -4
    endloop
  endfacet
  facet normal -0.982287 -0.187384 0
    outer loop
      vertex 1.09133 0.137867 -4
      vertex 1.06544 0.273559 4
      vertex 1.06544 0.273559 -4
    endloop
  endfacet
  facet normal -0.998027 -0.0627916 0
    outer loop
      vertex 1.1 0 4
      vertex 1.09133 0.137867 4
      vertex 1.1 0 -4
    endloop
  endfacet
  facet normal -0.998027 -0.0627916 0
    outer loop
      vertex 1.1 0 -4
      vertex 1.09133 0.137867 4
      vertex 1.09133 0.137867 -4
    endloop
  endfacet
  facet normal -0.998027 0.0627916 0
    outer loop
      vertex 1.1 0 4
      vertex 1.1 0 -4
      vertex 1.09133 -0.137867 4
    endloop
  endfacet
  facet normal -0.998027 0.0627916 0
    outer loop
      vertex 1.09133 -0.137867 4
      vertex 1.1 0 -4
      vertex 1.09133 -0.137867 -4
    endloop
  endfacet
  facet normal -0.982287 0.187384 0
    outer loop
      vertex 1.09133 -0.137867 4
      vertex 1.09133 -0.137867 -4
      vertex 1.06544 -0.273559 4
    endloop
  endfacet
  facet normal -0.982287 0.187384 0
    outer loop
      vertex 1.06544 -0.273559 4
      vertex 1.09133 -0.137867 -4
      vertex 1.06544 -0.273559 -4
    endloop
  endfacet
  facet normal -0.951057 0.309015 0
    outer loop
      vertex 1.06544 -0.273559 4
      vertex 1.06544 -0.273559 -4
      vertex 1.02275 -0.404937 4
    endloop
  endfacet
  facet normal -0.951057 0.309015 0
    outer loop
      vertex 1.02275 -0.404937 4
      vertex 1.06544 -0.273559 -4
      vertex 1.02275 -0.404937 -4
    endloop
  endfacet
  facet normal -0.904826 0.425781 0
    outer loop
      vertex 1.02275 -0.404937 4
      vertex 1.02275 -0.404937 -4
      vertex 0.963937 -0.529929 4
    endloop
  endfacet
  facet normal -0.904826 0.425781 0
    outer loop
      vertex 0.963937 -0.529929 4
      vertex 1.02275 -0.404937 -4
      vertex 0.963937 -0.529929 -4
    endloop
  endfacet
  facet normal -0.844331 0.535823 0
    outer loop
      vertex 0.963937 -0.529929 4
      vertex 0.963937 -0.529929 -4
      vertex 0.889919 -0.646564 4
    endloop
  endfacet
  facet normal -0.844331 0.535823 0
    outer loop
      vertex 0.889919 -0.646564 4
      vertex 0.963937 -0.529929 -4
      vertex 0.889919 -0.646564 -4
    endloop
  endfacet
  facet normal -0.77051 0.637428 0
    outer loop
      vertex 0.889919 -0.646564 4
      vertex 0.889919 -0.646564 -4
      vertex 0.801865 -0.753002 4
    endloop
  endfacet
  facet normal -0.77051 0.637428 0
    outer loop
      vertex 0.801865 -0.753002 4
      vertex 0.889919 -0.646564 -4
      vertex 0.801865 -0.753002 -4
    endloop
  endfacet
  facet normal -0.684548 0.728967 0
    outer loop
      vertex 0.801865 -0.753002 4
      vertex 0.801865 -0.753002 -4
      vertex 0.701166 -0.847565 4
    endloop
  endfacet
  facet normal -0.684548 0.728967 0
    outer loop
      vertex 0.701166 -0.847565 4
      vertex 0.801865 -0.753002 -4
      vertex 0.701166 -0.847565 -4
    endloop
  endfacet
  facet normal -0.587784 0.809018 0
    outer loop
      vertex 0.701166 -0.847565 4
      vertex 0.701166 -0.847565 -4
      vertex 0.589409 -0.928761 4
    endloop
  endfacet
  facet normal -0.587784 0.809018 0
    outer loop
      vertex 0.589409 -0.928761 4
      vertex 0.701166 -0.847565 -4
      vertex 0.589409 -0.928761 -4
    endloop
  endfacet
  facet normal -0.481754 0.876306 0
    outer loop
      vertex 0.589409 -0.928761 4
      vertex 0.589409 -0.928761 -4
      vertex 0.468357 -0.99531 4
    endloop
  endfacet
  facet normal -0.481754 0.876306 0
    outer loop
      vertex 0.468357 -0.99531 4
      vertex 0.589409 -0.928761 -4
      vertex 0.468357 -0.99531 -4
    endloop
  endfacet
  facet normal -0.368123 0.929777 0
    outer loop
      vertex 0.468357 -0.99531 4
      vertex 0.468357 -0.99531 -4
      vertex 0.339919 -1.04616 4
    endloop
  endfacet
  facet normal -0.368123 0.929777 0
    outer loop
      vertex 0.339919 -1.04616 4
      vertex 0.468357 -0.99531 -4
      vertex 0.339919 -1.04616 -4
    endloop
  endfacet
  facet normal -0.24869 0.968583 0
    outer loop
      vertex 0.339919 -1.04616 4
      vertex 0.339919 -1.04616 -4
      vertex 0.206119 -1.08052 4
    endloop
  endfacet
  facet normal -0.24869 0.968583 0
    outer loop
      vertex 0.206119 -1.08052 4
      vertex 0.339919 -1.04616 -4
      vertex 0.206119 -1.08052 -4
    endloop
  endfacet
  facet normal -0.125331 0.992115 0
    outer loop
      vertex 0.206119 -1.08052 4
      vertex 0.206119 -1.08052 -4
      vertex 0.06907 -1.09783 4
    endloop
  endfacet
  facet normal -0.125331 0.992115 0
    outer loop
      vertex 0.06907 -1.09783 4
      vertex 0.206119 -1.08052 -4
      vertex 0.06907 -1.09783 -4
    endloop
  endfacet
  facet normal 0 1 0
    outer loop
      vertex 0.06907 -1.09783 4
      vertex 0.06907 -1.09783 -4
      vertex -0.06907 -1.09783 4
    endloop
  endfacet
  facet normal 0 1 -0
    outer loop
      vertex -0.06907 -1.09783 4
      vertex 0.06907 -1.09783 -4
      vertex -0.06907 -1.09783 -4
    endloop
  endfacet
  facet normal 0.125331 0.992115 -0
    outer loop
      vertex -0.06907 -1.09783 4
      vertex -0.06907 -1.09783 -4
      vertex -0.206119 -1.08052 4
    endloop
  endfacet
  facet normal 0.125331 0.992115 -0
    outer loop
      vertex -0.206119 -1.08052 4
      vertex -0.06907 -1.09783 -4
      vertex -0.206119 -1.08052 -4
    endloop
  endfacet
  facet normal 0.24869 0.968583 -0
    outer loop
      vertex -0.206119 -1.08052 4
      vertex -0.206119 -1.08052 -4
      vertex -0.339919 -1.04616 4
    endloop
  endfacet
  facet normal 0.24869 0.968583 -0
    outer loop
      vertex -0.339919 -1.04616 4
      vertex -0.206119 -1.08052 -4
      vertex -0.339919 -1.04616 -4
    endloop
  endfacet
  facet normal 0.368123 0.929777 -0
    outer loop
      vertex -0.339919 -1.04616 4
      vertex -0.339919 -1.04616 -4
      vertex -0.468357 -0.99531 4
    endloop
  endfacet
  facet normal 0.368123 0.929777 -0
    outer loop
      vertex -0.468357 -0.99531 4
      vertex -0.339919 -1.04616 -4
      vertex -0.468357 -0.99531 -4
    endloop
  endfacet
  facet normal 0.481754 0.876306 -0
    outer loop
      vertex -0.468357 -0.99531 4
      vertex -0.468357 -0.99531 -4
      vertex -0.589409 -0.928761 4
    endloop
  endfacet
  facet normal 0.481754 0.876306 -0
    outer loop
      vertex -0.589409 -0.928761 4
      vertex -0.468357 -0.99531 -4
      vertex -0.589409 -0.928761 -4
    endloop
  endfacet
  facet normal 0.587784 0.809018 -0
    outer loop
      vertex -0.589409 -0.928761 4
      vertex -0.589409 -0.928761 -4
      vertex -0.701166 -0.847565 4
    endloop
  endfacet
  facet normal 0.587784 0.809018 -0
    outer loop
      vertex -0.701166 -0.847565 4
      vertex -0.589409 -0.928761 -4
      vertex -0.701166 -0.847565 -4
    endloop
  endfacet
  facet normal 0.684548 0.728967 -0
    outer loop
      vertex -0.701166 -0.847565 4
      vertex -0.701166 -0.847565 -4
      vertex -0.801865 -0.753002 4
    endloop
  endfacet
  facet normal 0.684548 0.728967 -0
    outer loop
      vertex -0.801865 -0.753002 4
      vertex -0.701166 -0.847565 -4
      vertex -0.801865 -0.753002 -4
    endloop
  endfacet
  facet normal 0.77051 0.637428 0
    outer loop
      vertex -0.889919 -0.646564 4
      vertex -0.801865 -0.753002 4
      vertex -0.801865 -0.753002 -4
    endloop
  endfacet
  facet normal 0.77051 0.637428 0
    outer loop
      vertex -0.889919 -0.646564 -4
      vertex -0.889919 -0.646564 4
      vertex -0.801865 -0.753002 -4
    endloop
  endfacet
  facet normal 0.844331 0.535823 0
    outer loop
      vertex -0.963937 -0.529929 4
      vertex -0.889919 -0.646564 4
      vertex -0.889919 -0.646564 -4
    endloop
  endfacet
  facet normal 0.844331 0.535823 0
    outer loop
      vertex -0.963937 -0.529929 -4
      vertex -0.963937 -0.529929 4
      vertex -0.889919 -0.646564 -4
    endloop
  endfacet
  facet normal 0.904826 0.425781 0
    outer loop
      vertex -1.02275 -0.404937 4
      vertex -0.963937 -0.529929 4
      vertex -0.963937 -0.529929 -4
    endloop
  endfacet
  facet normal 0.904826 0.425781 0
    outer loop
      vertex -1.02275 -0.404937 -4
      vertex -1.02275 -0.404937 4
      vertex -0.963937 -0.529929 -4
    endloop
  endfacet
  facet normal 0.951057 0.309015 0
    outer loop
      vertex -1.06544 -0.273559 4
      vertex -1.02275 -0.404937 4
      vertex -1.02275 -0.404937 -4
    endloop
  endfacet
  facet normal 0.951057 0.309015 0
    outer loop
      vertex -1.06544 -0.273559 -4
      vertex -1.06544 -0.273559 4
      vertex -1.02275 -0.404937 -4
    endloop
  endfacet
  facet normal 0.982287 0.187384 0
    outer loop
      vertex -1.09133 -0.137867 4
      vertex -1.06544 -0.273559 4
      vertex -1.06544 -0.273559 -4
    endloop
  endfacet
  facet normal 0.982287 0.187384 0
    outer loop
      vertex -1.09133 -0.137867 -4
      vertex -1.09133 -0.137867 4
      vertex -1.06544 -0.273559 -4
    endloop
  endfacet
endsolid OpenSCAD_Model
